<svg width="16" height="16" viewBox="0 0 16 16" fill="none" xmlns="http://www.w3.org/2000/svg">
<path d="M8.83325 2.66665C8.83325 2.20641 8.46016 1.83331 7.99992 1.83331C7.53968 1.83331 7.16659 2.20641 7.16659 2.66665V7.16665H2.66659C2.20635 7.16665 1.83325 7.53974 1.83325 7.99998C1.83325 8.46022 2.20635 8.83331 2.66659 8.83331H7.16659V13.3333C7.16659 13.7936 7.53968 14.1666 7.99992 14.1666C8.46016 14.1666 8.83325 13.7936 8.83325 13.3333V8.83331H13.3333C13.7935 8.83331 14.1666 8.46022 14.1666 7.99998C14.1666 7.53974 13.7935 7.16665 13.3333 7.16665H8.83325V2.66665Z" fill="#520826"/>
</svg>
