<svg width="28" height="28" viewBox="0 0 28 28" fill="none" xmlns="http://www.w3.org/2000/svg">
<path fill-rule="evenodd" clip-rule="evenodd" d="M13.7953 1.466C13.9317 1.45578 14.0686 1.45578 14.205 1.466C14.7925 1.51003 15.2687 1.77514 15.7037 2.11551C16.1129 2.43565 16.5656 2.88836 17.095 3.41782L17.3776 3.65979C17.6773 3.91636 17.8271 4.04466 18.007 4.11633C18.1868 4.18799 18.3838 4.19791 18.7778 4.21774L19.212 4.2396C20.0418 4.23955 20.751 4.23952 21.3177 4.31571C21.9229 4.39707 22.4948 4.57947 22.9578 5.0424C23.4207 5.50533 23.6031 6.07729 23.6844 6.68244C23.7606 7.24918 23.7606 7.95839 23.7606 8.78813L23.7824 9.22233C23.8023 9.61633 23.8122 9.81335 23.8838 9.9932C23.9555 10.173 24.0838 10.3229 24.3403 10.6225L24.5823 10.9051C25.1118 11.4346 25.5645 11.8872 25.8847 12.2964C26.225 12.7315 26.4901 13.2076 26.5342 13.7952C26.5444 13.9315 26.5444 14.0685 26.5342 14.2048C26.4901 14.7924 26.225 15.2685 25.8847 15.7036C25.5645 16.1127 25.1118 16.5654 24.5824 17.0948L24.3404 17.3774C24.0838 17.6771 23.9555 17.8269 23.8838 18.0068C23.8122 18.1866 23.8023 18.3836 23.7824 18.7777L23.7606 19.2119C23.7606 20.0416 23.7606 20.7508 23.6844 21.3176C23.6031 21.9227 23.4207 22.4947 22.9578 22.9576C22.4948 23.4205 21.9229 23.6029 21.3177 23.6843C20.751 23.7605 20.0418 23.7604 19.212 23.7604L18.7108 23.7952C18.3161 23.8227 18.1187 23.8364 17.9399 23.9119C17.761 23.9873 17.6134 24.1191 17.3183 24.3827L17.095 24.5821C16.5656 25.1116 16.1129 25.5643 15.7037 25.8845C15.2687 26.2249 14.7925 26.49 14.205 26.534C14.0686 26.5442 13.9317 26.5442 13.7953 26.534C13.2078 26.49 12.7317 26.2249 12.2966 25.8845C11.8875 25.5644 11.4348 25.1117 10.9055 24.5823L10.6227 24.3402C10.3231 24.0836 10.1732 23.9553 9.99336 23.8837C9.81352 23.812 9.61651 23.8021 9.22251 23.7823L8.7883 23.7604C7.95855 23.7604 7.24934 23.7605 6.6826 23.6843C6.07745 23.6029 5.5055 23.4205 5.04256 22.9576C4.57963 22.4947 4.39724 21.9227 4.31588 21.3176C4.23968 20.7508 4.23972 20.0416 4.23976 19.2119L4.2179 18.7777C4.19807 18.3837 4.18815 18.1866 4.11649 18.0068C4.04483 17.8269 3.91654 17.6771 3.65996 17.3774L3.41798 17.0948C2.88852 16.5654 2.43581 16.1127 2.11567 15.7035C1.7753 15.2685 1.51019 14.7924 1.46616 14.2048C1.45594 14.0685 1.45594 13.9315 1.46616 13.7952C1.51019 13.2076 1.7753 12.7315 2.11567 12.2964C2.4358 11.8873 2.88848 11.4346 3.41792 10.9052L3.65995 10.6226C3.91653 10.3229 4.04482 10.173 4.11649 9.9932C4.18815 9.81335 4.19807 9.61634 4.2179 9.22233L4.23976 8.78812C4.23972 7.95838 4.23968 7.24917 4.31588 6.68244C4.39724 6.07729 4.57963 5.50533 5.04256 5.0424C5.50549 4.57947 6.07745 4.39707 6.6826 4.31571C7.24934 4.23952 7.95855 4.23955 8.78829 4.2396L9.28951 4.20475C9.68422 4.1773 9.88158 4.16358 10.0605 4.08812C10.2393 4.01266 10.3869 3.88087 10.682 3.61731L10.9053 3.41781C11.4348 2.88835 11.8874 2.43565 12.2966 2.11551C12.7317 1.77514 13.2078 1.51003 13.7953 1.466ZM12.8335 18.6667C12.8335 18.0223 13.3535 17.5 13.9949 17.5H14.0054C14.6468 17.5 15.1668 18.0223 15.1668 18.6667C15.1668 19.311 14.6468 19.8333 14.0054 19.8333H13.9949C13.3535 19.8333 12.8335 19.311 12.8335 18.6667ZM12.8335 14C12.8335 14.6443 13.3558 15.1667 14.0002 15.1667C14.6445 15.1667 15.1668 14.6443 15.1668 14V9.33333C15.1668 8.689 14.6445 8.16667 14.0002 8.16667C13.3558 8.16667 12.8335 8.689 12.8335 9.33333V14Z" fill="#E54F40"/>
</svg>
