<svg width="18" height="17" viewBox="0 0 18 17" fill="none" xmlns="http://www.w3.org/2000/svg">
    <path fill-rule="evenodd" clip-rule="evenodd"
        d="M6.92547 0.2098C6.73772 -0.00141807 6.43159 -0.0603721 6.17883 0.0660108L2.45998 1.92544C1.46799 2.42143 0.813214 3.40603 0.739439 4.51265L0.00138569 15.5835C-0.0101208 15.7561 0.0504197 15.9257 0.168598 16.052C0.286775 16.1783 0.45202 16.25 0.625001 16.25H3.125C3.40101 16.25 3.64433 16.069 3.72364 15.8046L4.20941 14.1854C4.21635 14.2032 4.22412 14.2207 4.2327 14.2379L5.06603 15.9046C5.1719 16.1163 5.38831 16.25 5.62505 16.25H12.2917C12.5284 16.25 12.7449 16.1163 12.8507 15.9046L13.6841 14.2379C13.6926 14.2208 13.7004 14.2033 13.7073 14.1855L14.193 15.8046C14.2723 16.069 14.5157 16.25 14.7917 16.25H17.2917C17.4646 16.25 17.6299 16.1783 17.7481 16.052C17.8663 15.9257 17.9268 15.7561 17.9153 15.5835L17.1772 4.51265C17.1035 3.40603 16.4487 2.42143 15.4567 1.92544L11.7378 0.0660108C11.4851 -0.0603721 11.179 -0.00141807 10.9912 0.2098C10.5504 0.705657 9.78766 0.996687 8.95833 0.996687C8.12901 0.996687 7.36623 0.705657 6.92547 0.2098ZM14.0408 11.0819C14.0842 11.1395 14.1184 11.2056 14.1403 11.2788L15.2567 15H16.6236L15.93 4.5958C15.8857 3.93183 15.4929 3.34107 14.8977 3.04347L11.5714 1.38032C10.8469 1.97567 9.87848 2.24669 8.95833 2.24669C8.03819 2.24669 7.06975 1.97567 6.34528 1.38032L3.01899 3.04347C2.4238 3.34107 2.03094 3.93183 1.98667 4.5958L1.29306 15H2.65998L3.77636 11.2788C3.79831 11.2056 3.83247 11.1394 3.87594 11.0818L3.33648 5.68724C3.30214 5.34377 3.55273 5.03749 3.89619 5.00315C4.23966 4.9688 4.54593 5.21939 4.58028 5.56286L5.40217 13.7817L6.01132 15H11.9054L12.5146 13.7817L13.3365 5.56286C13.3708 5.21939 13.6771 4.9688 14.0206 5.00315C14.364 5.03749 14.6146 5.34377 14.5803 5.68724L14.0408 11.0819Z"
        fill="#1F1F1F" fill-opacity="0.66" />
    <path opacity="0.4"
        d="M6.66669 1.04046C6.66603 0.69584 6.38646 0.416672 6.04169 0.416672C5.69651 0.416672 5.41669 0.696494 5.41669 1.04167C5.41673 1.04351 5.41678 1.0456 5.41683 1.04792C5.41764 1.08227 5.41962 1.16614 5.42202 1.21396C5.42715 1.31594 5.43723 1.45961 5.45707 1.63425C5.4966 1.9821 5.5757 2.46037 5.73534 2.98041C6.05052 4.00716 6.71045 5.28926 8.09757 5.96336C8.27621 6.05017 8.33335 6.18024 8.33335 6.25359V15.625C8.33335 15.9702 8.61318 16.25 8.95835 16.25C9.30353 16.25 9.58335 15.9702 9.58335 15.625V6.25359C9.58335 6.19219 9.57959 6.13219 9.57239 6.07364C11.0081 5.48981 11.7367 4.26633 12.1003 3.22731C12.3012 2.65355 12.4002 2.11317 12.4496 1.71815C12.4744 1.51967 12.487 1.35533 12.4934 1.23856C12.4966 1.18011 12.4982 1.13339 12.4991 1.10007C12.4995 1.08498 12.4998 1.0574 12.5 1.04503L12.5 1.04167C12.5 0.696494 12.2202 0.416672 11.875 0.416672C11.5301 0.416672 11.2505 0.696008 11.25 1.04077L11.2495 1.06791C11.2489 1.08992 11.2478 1.12458 11.2453 1.1703C11.2402 1.26187 11.23 1.39701 11.2093 1.56311C11.1675 1.89726 11.0843 2.34646 10.9205 2.81437C10.6011 3.72698 10.0106 4.62647 8.89796 4.98999C8.81609 4.93172 8.73066 4.88123 8.64393 4.83908C7.70199 4.38133 7.19739 3.48366 6.9303 2.61359C6.79881 2.18523 6.73234 1.78583 6.69908 1.49312C6.68253 1.34748 6.67442 1.23014 6.67045 1.15119C6.66846 1.11176 6.66752 1.08205 6.66708 1.06334L6.66672 1.04373L6.66669 1.04046Z"
        fill="#1F1F1F" fill-opacity="0.66" />
</svg>
