<svg width="20" height="20" viewBox="0 0 20 20" fill="none" xmlns="http://www.w3.org/2000/svg">
<g clip-path="url(#clip0_1548_160)">
<path d="M0 6.66797H20V13.332H0V6.66797Z" fill="white"/>
<path d="M0 0H20V6.66797H0V0Z" fill="#CE1126"/>
<path d="M0 13.332H20V20H0V13.332Z" fill="black"/>
<path d="M12.9543 8.77506C12.9163 8.75682 12.8817 8.73212 12.8521 8.70207C12.8302 8.66558 12.8448 8.66558 12.9397 8.68747C13.1076 8.73857 13.2171 8.71667 13.3266 8.62908L13.4214 8.54879L13.5309 8.59988C13.5966 8.63638 13.6623 8.65828 13.6769 8.65098C13.728 8.63638 13.8302 8.50499 13.8229 8.4612C13.8229 8.4101 13.8667 8.4247 13.8959 8.48309C13.9397 8.59988 13.874 8.73857 13.7499 8.76776C13.6988 8.78236 13.6477 8.77506 13.5601 8.74587C13.4579 8.70937 13.436 8.70937 13.3849 8.74587C13.3238 8.79209 13.2505 8.81947 13.174 8.82466C13.0975 8.82984 13.0211 8.81261 12.9543 8.77506ZM13.3776 8.3882C13.3282 8.29893 13.3031 8.19826 13.3047 8.09624C13.312 8.05244 13.3266 8.03784 13.363 8.05244C13.436 8.07434 13.4506 8.12543 13.436 8.27142C13.436 8.4028 13.4141 8.4393 13.3776 8.3882ZM8.44338 8.24952C8.43608 8.34441 8.61856 8.58528 8.69885 8.62908C8.64045 8.65098 8.57476 8.64368 8.52366 8.66558C8.2317 8.95754 7.18061 9.97944 6.99083 10.2276C7.56017 10.2422 8.1879 10.2203 8.72074 10.1984C8.72074 9.81155 9.0857 9.78965 9.33388 9.65097C9.45796 9.84805 9.77183 9.83345 9.81563 10.1327V11.4174H4.96165C4.94329 11.5148 4.90468 11.6073 4.84832 11.6888C4.79196 11.7703 4.71911 11.8391 4.63448 11.8907C4.54985 11.9423 4.45532 11.9756 4.35703 11.9884C4.25873 12.0011 4.15884 11.9931 4.06384 11.9648C4.20983 11.8188 4.458 11.7604 4.54559 11.5488C4.61858 11.0816 4.39961 10.7969 4.25362 10.5269C4.43724 10.468 4.60988 10.3792 4.76457 10.2641C4.59669 10.775 5.21712 10.724 5.66967 10.7094C5.68427 10.5342 5.67697 10.3298 5.54558 10.3006C5.71347 10.2349 5.74266 10.213 6.02733 9.97943V10.6802L9.39227 10.6729C9.39227 10.4539 9.45067 10.0962 9.27549 10.0962C9.1149 10.0962 9.27548 10.5488 9.1441 10.5488H6.53828V10.1108C6.64777 9.99403 6.63317 10.0013 7.38499 9.24951C7.45798 9.17652 7.99082 8.69477 8.45067 8.24952H8.44338ZM14.947 8.22762C15.1295 8.32981 15.2754 8.4612 15.4944 8.51959C15.4725 8.61448 15.3849 8.65098 15.363 8.74587V10.7167C15.6112 10.7678 15.6696 10.6218 15.7864 10.5488C15.8156 10.8626 16.02 11.1692 16.0054 11.4247H14.947V8.23492V8.22762ZM13.5309 9.28601C13.5309 9.28601 13.9178 8.95754 13.9178 8.94295V10.6583H14.1952L14.1879 8.73857C14.2973 8.62178 14.5236 8.4612 14.5747 8.34441V11.4101H12.1368C12.1003 10.775 12.093 10.1181 12.8375 10.2568V10.0013C12.8156 9.95754 12.7718 10.0086 12.7645 9.95024C12.8813 9.83345 12.9178 9.80425 13.239 9.52688L13.2463 10.6583H13.5309V9.28601ZM12.6112 10.6437C12.6623 10.7167 12.8448 10.7167 12.8302 10.5853C12.8083 10.4758 12.5747 10.5123 12.6112 10.6437Z" fill="#007A3D"/>
<path d="M5.54564 11.9283C5.62627 11.9283 5.69163 11.863 5.69163 11.7823C5.69163 11.7017 5.62627 11.6364 5.54564 11.6364C5.46502 11.6364 5.39966 11.7017 5.39966 11.7823C5.39966 11.863 5.46502 11.9283 5.54564 11.9283Z" fill="#007A3D"/>
<path d="M10.144 8.23492C10.3265 8.32981 10.4725 8.4685 10.6988 8.52689C10.6696 8.61448 10.5893 8.65098 10.5674 8.74587V10.7167C10.8156 10.7678 10.8667 10.6291 10.9835 10.5488C11.0199 10.8626 11.217 11.1765 11.2097 11.4247H10.144V8.23492Z" fill="#007A3D"/>
</g>
<defs>
<clipPath id="clip0_1548_160">
<path d="M0 10C0 4.47715 4.47715 0 10 0C15.5228 0 20 4.47715 20 10C20 15.5228 15.5228 20 10 20C4.47715 20 0 15.5228 0 10Z" fill="white"/>
</clipPath>
</defs>
</svg>
