<svg width="21" height="22" viewBox="0 0 21 22" fill="none" xmlns="http://www.w3.org/2000/svg">
<path fill-rule="evenodd" clip-rule="evenodd" d="M10.2513 1.5C6.48601 1.5 3.47643 4.44657 3.47643 8.02941V8.02948C3.47634 9.08205 3.42288 10.2712 2.65148 11.3739L2.64901 11.3774L2.649 11.3774C2.54603 11.5228 2.43485 11.6703 2.33056 11.8086C2.30549 11.8418 2.28082 11.8745 2.25676 11.9065C2.12819 12.0777 2.01038 12.2379 1.90521 12.3978C1.69242 12.7214 1.56345 12.9976 1.52214 13.2605C1.38907 14.1071 1.94233 14.7979 2.96315 15.2084C7.24636 16.9305 13.2563 16.9305 17.5395 15.2084C18.5603 14.7979 19.1135 14.1071 18.9805 13.2605C18.9392 12.9976 18.8102 12.7214 18.5974 12.3978C18.4922 12.2379 18.3744 12.0777 18.2459 11.9065C18.2218 11.8745 18.1971 11.8418 18.1721 11.8086C18.0678 11.6703 17.9566 11.5228 17.8536 11.3774L17.8511 11.3739C17.0797 10.2712 17.0263 9.08206 17.0262 8.02948V8.02941C17.0262 4.44657 14.0166 1.5 10.2513 1.5ZM1.97643 8.02935C1.97647 3.5716 5.70488 0 10.2513 0C14.7978 0 18.5262 3.57164 18.5262 8.02941C18.5263 9.05661 18.5973 9.82266 19.0791 10.5124C19.1674 10.637 19.2609 10.761 19.3633 10.8968C19.3899 10.9322 19.4172 10.9684 19.4451 11.0056C19.5765 11.1804 19.7182 11.3721 19.8507 11.5737C20.1134 11.9732 20.3729 12.459 20.4623 13.0276C20.7545 14.887 19.4063 16.0745 18.099 16.6001C13.4567 18.4666 7.04587 18.4666 2.40358 16.6001C1.09628 16.0745 -0.25192 14.887 0.0403257 13.0276C0.129699 12.459 0.389193 11.9732 0.65188 11.5737C0.784447 11.3721 0.926133 11.1804 1.05747 11.0056C1.08542 10.9684 1.11271 10.9322 1.13939 10.8968C1.24177 10.761 1.33526 10.637 1.42356 10.5124C1.90529 9.82263 1.97634 9.05655 1.97643 8.02941" fill="#1F1F1F" fill-opacity="0.87"/>
<path opacity="0.4" fill-rule="evenodd" clip-rule="evenodd" d="M6.6602 19.2883C6.91517 18.9619 7.3865 18.904 7.71294 19.1589C8.37417 19.6754 9.26214 20 10.2513 20C11.2404 20 12.1283 19.6754 12.7896 19.1589C13.116 18.904 13.5873 18.9619 13.8423 19.2883C14.0973 19.6148 14.0394 20.0861 13.7129 20.3411C12.7819 21.0683 11.5672 21.5 10.2513 21.5C8.93531 21.5 7.72061 21.0683 6.78957 20.3411C6.46314 20.0861 6.40522 19.6148 6.6602 19.2883Z" fill="#1F1F1F" fill-opacity="0.87"/>
</svg>
