<svg width="20" height="20" viewBox="0 0 20 20" fill="none" xmlns="http://www.w3.org/2000/svg">
<path fill-rule="evenodd" clip-rule="evenodd" d="M9.99984 18.9583C5.05229 18.9583 1.0415 14.9476 1.0415 10C1.0415 5.05245 5.05229 1.04167 9.99984 1.04167C14.9474 1.04167 18.9582 5.05245 18.9582 10C18.9582 14.9476 14.9474 18.9583 9.99984 18.9583ZM13.0891 8.08928C13.4145 7.76385 13.4145 7.23621 13.0891 6.91077C12.7637 6.58532 12.236 6.5853 11.9106 6.91073L9.99967 8.82153L8.08907 6.91106C7.76363 6.58563 7.23599 6.58565 6.91056 6.91109C6.58514 7.23654 6.58515 7.76418 6.9106 8.08961L8.82112 10L6.9106 11.9104C6.58515 12.2358 6.58514 12.7635 6.91056 13.0889C7.23599 13.4144 7.76363 13.4144 8.08907 13.0889L9.99967 11.1785L11.9106 13.0893C12.236 13.4147 12.7637 13.4147 13.0891 13.0892C13.4145 12.7638 13.4145 12.2362 13.0891 11.9107L11.1782 10L13.0891 8.08928Z" fill="#1F1F1F" fill-opacity="0.66"/>
</svg>
