<svg width="14" height="14" viewBox="0 0 14 14" fill="none" xmlns="http://www.w3.org/2000/svg">
<path fill-rule="evenodd" clip-rule="evenodd" d="M5.42938 0.488574C5.43569 0.764644 5.21701 0.99356 4.94094 0.999872C3.15116 1.04079 2.31853 1.22182 1.77017 1.77017C1.22182 2.31853 1.04079 3.15116 0.999872 4.94094C0.99356 5.21701 0.764644 5.43569 0.488574 5.42938C0.212503 5.42307 -0.00617885 5.19415 0.00013328 4.91808C0.0402126 3.16516 0.197596 1.92854 1.06307 1.06307C1.92854 0.197596 3.16516 0.0402126 4.91808 0.00013328C5.19415 -0.00617885 5.42307 0.212503 5.42938 0.488574ZM8.23729 0.488574C8.2436 0.212503 8.47252 -0.00617885 8.74859 0.00013328C10.5015 0.0402126 11.7381 0.197596 12.6036 1.06307C13.4691 1.92854 13.6265 3.16516 13.6665 4.91808C13.6729 5.19415 13.4542 5.42307 13.1781 5.42938C12.902 5.43569 12.6731 5.21701 12.6668 4.94094C12.6259 3.15116 12.4449 2.31853 11.8965 1.77017C11.3481 1.22182 10.5155 1.04079 8.72573 0.999872C8.44966 0.99356 8.23098 0.764644 8.23729 0.488574ZM13.1781 8.23728C13.4542 8.24359 13.6729 8.47251 13.6665 8.74858C13.6265 10.5015 13.4691 11.7381 12.6036 12.6036C11.7381 13.4691 10.5015 13.6265 8.74859 13.6665C8.47252 13.6729 8.2436 13.4542 8.23729 13.1781C8.23098 12.902 8.44966 12.6731 8.72573 12.6668C10.5155 12.6259 11.3481 12.4449 11.8965 11.8965C12.4449 11.3481 12.6259 10.5155 12.6668 8.72572C12.6731 8.44965 12.902 8.23097 13.1781 8.23728ZM0.488574 8.23729C0.764644 8.23098 0.99356 8.44966 0.999872 8.72573C1.04079 10.5155 1.22182 11.3481 1.77017 11.8965C2.31853 12.4449 3.15116 12.6259 4.94094 12.6668C5.21701 12.6731 5.43569 12.902 5.42938 13.1781C5.42307 13.4542 5.19415 13.6729 4.91808 13.6665C3.16516 13.6265 1.92854 13.4691 1.06307 12.6036C0.197596 11.7381 0.0402126 10.5015 0.00013328 8.74859C-0.00617885 8.47252 0.212503 8.2436 0.488574 8.23729Z" fill="#F5A623"/>
<g opacity="0.4">
<path d="M3.49987 4.16667C3.49987 3.79848 3.79835 3.5 4.16654 3.5H4.17253C4.54072 3.5 4.8392 3.79848 4.8392 4.16667C4.8392 4.53486 4.54072 4.83333 4.17253 4.83333H4.16654C3.79835 4.83333 3.49987 4.53486 3.49987 4.16667Z" fill="#F5A623"/>
<path d="M8.83321 9.5C8.83321 9.13181 9.13168 8.83333 9.49988 8.83333H9.50586C9.87405 8.83333 10.1725 9.13181 10.1725 9.5C10.1725 9.86819 9.87405 10.1667 9.50586 10.1667H9.49988C9.13168 10.1667 8.83321 9.86819 8.83321 9.5Z" fill="#F5A623"/>
<path d="M9.85355 4.52022C10.0488 4.32496 10.0488 4.00838 9.85355 3.81311C9.65829 3.61785 9.34171 3.61785 9.14644 3.81311L3.81311 9.14645C3.61785 9.34171 3.61785 9.65829 3.81311 9.85355C4.00837 10.0488 4.32495 10.0488 4.52022 9.85355L9.85355 4.52022Z" fill="#F5A623"/>
</g>
</svg>
