<svg width="24" height="24" viewBox="0 0 24 24" fill="none" xmlns="http://www.w3.org/2000/svg">
<path opacity="0.4" fill-rule="evenodd" clip-rule="evenodd" d="M13.546 4.79823C13.1991 4.7516 12.7283 4.75 12 4.75L2 4.75C1.58579 4.75 1.25 4.41422 1.25 4C1.25 3.58579 1.58579 3.25 2 3.25L12.0494 3.25C12.7142 3.24996 13.2871 3.24993 13.7458 3.31161C14.2375 3.37771 14.7087 3.52677 15.091 3.90901C15.4732 4.29126 15.6223 4.76252 15.6884 5.25416C15.7091 5.40809 15.7228 5.57486 15.732 5.75365C19.6287 5.87613 22.75 9.07355 22.75 13V15.7632C22.75 15.7765 22.75 15.7898 22.75 15.8029C22.7501 15.9832 22.7502 16.1382 22.7327 16.2783C22.6053 17.3003 21.8003 18.1053 20.7783 18.2327C20.6382 18.2502 20.4832 18.2501 20.3029 18.25C20.2898 18.25 20.2765 18.25 20.2632 18.25H19.5C19.0858 18.25 18.75 17.9142 18.75 17.5C18.75 17.0858 19.0858 16.75 19.5 16.75H20.2632C20.5057 16.75 20.5582 16.7486 20.5928 16.7442C20.9334 16.7018 21.2018 16.4334 21.2442 16.0928C21.2486 16.0582 21.25 16.0057 21.25 15.7632V13C21.25 9.90813 18.8097 7.38623 15.75 7.25534L15.75 15.5C15.75 15.9142 15.4142 16.25 15 16.25C14.5858 16.25 14.25 15.9142 14.25 15.5L14.25 7C14.25 6.27169 14.2484 5.80091 14.2018 5.45403C14.158 5.12873 14.0874 5.02677 14.0303 4.96967C13.9732 4.91258 13.8713 4.84197 13.546 4.79823ZM2 12C2.41422 12 2.75 12.3358 2.75 12.75L2.75 15C2.75 15.4811 2.75072 15.7918 2.77206 16.0273C2.79247 16.2524 2.82689 16.3341 2.85048 16.375C2.91631 16.489 3.01099 16.5837 3.125 16.6495C3.16587 16.6731 3.2476 16.7075 3.47275 16.7279C3.7082 16.7493 4.01889 16.75 4.5 16.75C4.91422 16.75 5.25 17.0858 5.25 17.5C5.25 17.9142 4.91422 18.25 4.5 18.25H4.4678C4.028 18.25 3.64865 18.25 3.33735 18.2218C3.00817 18.192 2.68221 18.1259 2.375 17.9486C2.03296 17.7511 1.74892 17.467 1.55144 17.125C1.37407 16.8178 1.30802 16.4918 1.27818 16.1627C1.24997 15.8514 1.24998 15.472 1.25 15.0322L1.25 12.75C1.25 12.3358 1.58579 12 2 12ZM8.75 17.5C8.75 17.0858 9.08579 16.75 9.5 16.75L14.5 16.75C14.9142 16.75 15.25 17.0858 15.25 17.5C15.25 17.9142 14.9142 18.25 14.5 18.25L9.5 18.25C9.08579 18.25 8.75 17.9142 8.75 17.5Z" fill="#1F1F1F" fill-opacity="0.87"/>
<path d="M1.99994 6.24996C1.58572 6.24996 1.24994 6.58574 1.24994 6.99996C1.24994 7.41417 1.58573 7.74996 1.99994 7.74996L7.99994 7.74996C8.41415 7.74996 8.74994 7.41417 8.74994 6.99996C8.74994 6.58575 8.41415 6.24996 7.99994 6.24996L1.99994 6.24996Z" fill="#1F1F1F" fill-opacity="0.87"/>
<path d="M1.99994 9.24996C1.58573 9.24996 1.24994 9.58574 1.24994 9.99996C1.24994 10.4142 1.58572 10.75 1.99994 10.75L5.99994 10.75C6.41415 10.75 6.74994 10.4142 6.74994 9.99996C6.74994 9.58574 6.41415 9.24996 5.99994 9.24996L1.99994 9.24996Z" fill="#1F1F1F" fill-opacity="0.87"/>
<path fill-rule="evenodd" clip-rule="evenodd" d="M3.74994 17.5C3.74994 15.705 5.20501 14.25 6.99994 14.25C8.79487 14.25 10.2499 15.705 10.2499 17.5C10.2499 19.2949 8.79487 20.75 6.99994 20.75C5.20501 20.75 3.74994 19.2949 3.74994 17.5ZM6.99994 15.75C6.03344 15.75 5.24994 16.5335 5.24994 17.5C5.24994 18.4665 6.03344 19.25 6.99994 19.25C7.96644 19.25 8.74994 18.4665 8.74994 17.5C8.74994 16.5335 7.96644 15.75 6.99994 15.75Z" fill="#1F1F1F" fill-opacity="0.87"/>
<path fill-rule="evenodd" clip-rule="evenodd" d="M13.7499 17.5C13.7499 15.705 15.205 14.25 16.9999 14.25C18.7949 14.25 20.2499 15.705 20.2499 17.5C20.2499 19.2949 18.7949 20.75 16.9999 20.75C15.205 20.75 13.7499 19.2949 13.7499 17.5ZM16.9999 15.75C16.0334 15.75 15.2499 16.5335 15.2499 17.5C15.2499 18.4665 16.0334 19.25 16.9999 19.25C17.9664 19.25 18.7499 18.4665 18.7499 17.5C18.7499 16.5335 17.9664 15.75 16.9999 15.75Z" fill="#1F1F1F" fill-opacity="0.87"/>
</svg>
