<svg width="70" height="34" viewBox="0 0 70 34" fill="none" xmlns="http://www.w3.org/2000/svg">
<path d="M0 6C0 2.68629 2.68629 0 6 0H64C67.3137 0 70 2.68629 70 6V20C70 23.3137 67.3137 26 64 26H0V6Z" fill="#FEF3E1"/>
<path d="M6 0.25H64C67.1756 0.25 69.75 2.82436 69.75 6V20C69.75 23.1756 67.1756 25.75 64 25.75H0.25V6C0.25 2.82436 2.82436 0.25 6 0.25Z" stroke="#1F1F1F" stroke-opacity="0.12" stroke-width="0.5"/>
<path d="M37.615 17C37.535 17 37.467 16.972 37.411 16.916C37.355 16.86 37.327 16.792 37.327 16.712V15.176H33.523C33.435 15.176 33.363 15.148 33.307 15.092C33.259 15.036 33.235 14.968 33.235 14.888V14.072C33.235 14.024 33.243 13.968 33.259 13.904C33.283 13.832 33.319 13.768 33.367 13.712L36.907 8.804C37.011 8.668 37.159 8.6 37.351 8.6H38.659C38.739 8.6 38.807 8.628 38.863 8.684C38.919 8.74 38.947 8.808 38.947 8.888V13.76H40.015C40.111 13.76 40.183 13.788 40.231 13.844C40.287 13.892 40.315 13.96 40.315 14.048V14.888C40.315 14.968 40.287 15.036 40.231 15.092C40.175 15.148 40.107 15.176 40.027 15.176H38.947V16.712C38.947 16.792 38.919 16.86 38.863 16.916C38.807 16.972 38.739 17 38.659 17H37.615ZM34.903 13.808H37.363V10.34L34.903 13.808ZM44.6391 17.12C44.0711 17.12 43.5871 17.036 43.1871 16.868C42.7871 16.7 42.4591 16.468 42.2031 16.172C41.9471 15.876 41.7551 15.536 41.6271 15.152C41.4991 14.76 41.4231 14.344 41.3991 13.904C41.3911 13.688 41.3831 13.452 41.3751 13.196C41.3751 12.932 41.3751 12.668 41.3751 12.404C41.3831 12.14 41.3911 11.896 41.3991 11.672C41.4151 11.232 41.4911 10.82 41.6271 10.436C41.7631 10.044 41.9591 9.704 42.2151 9.416C42.4791 9.128 42.8111 8.9 43.2111 8.732C43.6111 8.564 44.0871 8.48 44.6391 8.48C45.1991 8.48 45.6791 8.564 46.0791 8.732C46.4791 8.9 46.8071 9.128 47.0631 9.416C47.3271 9.704 47.5231 10.044 47.6511 10.436C47.7871 10.82 47.8631 11.232 47.8791 11.672C47.8951 11.896 47.9031 12.14 47.9031 12.404C47.9031 12.668 47.9031 12.932 47.9031 13.196C47.9031 13.452 47.8951 13.688 47.8791 13.904C47.8631 14.344 47.7911 14.76 47.6631 15.152C47.5351 15.536 47.3431 15.876 47.0871 16.172C46.8311 16.468 46.4991 16.7 46.0911 16.868C45.6911 17.036 45.2071 17.12 44.6391 17.12ZM44.6391 15.74C45.1591 15.74 45.5391 15.572 45.7791 15.236C46.0271 14.892 46.1551 14.428 46.1631 13.844C46.1791 13.612 46.1871 13.38 46.1871 13.148C46.1871 12.908 46.1871 12.668 46.1871 12.428C46.1871 12.188 46.1791 11.96 46.1631 11.744C46.1551 11.176 46.0271 10.72 45.7791 10.376C45.5391 10.024 45.1591 9.848 44.6391 9.848C44.1271 9.848 43.7471 10.024 43.4991 10.376C43.2591 10.72 43.1311 11.176 43.1151 11.744C43.1151 11.96 43.1111 12.188 43.1031 12.428C43.1031 12.668 43.1031 12.908 43.1031 13.148C43.1111 13.38 43.1151 13.612 43.1151 13.844C43.1311 14.428 43.2631 14.892 43.5111 15.236C43.7591 15.572 44.1351 15.74 44.6391 15.74ZM49.9098 17C49.7418 17 49.6578 16.92 49.6578 16.76C49.6578 16.712 49.6738 16.668 49.7058 16.628L55.6218 8.828C55.6778 8.756 55.7338 8.7 55.7898 8.66C55.8458 8.62 55.9258 8.6 56.0298 8.6H56.6658C56.8338 8.6 56.9178 8.68 56.9178 8.84C56.9178 8.888 56.9018 8.932 56.8698 8.972L50.9538 16.772C50.8978 16.844 50.8418 16.9 50.7858 16.94C50.7378 16.98 50.6578 17 50.5458 17H49.9098ZM55.6818 17.072C55.1458 17.072 54.7218 16.924 54.4098 16.628C54.0978 16.332 53.9258 15.944 53.8938 15.464C53.8858 15.256 53.8818 15.076 53.8818 14.924C53.8818 14.772 53.8858 14.584 53.8938 14.36C53.9258 13.88 54.0898 13.492 54.3858 13.196C54.6898 12.9 55.1218 12.752 55.6818 12.752C56.2498 12.752 56.6818 12.9 56.9778 13.196C57.2818 13.492 57.4458 13.88 57.4698 14.36C57.4858 14.584 57.4938 14.772 57.4938 14.924C57.4938 15.076 57.4858 15.256 57.4698 15.464C57.4458 15.944 57.2738 16.332 56.9538 16.628C56.6418 16.924 56.2178 17.072 55.6818 17.072ZM55.6818 16.136C55.8578 16.136 55.9938 16.1 56.0898 16.028C56.1938 15.956 56.2698 15.864 56.3178 15.752C56.3658 15.64 56.3898 15.528 56.3898 15.416C56.4058 15.216 56.4138 15.048 56.4138 14.912C56.4138 14.768 56.4058 14.604 56.3898 14.42C56.3818 14.236 56.3258 14.068 56.2218 13.916C56.1178 13.756 55.9378 13.676 55.6818 13.676C55.4338 13.676 55.2578 13.756 55.1538 13.916C55.0498 14.068 54.9898 14.236 54.9738 14.42C54.9658 14.604 54.9618 14.768 54.9618 14.912C54.9618 15.048 54.9658 15.216 54.9738 15.416C54.9898 15.528 55.0178 15.64 55.0578 15.752C55.1058 15.864 55.1778 15.956 55.2738 16.028C55.3778 16.1 55.5138 16.136 55.6818 16.136ZM50.8938 12.824C50.3578 12.824 49.9338 12.684 49.6218 12.404C49.3098 12.124 49.1378 11.744 49.1058 11.264C49.0978 11.056 49.0938 10.876 49.0938 10.724C49.0938 10.564 49.0978 10.372 49.1058 10.148C49.1378 9.668 49.3018 9.28 49.5978 8.984C49.9018 8.688 50.3338 8.54 50.8938 8.54C51.4618 8.54 51.8938 8.688 52.1898 8.984C52.4938 9.28 52.6578 9.668 52.6818 10.148C52.6978 10.372 52.7058 10.564 52.7058 10.724C52.7058 10.876 52.6978 11.056 52.6818 11.264C52.6578 11.744 52.4858 12.124 52.1658 12.404C51.8538 12.684 51.4298 12.824 50.8938 12.824ZM50.8938 11.936C51.0698 11.936 51.2058 11.9 51.3018 11.828C51.4058 11.756 51.4818 11.664 51.5298 11.552C51.5778 11.44 51.6018 11.324 51.6018 11.204C51.6178 11.004 51.6258 10.836 51.6258 10.7C51.6258 10.556 51.6178 10.392 51.6018 10.208C51.5938 10.024 51.5378 9.856 51.4338 9.704C51.3298 9.552 51.1498 9.476 50.8938 9.476C50.6458 9.476 50.4698 9.552 50.3658 9.704C50.2618 9.856 50.2058 10.024 50.1978 10.208C50.1898 10.392 50.1858 10.556 50.1858 10.7C50.1858 10.836 50.1898 11.004 50.1978 11.204C50.2058 11.324 50.2298 11.44 50.2698 11.552C50.3178 11.664 50.3898 11.756 50.4858 11.828C50.5898 11.9 50.7258 11.936 50.8938 11.936Z" fill="#FEF3E1"/>
<path d="M8 34L0 26H8V34Z" fill="#FFCE7E"/>
</svg>
