<svg width="22" height="22" viewBox="0 0 22 22" fill="none" xmlns="http://www.w3.org/2000/svg">
    <path
        d="M11 0.6875C6.49685 0.6875 2.68123 3.575 1.27185 7.5625H20.7281C19.3187 3.575 15.5031 0.6875 11 0.6875Z"
        fill="#CE1126" />
    <path
        d="M11 21.3125C15.5031 21.3125 19.3187 18.4594 20.7281 14.4375H1.27185C2.68123 18.4594 6.49685 21.3125 11 21.3125Z"
        fill="black" />
    <path
        d="M1.27188 7.5625C0.89375 8.62812 0.6875 9.79688 0.6875 11C0.6875 12.2031 0.89375 13.3719 1.27188 14.4375H20.7281C21.1062 13.3719 21.3125 12.2031 21.3125 11C21.3125 9.79688 21.1062 8.62812 20.7281 7.5625H1.27188Z"
        fill="#F9F9F9" />
    <path
        d="M10.5187 8.62814C10.6219 8.55939 10.6906 8.62814 10.7594 8.69689C10.7937 8.76564 10.7937 8.97189 10.725 9.21251C10.6906 9.35001 10.5875 9.48751 10.5187 9.59064C10.6562 9.59064 10.8281 9.55626 11 9.48751C11.1719 9.55626 11.3094 9.59064 11.4812 9.59064C11.4125 9.45314 11.3437 9.17814 11.3781 8.97189C11.3781 8.66251 11.3437 8.55939 11.275 8.49064C11.2062 8.42189 11.0344 8.38751 10.9312 8.38751C10.8625 8.38751 10.8625 8.42189 10.8625 8.42189C10.725 8.38751 10.6219 8.38751 10.5531 8.42189C10.4844 8.49064 10.4844 8.66251 10.5187 8.62814Z"
        fill="white" />
    <path
        d="M12.8218 9.65938C12.7531 9.28126 12.375 9.38438 12.0656 9.55626C11.9281 9.62501 11.7906 9.69376 11.6531 9.69376H11.55C11.3781 9.69376 11.1718 9.65938 11 9.59063C10.8281 9.65938 10.6218 9.69376 10.45 9.69376H10.3812C10.2094 9.69376 10.0719 9.62501 9.93435 9.52188C9.65935 9.38438 9.28123 9.28126 9.1781 9.62501C9.24685 9.59063 9.3156 9.52188 9.34998 9.52188L9.21248 12.8219L9.28123 12.7531L9.41873 9.55626C9.4531 9.59063 9.5906 9.72813 9.62498 9.72813L9.52185 12.5125L9.62498 12.4094L9.7281 9.76251C9.76247 9.79688 9.8656 9.86563 9.89997 9.90001L9.79685 12.2031L10.0718 11.9625L10.3469 11.0344C10.1062 10.5188 10.1406 10.0719 10.1406 10.0719H10.2094C10.3812 10.0719 10.7593 9.96876 10.9312 9.86563C10.9656 9.86563 10.9656 9.83126 11 9.83126C11 9.86563 11.0344 9.86563 11.0687 9.90001C11.2406 10.0031 11.6187 10.1063 11.7906 10.1063H11.8593C11.8593 10.1063 11.8937 10.5531 11.6531 11.0688L11.8937 11.9625L12.1687 12.2031L12.0656 9.93438C12.1 9.90001 12.1687 9.83126 12.2375 9.79688L12.3406 12.375L12.4437 12.4781L12.3406 9.72813C12.375 9.69376 12.5125 9.59063 12.5468 9.55626L12.6844 12.7188L12.7531 12.7875L12.6156 9.52188C12.65 9.55626 12.7531 9.62501 12.8218 9.65938Z"
        fill="white" />
    <path
        d="M10.6906 10.2094V11.55C10.6906 11.55 10.6906 11.5844 10.725 11.5844C10.7594 11.6531 10.8281 11.6875 10.8625 11.7562L10.9656 11.8594L11.0687 11.7562L11.2406 11.5844V10.2781C11.1375 10.2437 11.0344 10.2094 10.9656 10.1406C10.9312 10.1062 10.8281 10.1406 10.6906 10.2094Z"
        fill="white" />
    <path
        d="M12.4781 13.0281C12.4781 12.8563 12.3063 12.8563 12.1688 12.8906C12.1344 12.8906 12.1344 12.8906 12.1 12.925L11.8937 12.1688L13.0281 13.2688L12.8906 9.69376C12.8563 9.14376 12.4094 9.28126 12.1 9.48751C11.9281 9.59064 11.7906 9.65939 11.6187 9.65939C11.3781 9.24689 11.5156 8.69689 11.3438 8.55939C11.275 8.49064 11.0344 8.38751 10.8625 8.38751C10.7594 8.38751 10.7938 8.45626 10.7938 8.45626C10.6219 8.42189 10.4844 8.42189 10.4156 8.49064C10.3469 8.52501 10.4156 8.86876 10.45 8.80001C10.5531 8.69689 10.5875 8.73126 10.6563 8.83439C10.725 8.93751 10.5875 9.35001 10.4156 9.65939C10.2094 9.65939 10.0375 9.59064 9.86563 9.48751C9.52188 9.28126 9.075 9.17814 9.075 9.69376L8.9375 13.2344L10.0719 12.1688L9.86563 12.8906C9.83125 12.8906 9.83125 12.8906 9.79688 12.8563C9.65938 12.8219 9.4875 12.8219 9.4875 12.9938C9.28125 12.9594 9.2125 13.2688 9.41875 13.3375C9.41875 13.4406 9.41875 13.5094 9.55625 13.5094C9.86562 13.6125 10.4156 13.6469 10.9656 13.6469C11.5156 13.6469 12.0656 13.6125 12.375 13.5094C12.5125 13.475 12.5125 13.4063 12.5125 13.3375C12.7875 13.2688 12.6844 12.9594 12.4781 13.0281ZM10.725 11.55C10.725 11.5156 10.725 11.5156 10.725 11.55L10.6906 11.5156V10.2094C10.8281 10.175 10.9313 10.1406 11 10.0719C11.0688 10.1406 11.1719 10.175 11.275 10.2094V11.5156C11.2062 11.5844 11.1719 11.6531 11.1031 11.6875L11 11.7906L10.8969 11.6875C10.8281 11.6531 10.7938 11.5844 10.725 11.55ZM10.725 9.24689C10.7938 9.00626 10.7937 8.80001 10.7594 8.73126C10.6906 8.66251 10.6219 8.59376 10.5188 8.66251C10.4844 8.69689 10.4844 8.52501 10.5531 8.49064C10.6219 8.45626 10.725 8.45626 10.8625 8.49064C10.8625 8.49064 10.8625 8.42189 10.9312 8.45626C11.0344 8.45626 11.2406 8.52501 11.275 8.55939C11.3094 8.59376 11.3781 8.73126 11.3781 9.04064C11.3781 9.24689 11.4125 9.52189 11.4813 9.65939C11.3438 9.65939 11.1719 9.62501 11 9.55626C10.8281 9.62501 10.6906 9.65939 10.5188 9.65939C10.5875 9.52189 10.6906 9.38439 10.725 9.24689ZM9.83125 12.3063L9.93437 10.0031C9.9 9.96876 9.83125 9.90001 9.7625 9.86564L9.625 12.4781L9.52188 12.5813L9.625 9.79689C9.59063 9.76251 9.45312 9.65939 9.41875 9.62501L9.28125 12.8219L9.2125 12.8906L9.35 9.59064C9.31563 9.59064 9.2125 9.62501 9.17813 9.69376C9.28125 9.35001 9.65937 9.45314 9.93437 9.62501C10.0719 9.72814 10.2438 9.76251 10.3813 9.79689H10.45C10.6219 9.79689 10.7938 9.76251 11 9.69376C11.2063 9.76251 11.3781 9.79689 11.55 9.79689H11.6531C11.7906 9.76251 11.9281 9.72814 12.0656 9.65939C12.375 9.48751 12.7531 9.38439 12.8219 9.76251C12.7531 9.72814 12.65 9.65939 12.6156 9.65939L12.7531 12.925L12.6844 12.8563L12.5469 9.62501C12.5125 9.65939 12.375 9.79689 12.3406 9.79689L12.4438 12.5469L12.3406 12.4438L12.2375 9.86564C12.2031 9.90001 12.1 9.96876 12.0656 10.0031L12.1688 12.2719L11.8937 12.0313L11.6531 11.1375C11.8938 10.6219 11.8594 10.175 11.8594 10.175H11.7906C11.6187 10.175 11.2406 10.1063 11.0688 9.96876C11.0344 9.96876 11.0344 9.93439 11 9.90001C11 9.90001 10.9656 9.93439 10.9312 9.93439C10.7594 10.0375 10.3813 10.1406 10.2094 10.1406H10.1406C10.1406 10.1406 10.1063 10.5875 10.3469 11.1031L10.0719 12.0313L9.83125 12.3063ZM11 12.9938H10.6219L10.8625 11.825C10.8969 11.8594 10.9313 11.8938 11 11.9281C11.0344 11.8938 11.1031 11.8594 11.1375 11.825L11.4125 12.9938H11Z"
        fill="#C09300" />
</svg>
