<svg width="24" height="24" viewBox="0 0 24 24" fill="none" xmlns="http://www.w3.org/2000/svg">
<g opacity="0.4">
<path d="M15 6C14.4477 6 14 6.44772 14 7C14 7.55228 14.4477 8 15 8L21 8C21.5523 8 22 7.55229 22 7C22 6.44772 21.5523 6 21 6H15Z" fill="#520826"/>
<path d="M3 16C2.44772 16 2 16.4477 2 17C2 17.5523 2.44772 18 3 18H9C9.55228 18 10 17.5523 10 17C10 16.4477 9.55228 16 9 16H3Z" fill="#520826"/>
</g>
<path d="M8.97475 3.25H9.02525C9.46971 3.24999 9.84076 3.24999 10.1454 3.27077C10.4625 3.29241 10.762 3.33905 11.0524 3.45933C11.7262 3.73844 12.2616 4.27379 12.5407 4.94762C12.661 5.23801 12.7076 5.53754 12.7292 5.85464C12.75 6.15924 12.75 6.53026 12.75 6.9747V7.02526C12.75 7.4697 12.75 7.84076 12.7292 8.14537C12.7076 8.46247 12.661 8.76199 12.5407 9.05238C12.2616 9.72621 11.7262 10.2616 11.0524 10.5407C10.762 10.661 10.4625 10.7076 10.1454 10.7292C9.84075 10.75 9.46972 10.75 9.02526 10.75H8.97474C8.53028 10.75 8.15925 10.75 7.85464 10.7292C7.53754 10.7076 7.23801 10.661 6.94762 10.5407C6.27379 10.2616 5.73844 9.72621 5.45933 9.05238C5.33905 8.76199 5.29241 8.46247 5.27077 8.14537C5.26757 8.09849 5.26487 8.05005 5.26258 8H3C2.44772 8 2 7.55229 2 7C2 6.44772 2.44772 6 3 6H5.26258C5.26487 5.94996 5.26757 5.90151 5.27077 5.85464C5.29241 5.53754 5.33905 5.23801 5.45933 4.94762C5.73844 4.27379 6.27379 3.73844 6.94762 3.45933C7.23801 3.33905 7.53754 3.29241 7.85464 3.27077C8.15925 3.24999 8.53029 3.24999 8.97475 3.25Z" fill="#520826"/>
<path d="M18.7374 18C18.7351 18.05 18.7324 18.0985 18.7292 18.1454C18.7076 18.4625 18.661 18.762 18.5407 19.0524C18.2616 19.7262 17.7262 20.2616 17.0524 20.5407C16.762 20.661 16.4625 20.7076 16.1454 20.7292C15.8408 20.75 15.4698 20.75 15.0253 20.75H14.9747C14.5303 20.75 14.1592 20.75 13.8546 20.7292C13.5375 20.7076 13.238 20.661 12.9476 20.5407C12.2738 20.2616 11.7384 19.7262 11.4593 19.0524C11.339 18.762 11.2924 18.4625 11.2708 18.1454C11.25 17.8408 11.25 17.4698 11.25 17.0253V16.9747C11.25 16.5303 11.25 16.1592 11.2708 15.8546C11.2924 15.5375 11.339 15.238 11.4593 14.9476C11.7384 14.2738 12.2738 13.7384 12.9476 13.4593C13.238 13.339 13.5375 13.2924 13.8546 13.2708C14.1592 13.25 14.5302 13.25 14.9747 13.25H15.0253C15.4697 13.25 15.8408 13.25 16.1454 13.2708C16.4625 13.2924 16.762 13.339 17.0524 13.4593C17.7262 13.7384 18.2616 14.2738 18.5407 14.9476C18.661 15.238 18.7076 15.5375 18.7292 15.8546C18.7324 15.9015 18.7351 15.95 18.7374 16H21C21.5523 16 22 16.4477 22 17C22 17.5523 21.5523 18 21 18H18.7374Z" fill="#520826"/>
</svg>
