<svg width="18" height="15" viewBox="0 0 18 15" fill="none" xmlns="http://www.w3.org/2000/svg">
    <path fill-rule="evenodd" clip-rule="evenodd"
        d="M8.95837 5.41666C5.65693 5.41666 2.79668 7.6629 1.65916 10.8929C1.43026 11.5428 1.29599 11.9348 1.25923 12.2491C1.22936 12.5044 1.26762 12.6771 1.42258 12.8922C1.55663 13.0782 1.72599 13.1892 2.08865 13.2561C2.49429 13.3309 3.04456 13.3333 3.89268 13.3333H14.0241C14.8722 13.3333 15.4225 13.3309 15.8281 13.2561C16.1908 13.1892 16.3601 13.0782 16.4942 12.8922C16.6491 12.6771 16.6874 12.5044 16.6575 12.2491C16.6208 11.9348 16.4865 11.5428 16.2576 10.8929C15.1201 7.6629 12.2598 5.41666 8.95837 5.41666ZM0.480141 10.4777C1.76998 6.81516 5.0583 4.16666 8.95837 4.16666C12.8584 4.16666 16.1468 6.81516 17.4366 10.4777C17.4432 10.4963 17.4497 10.5148 17.4562 10.5333C17.6591 11.1091 17.8441 11.6341 17.8991 12.1038C17.9626 12.6475 17.8583 13.1371 17.5084 13.6228C17.1375 14.1376 16.6424 14.377 16.0547 14.4854C15.5228 14.5834 14.8562 14.5834 14.0801 14.5833H3.83665C3.06054 14.5834 2.39394 14.5834 1.86201 14.4854C1.27434 14.377 0.779209 14.1376 0.408368 13.6228C0.0584394 13.1371 -0.0458974 12.6475 0.017696 12.1038C0.0726404 11.6341 0.257644 11.1091 0.460538 10.5333C0.467055 10.5148 0.473591 10.4963 0.480141 10.4777Z"
        fill="#1F1F1F" fill-opacity="0.66" />
    <g opacity="0.4">
        <path
            d="M11.4144 0.822651C9.98604 -0.274217 7.93071 -0.274217 6.50232 0.822651C6.09068 1.13875 5.57968 1.33321 5.04374 1.37175L4.87369 1.38398C3.11014 1.51079 1.6618 2.84558 1.50885 4.57265C1.46757 5.03875 1.26599 5.48758 0.929161 5.84373C-0.22086 7.05974 -0.305198 8.86674 0.686708 10.1702C0.895744 10.4448 1.28788 10.4981 1.56256 10.289C1.83725 10.08 1.89047 9.68786 1.68143 9.41317C1.0599 8.59645 1.10835 7.47345 1.83734 6.70263C2.36329 6.14651 2.68733 5.43551 2.75398 4.68291C2.84864 3.61397 3.76328 2.71705 4.96335 2.63076L5.1334 2.61853C5.90927 2.56274 6.65468 2.28168 7.26363 1.81407C8.24304 1.06198 9.67371 1.06198 10.6531 1.81407C11.2621 2.28168 12.0075 2.56274 12.7834 2.61853L12.9534 2.63076C14.1535 2.71705 15.0681 3.61397 15.1628 4.68291C15.2294 5.43551 15.5535 6.14651 16.0794 6.70263C16.8084 7.47345 16.8568 8.59645 16.2353 9.41317C16.0263 9.68786 16.0795 10.08 16.3542 10.289C16.6289 10.4981 17.021 10.4448 17.23 10.1702C18.2219 8.86674 18.1376 7.05974 16.9876 5.84373C16.6508 5.48758 16.4492 5.03875 16.4079 4.57265C16.2549 2.84558 14.8066 1.51079 13.0431 1.38398L12.873 1.37175C12.3371 1.33321 11.8261 1.13875 11.4144 0.822651Z"
            fill="#1F1F1F" fill-opacity="0.66" />
        <path
            d="M12.2982 9.79167C12.7585 9.79167 13.1315 9.41857 13.1315 8.95833C13.1315 8.4981 12.7585 8.125 12.2982 8.125H12.2907C11.8305 8.125 11.4574 8.4981 11.4574 8.95833C11.4574 9.41857 11.8305 9.79167 12.2907 9.79167H12.2982Z"
            fill="#1F1F1F" fill-opacity="0.66" />
        <path
            d="M10.6315 10.625C10.6315 11.0852 10.2585 11.4583 9.79822 11.4583H9.79073C9.33049 11.4583 8.9574 11.0852 8.9574 10.625C8.9574 10.1648 9.33049 9.79167 9.79073 9.79167H9.79822C10.2585 9.79167 10.6315 10.1648 10.6315 10.625Z"
            fill="#1F1F1F" fill-opacity="0.66" />
        <path
            d="M13.9649 12.2917C14.4251 12.2917 14.7982 11.9186 14.7982 11.4583C14.7982 10.9981 14.4251 10.625 13.9649 10.625H13.9574C13.4972 10.625 13.1241 10.9981 13.1241 11.4583C13.1241 11.9186 13.4972 12.2917 13.9574 12.2917H13.9649Z"
            fill="#1F1F1F" fill-opacity="0.66" />
    </g>
</svg>
