<svg width="17" height="18" viewBox="0 0 17 18" fill="none" xmlns="http://www.w3.org/2000/svg">
<path fill-rule="evenodd" clip-rule="evenodd" d="M3.59071 3.95818C3.82091 4.21539 3.79902 4.61051 3.54182 4.84072C2.12161 6.11183 1.25 7.77132 1.25 9.79163C1.25 13.5886 4.32804 16.6666 8.125 16.6666C11.922 16.6666 15 13.5886 15 9.79163C15 7.77132 14.1284 6.11183 12.7082 4.84072C12.451 4.61051 12.4291 4.21539 12.6593 3.95818C12.8895 3.70098 13.2846 3.67909 13.5418 3.9093C15.1904 5.38478 16.25 7.36943 16.25 9.79163C16.25 14.2789 12.6123 17.9166 8.125 17.9166C3.63769 17.9166 0 14.2789 0 9.79163C0 7.36943 1.05964 5.38478 2.70818 3.9093C2.96538 3.67909 3.36051 3.70098 3.59071 3.95818Z" fill="#E54F40"/>
<path opacity="0.4" fill-rule="evenodd" clip-rule="evenodd" d="M7.58981 0.146178C7.72435 0.0741833 7.90972 0 8.12496 0C8.3402 0 8.52557 0.0741833 8.66011 0.146178C8.7996 0.220827 8.92926 0.317468 9.0443 0.415447C9.27386 0.610965 9.50351 0.862459 9.70868 1.10459C9.90012 1.33052 10.0859 1.56723 10.2443 1.76901C10.2576 1.78592 10.2707 1.80258 10.2835 1.81897C10.4612 2.04516 10.5826 2.19667 10.6565 2.27272C10.8971 2.52024 10.8914 2.91592 10.6439 3.15651C10.3964 3.39709 10.0007 3.39147 9.76012 3.14395C9.62923 3.00929 9.46071 2.79503 9.30052 2.59109C9.28816 2.57536 9.27574 2.55954 9.26325 2.54363C9.10249 2.33885 8.93058 2.11988 8.75501 1.91268C8.75333 1.91069 8.75164 1.90871 8.74996 1.90673V8.125C8.74996 8.47018 8.47014 8.75 8.12496 8.75C7.77978 8.75 7.49996 8.47018 7.49996 8.125V1.90673C7.49828 1.90871 7.49659 1.91069 7.49491 1.91268C7.31934 2.11988 7.14743 2.33886 6.98667 2.54363C6.97418 2.55954 6.96176 2.57536 6.9494 2.59109C6.78921 2.79503 6.62069 3.00929 6.4898 3.14395C6.24922 3.39147 5.85353 3.39709 5.60601 3.15651C5.35849 2.91592 5.35287 2.52024 5.59345 2.27271C5.66737 2.19667 5.78872 2.04516 5.96638 1.81897C5.97925 1.80258 5.99232 1.78593 6.00559 1.76903C6.16398 1.56724 6.34979 1.33052 6.54124 1.10459C6.74641 0.862459 6.97605 0.610965 7.20562 0.415447C7.32066 0.317468 7.45032 0.220827 7.58981 0.146178Z" fill="#E54F40"/>
</svg>
