<svg width="24" height="24" viewBox="0 0 24 24" fill="none" xmlns="http://www.w3.org/2000/svg">
<path d="M16.7495 8C16.7495 8.414 17.0855 8.75 17.4995 8.75C17.9135 8.75 18.2495 8.414 18.2495 8V5.1805C18.25 5.16553 18.25 5.15063 18.2495 5.13581V4C18.2495 3.311 18.8105 2.75 19.4995 2.75C19.9135 2.75 20.2495 2.414 20.2495 2C20.2495 1.586 19.9135 1.25 19.4995 1.25C17.9835 1.25 16.7495 2.484 16.7495 4V4.31783C15.8742 4.25001 14.8026 4.25 13.3745 4.25H10.6245C7.58569 4.25 6.05949 4.25 4.78652 4.92998C3.78052 5.47198 2.96454 6.28699 2.42754 7.28799C1.74954 8.56299 1.74951 10.089 1.74951 13.13C1.74951 15 1.74953 15.938 2.19053 16.76C2.53953 17.422 3.07355 17.958 3.73555 18.313C4.56255 18.75 5.50251 18.75 7.37451 18.75H16.6245L16.6255 18.747C18.4972 18.747 19.4376 18.747 20.2686 18.308C20.9276 17.955 21.4605 17.419 21.8075 16.761C22.2505 15.9351 22.2505 14.9972 22.2505 13.1275C22.2505 10.0869 22.2505 8.55992 21.5695 7.279C21.3595 6.891 21.1175 6.54202 20.8525 6.24102C20.5785 5.93102 20.1046 5.901 19.7936 6.175C19.4826 6.449 19.4525 6.92298 19.7265 7.23398C19.9175 7.45098 20.0936 7.70704 20.2476 7.99004C20.7495 8.93495 20.7495 10.3358 20.7495 13.1272C20.7495 14.7461 20.7495 15.56 20.4825 16.058C20.2725 16.455 19.9535 16.776 19.5635 16.985C19.0645 17.248 18.2495 17.248 16.6245 17.248H7.37451C5.74951 17.248 4.93455 17.248 4.43955 16.987C4.04555 16.776 3.72655 16.455 3.51455 16.054C3.24955 15.56 3.24951 14.748 3.24951 13.129C3.24951 10.3383 3.24951 8.936 3.75049 7.99404C4.14649 7.25504 4.75051 6.65198 5.49551 6.25098C6.43542 5.74902 7.83525 5.74902 10.6237 5.74902H13.3745C14.8413 5.74902 15.9172 5.74902 16.7495 5.822V8Z" fill="#520826"/>
<g opacity="0.4">
<path d="M13.2495 18.0392V22.0004C13.2495 22.4144 12.9135 22.7504 12.4995 22.7504C12.0855 22.7504 11.7495 22.4144 11.7495 22.0004V18.0004C11.7495 17.987 11.7499 17.9738 11.7505 17.9606V10.9969C11.7505 10.1133 11.7505 9.66898 11.6976 9.33841C11.4096 7.51741 9.9956 6.09845 8.1776 5.80345C8.1036 5.79445 8.02654 5.7854 7.94254 5.7764C7.53054 5.7324 7.23252 5.36243 7.27652 4.95043C7.32052 4.53843 7.6896 4.24141 8.1026 4.28441C8.17266 4.29163 8.23802 4.29941 8.30133 4.30693C8.32567 4.30983 8.34971 4.31269 8.3736 4.31547L8.40055 4.31947C10.8675 4.71147 12.7886 6.63348 13.1796 9.10248C13.2505 9.55045 13.2505 10.0344 13.2505 10.9993V17.9994C13.2505 18.0128 13.2502 18.026 13.2495 18.0392Z" fill="#520826"/>
<path d="M8.49951 9.75037H6.49951C6.08551 9.75037 5.74951 9.41437 5.74951 9.00037C5.74951 8.58637 6.08551 8.25037 6.49951 8.25037H8.49951C8.91351 8.25037 9.24951 8.58637 9.24951 9.00037C9.24951 9.41437 8.91351 9.75037 8.49951 9.75037Z" fill="#520826"/>
</g>
</svg>
