<svg width="24" height="24" viewBox="0 0 24 24" fill="none" xmlns="http://www.w3.org/2000/svg">
<path d="M6.33546 11.3293C5.96498 11.1441 5.51447 11.2942 5.32923 11.6647C5.14399 12.0352 5.29415 12.4857 5.66464 12.6709L7.66464 13.6709C8.03512 13.8562 8.48563 13.706 8.67087 13.3355C8.85611 12.965 8.70594 12.5145 8.33546 12.3293L6.33546 11.3293Z" fill="#1F1F1F" fill-opacity="0.87"/>
<path fill-rule="evenodd" clip-rule="evenodd" d="M2.24989 6.49995C2.24989 6.60244 2.26022 6.69948 2.27926 6.79141C2.26013 6.85762 2.24988 6.92759 2.24988 6.99995L2.24989 17.1612C2.24989 18.2817 3.06723 19.0268 4.07321 19.6304C5.0916 20.2415 6.58974 20.8744 8.48284 21.6741L8.69401 21.7633C10.1131 22.3632 11.0278 22.75 11.9999 22.75C12.1988 22.75 12.3896 22.6709 12.5302 22.5303C12.6709 22.3896 12.7499 22.1989 12.7499 22L12.7499 11.6782C13.635 11.512 14.5548 11.0666 15.8347 10.4468L18.976 8.92671C19.4529 8.69597 19.8844 8.4872 20.2499 8.28887L20.2499 12C20.2499 12.4142 20.5857 12.75 20.9999 12.75C21.4141 12.75 21.7499 12.4142 21.7499 12L21.7499 6.99995C21.7499 6.92759 21.7396 6.85762 21.7205 6.79141C21.7396 6.69948 21.7499 6.60244 21.7499 6.49995C21.7499 5.7979 21.265 5.35166 20.8185 5.05009C20.3726 4.74891 19.7314 4.43865 18.976 4.07321L15.8347 2.55309C14.1929 1.75806 13.1436 1.24995 11.9999 1.24995C10.8561 1.24995 9.80688 1.75806 8.16511 2.5531L5.02377 4.07319C4.26843 4.43865 3.62716 4.74891 3.18126 5.05009C2.73481 5.35166 2.24989 5.7979 2.24989 6.49995ZM5.02378 8.92672C4.54685 8.69597 4.11539 8.48722 3.74989 8.28887L3.74989 17.1612C3.74989 17.4233 3.90536 17.7804 4.84502 18.3442C5.76116 18.894 7.15984 19.4868 9.12866 20.3185C10.1479 20.7491 10.771 21.0064 11.2499 21.1381L11.2499 11.6782C10.3647 11.512 9.44495 11.0666 8.16511 10.4468L5.02378 8.92672ZM11.9999 2.74995C11.2423 2.74995 10.5203 3.07985 8.65248 3.98368L5.73128 5.39722C4.90698 5.79609 4.36592 6.06003 4.02086 6.2931C3.87247 6.39334 3.80078 6.46125 3.7676 6.49995C3.80078 6.53865 3.87247 6.60657 4.02086 6.7068C4.36592 6.93987 4.90698 7.20381 5.73128 7.60268L8.65248 9.01622C10.5203 9.92005 11.2423 10.25 11.9999 10.25C12.7575 10.25 13.4794 9.92005 15.3473 9.01622L18.2685 7.60269C19.0928 7.20381 19.6338 6.93988 19.9789 6.70681C20.1273 6.60657 20.199 6.53865 20.2322 6.49995C20.199 6.46125 20.1273 6.39333 19.9789 6.2931C19.6338 6.06003 19.0928 5.79609 18.2685 5.39722L15.3473 3.98368C13.4794 3.07986 12.7575 2.74995 11.9999 2.74995Z" fill="#1F1F1F" fill-opacity="0.87"/>
<g opacity="0.4">
<path d="M22.2813 15.6953C22.6653 15.5399 22.8506 15.1027 22.6952 14.7187C22.5397 14.3348 22.1025 14.1495 21.7186 14.3049C20.9632 14.6107 20.2416 15.1932 19.6064 15.8298C18.9617 16.476 18.3575 17.2277 17.8427 17.9329C17.4282 18.5008 17.0658 19.0467 16.7805 19.4964C16.5151 19.1141 16.251 18.8437 16.0014 18.6535C15.7721 18.4789 15.5607 18.3764 15.3831 18.3184C15.295 18.2896 15.2173 18.2725 15.1522 18.2626C15.1198 18.2576 15.0906 18.2545 15.0651 18.2526C15.0524 18.2517 15.0406 18.2511 15.0297 18.2507L15.0141 18.2503L15.0068 18.2502L15.0033 18.2501L15.0016 18.2501L14.9999 18.2501C14.5857 18.2501 14.2499 18.5859 14.2499 19.0001C14.2499 19.3884 14.545 19.7077 14.923 19.7462C14.944 19.7538 15.0032 19.7788 15.0923 19.8467C15.2914 19.9984 15.6605 20.3811 16.0628 21.3007C16.1771 21.5619 16.4296 21.7357 16.7144 21.7493C16.9991 21.7628 17.267 21.6135 17.4056 21.3644L17.4067 21.3624L17.4118 21.3532L17.4338 21.3144C17.4535 21.2798 17.4832 21.2279 17.5222 21.161C17.6002 21.0272 17.7151 20.8335 17.8609 20.5974C18.1531 20.1243 18.5669 19.485 19.0543 18.8173C19.5431 18.1475 20.097 17.4618 20.6683 16.8892C21.2491 16.3071 21.8014 15.8896 22.2813 15.6953Z" fill="#1F1F1F" fill-opacity="0.87"/>
<path d="M17.3355 4.67091C17.706 4.48567 17.8562 4.03516 17.6709 3.66468C17.4857 3.29419 17.0352 3.14403 16.6647 3.32927L6.6647 8.32927C6.29422 8.51451 6.14405 8.96502 6.32929 9.3355C6.51453 9.70598 6.96504 9.85615 7.33552 9.67091L17.3355 4.67091Z" fill="#1F1F1F" fill-opacity="0.87"/>
</g>
</svg>
