<svg width="24" height="24" viewBox="0 0 24 24" fill="none" xmlns="http://www.w3.org/2000/svg">
<path fill-rule="evenodd" clip-rule="evenodd" d="M5.66924 15.6615C5.85622 16.0311 5.70816 16.4823 5.33855 16.6693C4.13725 17.277 3.75 17.8931 3.75 18.3159C3.75 18.5584 3.86691 18.8607 4.22885 19.211C4.59302 19.5634 5.15923 19.9154 5.92017 20.2269C7.43839 20.8484 9.58755 21.25 12 21.25C14.4125 21.25 16.5616 20.8484 18.0798 20.2269C18.8408 19.9154 19.407 19.5634 19.7711 19.211C20.1331 18.8607 20.25 18.5584 20.25 18.3159C20.25 17.8931 19.8628 17.277 18.6614 16.6693C18.2918 16.4823 18.1438 16.0311 18.3308 15.6615C18.5177 15.2919 18.9689 15.1438 19.3386 15.3308C20.6388 15.9886 21.75 16.9839 21.75 18.3159C21.75 19.0907 21.3632 19.7576 20.8143 20.2889C20.2676 20.8179 19.5158 21.2599 18.6481 21.6151C16.9089 22.327 14.5581 22.75 12 22.75C9.44189 22.75 7.09105 22.327 5.35191 21.6151C4.48417 21.2599 3.73236 20.8179 3.18568 20.2889C2.63677 19.7576 2.25 19.0907 2.25 18.3159C2.25 16.9839 3.36115 15.9886 4.66145 15.3308C5.03106 15.1438 5.48226 15.2919 5.66924 15.6615Z" fill="#520826"/>
<path opacity="0.4" fill-rule="evenodd" clip-rule="evenodd" d="M12 2.75C10.2051 2.75 8.75 4.20507 8.75 6C8.75 7.79493 10.2051 9.25 12 9.25C13.7949 9.25 15.25 7.79493 15.25 6C15.25 4.20507 13.7949 2.75 12 2.75ZM7.25 6C7.25 3.37665 9.37665 1.25 12 1.25C14.6234 1.25 16.75 3.37665 16.75 6C16.75 8.36815 15.017 10.3315 12.75 10.6911L12.75 18C12.75 18.4142 12.4142 18.75 12 18.75C11.5858 18.75 11.25 18.4142 11.25 18L11.25 10.6911C8.98301 10.3315 7.25 8.36815 7.25 6Z" fill="#520826"/>
</svg>
