<svg width="24" height="24" viewBox="0 0 24 24" fill="none" xmlns="http://www.w3.org/2000/svg">
<path d="M5.33559 11.3291C4.9651 11.1438 4.5146 11.294 4.32936 11.6645C4.14411 12.035 4.29428 12.4855 4.66477 12.6707L6.66477 13.6707C7.03525 13.8559 7.48576 13.7058 7.671 13.3353C7.85624 12.9648 7.70607 12.5143 7.33559 12.3291L5.33559 11.3291Z" fill="#1F1F1F" fill-opacity="0.87"/>
<path fill-rule="evenodd" clip-rule="evenodd" d="M1.25001 6.49971C1.25001 6.6022 1.26035 6.69924 1.27939 6.79117C1.26026 6.85738 1.25001 6.92735 1.25001 6.99972L1.25001 17.161C1.25001 18.2814 2.06736 19.0265 3.07334 19.6302C4.09173 20.2413 5.58987 20.8741 7.48296 21.6738L7.69414 21.7631C9.11318 22.363 10.028 22.7497 11 22.7497C11.435 22.7497 11.8197 22.6747 12.2307 22.5419C12.6248 22.4145 12.841 21.9917 12.7137 21.5976C12.5863 21.2035 12.1635 20.9872 11.7694 21.1146L11.75 21.1208L11.75 11.678C12.6352 11.5117 13.5549 11.0663 14.8348 10.4466L17.9761 8.92647C18.453 8.69574 18.8845 8.48697 19.25 8.28863L19.25 11.4997C19.25 11.9139 19.5858 12.2497 20 12.2497C20.4142 12.2497 20.75 11.9139 20.75 11.4997L20.75 6.99972C20.75 6.92735 20.7398 6.85738 20.7206 6.79117C20.7397 6.69924 20.75 6.6022 20.75 6.49972C20.75 5.79766 20.2651 5.35142 19.8186 5.04986C19.3727 4.74867 18.7315 4.43842 17.9762 4.07297L14.8348 2.55286C13.193 1.75782 12.1438 1.24971 11 1.24971C9.85627 1.24972 8.80701 1.75782 7.16524 2.55286L4.02389 4.07296C3.26855 4.43841 2.62729 4.74867 2.18139 5.04986C1.73494 5.35142 1.25001 5.79766 1.25001 6.49971ZM4.0239 8.92648C3.54697 8.69573 3.11552 8.48698 2.75001 8.28863L2.75001 17.161C2.75001 17.4231 2.90549 17.7801 3.84515 18.344C4.76129 18.8937 6.15997 19.4866 8.12879 20.3183C9.14802 20.7488 9.77112 21.0061 10.25 21.1379L10.25 11.678C9.36485 11.5117 8.44508 11.0663 7.16524 10.4466L4.0239 8.92648ZM11 2.74971C10.2424 2.74971 9.52045 3.07962 7.65261 3.98344L4.73141 5.39698C3.90711 5.79585 3.36605 6.05979 3.02099 6.29286C2.8726 6.3931 2.80091 6.46102 2.76773 6.49971C2.80091 6.53841 2.8726 6.60633 3.02099 6.70657C3.36605 6.93964 3.90711 7.20357 4.73141 7.60245L7.65261 9.01598C9.52045 9.91981 10.2424 10.2497 11 10.2497C11.7576 10.2497 12.4796 9.91981 14.3474 9.01598L17.2686 7.60245C18.0929 7.20358 18.634 6.93964 18.979 6.70657C19.1274 6.60634 19.1991 6.53841 19.2323 6.49971C19.1991 6.46101 19.1274 6.39309 18.979 6.29286C18.634 6.05979 18.0929 5.79585 17.2686 5.39698L14.3474 3.98345C12.4796 3.07962 11.7576 2.74971 11 2.74971ZM19.2585 6.53911C19.2585 6.53911 19.2555 6.53522 19.2534 6.52775C19.2582 6.53543 19.2585 6.53911 19.2585 6.53911ZM19.2534 6.47168C19.2555 6.46422 19.2585 6.46032 19.2585 6.46032C19.2585 6.46032 19.2582 6.46399 19.2534 6.47168ZM2.7415 6.46032C2.7415 6.46032 2.74453 6.46421 2.7466 6.47168C2.74187 6.464 2.7415 6.46032 2.7415 6.46032ZM2.7466 6.52775C2.74453 6.53522 2.7415 6.53911 2.7415 6.53911C2.7415 6.53911 2.74187 6.53543 2.7466 6.52775Z" fill="#1F1F1F" fill-opacity="0.87"/>
<g opacity="0.4">
<path d="M19.436 17.6246C19.7289 17.3317 19.7289 16.8568 19.436 16.564C19.1431 16.2711 18.6682 16.2711 18.3753 16.564L17.4697 17.4696C17.1768 17.7625 17.1768 18.2374 17.4697 18.5303C17.7626 18.8232 18.2374 18.8232 18.5303 18.5303L19.436 17.6246Z" fill="#1F1F1F" fill-opacity="0.87"/>
<path fill-rule="evenodd" clip-rule="evenodd" d="M18 13.2494C15.3766 13.2494 13.25 15.3761 13.25 17.9994C13.25 20.6228 15.3766 22.7494 18 22.7494C20.6234 22.7494 22.75 20.6228 22.75 17.9994C22.75 15.3761 20.6234 13.2494 18 13.2494ZM14.75 17.9994C14.75 16.2045 16.2051 14.7494 18 14.7494C19.7949 14.7494 21.25 16.2045 21.25 17.9994C21.25 19.7943 19.7949 21.2494 18 21.2494C16.2051 21.2494 14.75 19.7943 14.75 17.9994Z" fill="#1F1F1F" fill-opacity="0.87"/>
<path d="M16.3356 4.6704C16.7061 4.48516 16.8562 4.03465 16.671 3.66417C16.4857 3.29369 16.0352 3.14352 15.6648 3.32876L5.66476 8.32876C5.29427 8.514 5.1441 8.96451 5.32935 9.33499C5.51459 9.70547 5.96509 9.85564 6.33557 9.6704L16.3356 4.6704Z" fill="#1F1F1F" fill-opacity="0.87"/>
</g>
</svg>
