<svg width="28" height="28" viewBox="0 0 28 28" fill="none" xmlns="http://www.w3.org/2000/svg">
<path fill-rule="evenodd" clip-rule="evenodd" d="M2.62497 20.0217L2.62497 7.58351C2.62497 6.65507 3.28446 6.08547 3.80962 5.73818C4.33412 5.39133 5.07963 5.03824 5.92516 4.63777L9.556 2.91762C11.3814 2.05176 12.6321 1.45851 14 1.45851C15.3678 1.45851 16.6185 2.05176 18.444 2.91762L22.0747 4.63772C22.9203 5.03821 23.6658 5.39132 24.1903 5.73818C24.7155 6.08546 25.375 6.65507 25.375 7.58351L25.375 20.0217C25.375 21.3288 24.4214 22.1981 23.2478 22.9024C22.0596 23.6154 20.0654 24.4578 17.8568 25.3907C16.2013 26.0906 15.134 26.5418 14 26.5418C12.8659 26.5418 11.7987 26.0906 10.1431 25.3907C7.93451 24.4578 5.94031 23.6154 4.75219 22.9024C3.57854 22.1981 2.62497 21.3288 2.62497 20.0217ZM6.21754 13.6087C6.43366 13.1765 6.95925 13.0013 7.39148 13.2174L9.72481 14.3841C10.157 14.6002 10.3322 15.1258 10.1161 15.558C9.90001 15.9902 9.37442 16.1654 8.94219 15.9493L6.60885 14.7827C6.17662 14.5665 6.00143 14.041 6.21754 13.6087ZM14.0001 3.68702C13.2187 3.68702 12.4655 4.01496 10.3163 5.03316L6.99339 6.60732C6.04758 7.05539 5.45504 7.33925 5.08363 7.58475C5.45504 7.83025 6.04758 8.11412 6.99339 8.56218L8.24678 9.15596L17.1673 4.78926C15.4069 3.9618 14.7153 3.68702 14.0001 3.68702ZM19.7533 6.01354L10.8328 10.3802C12.5932 11.2077 13.2849 11.4825 14.0001 11.4825C14.7814 11.4825 15.5346 11.1545 17.6839 10.1363L21.0067 8.56218C21.9525 8.11412 22.5451 7.83025 22.9165 7.58475C22.5451 7.33925 21.9525 7.05538 21.0067 6.60732L19.7533 6.01354Z" fill="#1F1F1F" fill-opacity="0.87"/>
</svg>
