<svg width="20" height="20" viewBox="0 0 20 20" fill="none" xmlns="http://www.w3.org/2000/svg">
<path fill-rule="evenodd" clip-rule="evenodd" d="M3.77969 5.625C3.79359 5.625 3.80754 5.625 3.82152 5.625L16.2206 5.625C16.6308 5.62495 17.0045 5.6249 17.3036 5.66863C17.6325 5.71671 17.9829 5.8317 18.2439 6.15045C18.5021 6.46573 18.5502 6.83096 18.5407 7.16305C18.5319 7.46983 18.4689 7.8453 18.3988 8.26324L18.1602 9.68666C18.1031 10.0271 17.7809 10.2568 17.4405 10.1997C17.1 10.1427 16.8703 9.82043 16.9274 9.48L17.1593 8.09651C17.2382 7.62587 17.2852 7.33705 17.2912 7.12716C17.294 7.02955 17.2863 6.97871 17.2804 6.95489C17.279 6.94951 17.2778 6.94594 17.2771 6.94386C17.2761 6.94336 17.2749 6.94277 17.2735 6.9421C17.2565 6.93424 17.2138 6.91878 17.1228 6.90548C16.9251 6.87658 16.6447 6.875 16.1788 6.875L3.82152 6.875C3.35559 6.875 3.0752 6.87658 2.8775 6.90548C2.78654 6.91878 2.74381 6.93424 2.72686 6.9421C2.72542 6.94277 2.72421 6.94336 2.72322 6.94386C2.72247 6.94594 2.72131 6.9495 2.71996 6.95489C2.71398 6.9787 2.70629 7.02955 2.70909 7.12716C2.71512 7.33705 2.7621 7.62587 2.841 8.09651L3.84397 14.0795C4.01277 15.0865 4.13112 15.786 4.28584 16.3104C4.43606 16.8196 4.60024 17.0877 4.81411 17.273C5.02609 17.4567 5.30534 17.5751 5.81177 17.6399C6.33689 17.7071 7.02363 17.7083 8.01834 17.7083H10.0002C10.3453 17.7083 10.6252 17.9882 10.6252 18.3333C10.6252 18.6785 10.3453 18.9583 10.0002 18.9583H7.9764C7.03378 18.9583 6.26675 18.9584 5.65301 18.8798C5.0115 18.7976 4.46229 18.6221 3.99562 18.2178C3.53085 17.8151 3.27259 17.2935 3.08693 16.6641C2.90823 16.0584 2.77837 15.2837 2.61783 14.3259L1.6082 8.30317C1.60596 8.28983 1.60373 8.27653 1.60151 8.26327C1.5314 7.84532 1.46842 7.46984 1.4596 7.16305C1.45007 6.83096 1.4982 6.46573 1.75641 6.15045C2.01746 5.8317 2.36779 5.71671 2.69667 5.66863C2.9958 5.6249 3.36951 5.62495 3.77969 5.625Z" fill="#520826"/>
<g opacity="0.4">
<path d="M6.04157 6.24998C6.04157 4.06385 7.81377 2.29165 9.9999 2.29165C12.186 2.29165 13.9582 4.06385 13.9582 6.24998L15.2082 6.24998C15.2082 3.3735 12.8764 1.04165 9.9999 1.04165C7.12342 1.04165 4.79157 3.3735 4.79157 6.24998L6.04157 6.24998Z" fill="#520826"/>
<path d="M15.6249 11.6666C15.6249 11.3215 15.3451 11.0416 14.9999 11.0416C14.6547 11.0416 14.3749 11.3215 14.3749 11.6666L14.3749 14.375L11.6666 14.375C11.3214 14.375 11.0416 14.6548 11.0416 15C11.0416 15.3452 11.3214 15.625 11.6666 15.625L14.3749 15.625L14.3749 18.3333C14.3749 18.6785 14.6547 18.9583 14.9999 18.9583C15.3451 18.9583 15.6249 18.6785 15.6249 18.3333L15.6249 15.625L18.3332 15.625C18.6784 15.625 18.9582 15.3452 18.9582 15C18.9582 14.6548 18.6784 14.375 18.3332 14.375L15.6249 14.375L15.6249 11.6666Z" fill="#520826"/>
</g>
</svg>
