<svg width="20" height="20" viewBox="0 0 20 20" fill="none" xmlns="http://www.w3.org/2000/svg">
<path opacity="0.4" fill-rule="evenodd" clip-rule="evenodd" d="M7.0326 13.7501C7.26176 13.492 7.65679 13.4685 7.91493 13.6977C8.34858 14.0826 9.0983 14.3735 10 14.3735C10.9017 14.3735 11.6514 14.0826 12.0851 13.6977C12.3432 13.4685 12.7383 13.492 12.9674 13.7501C13.1966 14.0083 13.1731 14.4033 12.9149 14.6325C12.2084 15.2596 11.143 15.6235 10 15.6235C8.85705 15.6235 7.79158 15.2596 7.08509 14.6325C6.82695 14.4033 6.80345 14.0083 7.0326 13.7501Z" fill="white" fill-opacity="0.87"/>
<path fill-rule="evenodd" clip-rule="evenodd" d="M13.8604 1.4636L13.4322 1.46535C12.3399 1.46969 11.1491 1.47293 10.4046 1.46241L4.55785 1.46241C4.41044 1.46241 4.12561 1.46565 3.82239 1.5213C3.53643 1.57378 3.13219 1.69 2.83043 1.98969C2.68422 2.1349 2.56733 2.3192 2.47718 2.48331C2.38283 2.65509 2.29684 2.84395 2.2217 3.02485C2.07675 3.37381 1.9574 3.72963 1.88758 3.93774L1.88122 3.95672L1.31559 5.59469C1.22646 5.8324 1.13263 6.19724 1.08158 6.56097C1.05535 6.74785 1.03826 6.94912 1.04226 7.14375C1.04609 7.33026 1.06974 7.55303 1.15281 7.75929C1.28553 8.0888 1.57579 8.43759 1.81375 8.691C1.83397 8.71253 1.85441 8.734 1.87502 8.75535L1.87502 12.9598C1.875 14.0996 1.87499 15.0183 1.97212 15.7408C2.07296 16.491 2.2887 17.1226 2.79027 17.6243C3.29187 18.1259 3.92344 18.3417 4.67354 18.4426C5.39603 18.5397 6.31464 18.5397 7.4543 18.5397L12.5457 18.5397C13.6854 18.5397 14.604 18.5397 15.3265 18.4426C16.0766 18.3417 16.7081 18.1259 17.2097 17.6243C17.7113 17.1226 17.9271 16.491 18.0279 15.7408C18.1251 15.0183 18.125 14.0996 18.125 12.9598L18.125 8.81227C18.6283 8.27601 18.857 7.69758 18.9454 7.27056C18.954 7.22887 18.9583 7.18642 18.9583 7.14385C18.9583 6.75705 18.8386 6.20096 18.6212 5.49332C18.3982 4.76719 18.054 3.82476 17.5651 2.64027C17.5601 2.62821 17.5547 2.6163 17.549 2.60457C17.4607 2.42368 17.2861 2.15795 17.0203 1.92793C16.7486 1.69289 16.3539 1.47302 15.8465 1.46255C15.5564 1.45656 14.7695 1.45983 13.8604 1.4636ZM16.875 9.6988C16.6148 9.82029 16.3239 9.92802 15.9988 10.0171C14.2303 10.5017 13.0369 9.85455 12.4026 9.32035C12.2624 9.42193 12.1091 9.52212 11.9447 9.61596C11.4161 9.91786 10.7322 10.1771 9.97092 10.1666C8.93785 10.1523 8.12567 9.75097 7.61232 9.35873C7.13471 9.75623 6.53139 10.0642 5.78748 10.1614C4.96053 10.2694 4.23299 10.1429 3.67174 9.95142C3.47196 9.88325 3.28834 9.8051 3.12502 9.72328L3.12502 12.914C3.12502 14.1104 3.12634 14.9447 3.21097 15.5743C3.29319 16.1859 3.44357 16.5097 3.67423 16.7404C3.90486 16.9711 4.22867 17.1215 4.84013 17.2037C5.46958 17.2884 6.30383 17.2897 7.50002 17.2897L12.5 17.2897C13.6962 17.2897 14.5304 17.2884 15.1599 17.2037C15.7713 17.1215 16.0951 16.9711 16.3258 16.7404C16.5565 16.5097 16.7068 16.1859 16.7891 15.5743C16.8737 14.9447 16.875 14.1104 16.875 12.914L16.875 9.6988ZM9.98816 8.9167C9.30654 8.90729 8.77398 8.65184 8.44477 8.42004C8.73876 7.9755 8.92687 7.52766 9.02222 7.18331C9.11433 6.85065 8.91932 6.5063 8.58666 6.41419C8.254 6.32208 7.90965 6.51709 7.81754 6.84975C7.61289 7.58886 6.88772 8.75696 5.62551 8.92191C5.01875 9.0012 4.48574 8.90842 4.07543 8.7684C3.65107 8.6236 3.39451 8.4414 3.33626 8.38651C3.31355 8.36511 3.28926 8.34544 3.26362 8.32767C3.16012 8.25596 2.94281 8.06731 2.72498 7.83533C2.49469 7.59009 2.3505 7.38712 2.31229 7.29225C2.31229 7.29225 2.30703 7.2773 2.30216 7.24683C2.29702 7.21467 2.2931 7.17192 2.292 7.11808C2.28976 7.00923 2.29939 6.87762 2.31945 6.73472C2.36028 6.44383 2.43551 6.16647 2.48773 6.02901C2.49 6.02305 2.49217 6.01706 2.49425 6.01103L3.06366 4.36217L3.07018 4.34275C3.14069 4.13262 3.24825 3.81209 3.37608 3.50433C3.44137 3.34716 3.50796 3.20312 3.57278 3.08511C3.64181 2.95944 3.6907 2.89705 3.71128 2.8766C3.74313 2.84497 3.84338 2.78832 4.04802 2.75077C4.23539 2.71638 4.42727 2.71241 4.55785 2.71241L10.3914 2.71241C11.1498 2.72305 12.3506 2.71966 13.4371 2.71534L13.8633 2.71361C14.7797 2.70982 15.5476 2.70665 15.8207 2.71228C15.9629 2.71522 16.088 2.7743 16.2024 2.87323C16.3133 2.96917 16.3879 3.08155 16.4188 3.13959C16.894 4.29198 17.2199 5.18839 17.4263 5.86032C17.6187 6.48686 17.6935 6.87581 17.7063 7.08267C17.5959 7.52134 17.1839 8.39626 15.6684 8.81154C14.5017 9.13125 13.728 8.77091 13.2937 8.43589C13.452 8.17702 13.6398 7.7767 13.8223 7.20721C13.9276 6.87849 13.7465 6.52664 13.4177 6.42133C13.089 6.31602 12.7372 6.49713 12.6319 6.82585C12.4103 7.51755 12.2147 7.81229 12.1742 7.86333C12.0284 8.02817 11.7251 8.30194 11.3249 8.53048C10.9203 8.76154 10.4576 8.92317 9.98816 8.9167Z" fill="white" fill-opacity="0.87"/>
</svg>
