<svg width="48" height="78" viewBox="0 0 48 78" fill="none" xmlns="http://www.w3.org/2000/svg">
<path d="M39.5117 22.0001C40.6163 22.0001 41.5117 21.1046 41.5117 20.0001V11L42.6768 11C43.0281 11.0003 43.4594 11.0006 43.8123 10.9565L43.8189 10.9556C44.0718 10.9241 45.2239 10.7804 45.7726 9.64922C46.3226 8.51558 45.7187 7.5153 45.5881 7.29889L44.9098 6.36189C44.3205 5.61024 43.5091 4.58134 42.7482 3.79932C42.3686 3.4091 41.9341 3.00663 41.4722 2.68893C41.0617 2.40653 40.3613 2 39.5 2C38.6387 2 37.9383 2.40653 37.5278 2.68893C37.0659 3.00663 36.6314 3.4091 36.2518 3.79932C35.4909 4.58134 34.6795 5.61026 34.0902 6.36191L33.4119 7.29889C33.2813 7.51529 32.6774 8.51557 33.2274 9.64922C33.7761 10.7804 34.9282 10.9241 35.1811 10.9556L35.1877 10.9565C35.5406 11.0006 35.9719 11.0003 36.3232 11L37.5117 11V20.0001C37.5117 21.1046 38.4072 22.0001 39.5117 22.0001Z" fill="#1F1F1F" fill-opacity="0.87"/>
<path d="M24.8511 4L25 4C26.1046 4 27 4.89543 27 6C27 7.10457 26.1046 8 25 8C20.4651 8 15.2652 8.00425 12.8424 8.32998C10.4772 8.64797 9.15441 9.239 8.1967 10.1967C7.239 11.1544 6.64797 12.4772 6.32998 14.8424C6.00425 17.2652 6 20.4651 6 25C6 25.4631 6.00005 25.9124 6.00047 26.3483C6.54334 26.3166 7.0874 26.3012 7.63182 26.3022C13.2578 26.1872 18.7573 27.9409 23.1504 31.2697C26.7868 34.0251 29.4741 37.716 30.8924 41.877C31.7187 41.8291 32.4695 41.7625 33.1576 41.67C33.4325 41.6331 33.6933 41.5924 33.941 41.548C32.9336 38.3019 31.2589 35.3041 29.0397 32.7132C28.5809 32.1776 28.7605 31.3368 29.4319 31.1213C31.1463 30.5708 32.902 30.2904 34.678 30.297C36.4684 30.2956 38.2427 30.5893 39.977 31.1634C39.9993 30.1195 40 28.8318 40 27V26C40 24.8954 40.8954 24 42 24C43.1046 24 44 24.8954 44 26V27.1488C44.0001 31.5003 44.0001 32.9704 43.6344 35.6906C43.2567 38.4993 42.4565 40.8069 40.6317 42.6317C38.8069 44.4565 36.4993 45.2567 33.6906 45.6344C30.9703 46.0001 27.5008 46.0001 23.1489 46H22.8512C18.4992 46.0001 15.0297 46.0001 12.3094 45.6344C9.50067 45.2567 7.19306 44.4565 5.36827 42.6317C3.54349 40.8069 2.74328 38.4993 2.36565 35.6906C1.99992 32.9703 1.99995 29.5009 2 25.1489V24.8511C1.99995 20.4992 1.99992 17.0297 2.36565 14.3094C2.74328 11.5007 3.54349 9.19305 5.36827 7.36827C7.19306 5.54349 9.50067 4.74327 12.3094 4.36565C15.0297 3.99992 20.4991 3.99995 24.8511 4Z" fill="#1F1F1F" fill-opacity="0.87"/>
<path d="M4.998 72.14C4.186 72.14 3.48133 72.0047 2.884 71.734C2.28667 71.454 1.82467 71.0293 1.498 70.46C1.17133 69.8813 1.008 69.144 1.008 68.248V62.55C1.008 62.4473 1.04067 62.3633 1.106 62.298C1.17133 62.2327 1.25067 62.2 1.344 62.2H2.618C2.72067 62.2 2.8 62.2327 2.856 62.298C2.92133 62.3633 2.954 62.4473 2.954 62.55V68.248C2.954 69.0133 3.136 69.5827 3.5 69.956C3.864 70.32 4.36333 70.502 4.998 70.502C5.63267 70.502 6.12733 70.32 6.482 69.956C6.846 69.5827 7.028 69.0133 7.028 68.248V62.55C7.028 62.4473 7.06067 62.3633 7.126 62.298C7.19133 62.2327 7.27533 62.2 7.378 62.2H8.638C8.74067 62.2 8.82 62.2327 8.876 62.298C8.94133 62.3633 8.974 62.4473 8.974 62.55V68.248C8.974 69.144 8.81067 69.8813 8.484 70.46C8.16667 71.0293 7.70933 71.454 7.112 71.734C6.524 72.0047 5.81933 72.14 4.998 72.14ZM11.2545 74.66C11.1611 74.66 11.0818 74.6273 11.0165 74.562C10.9511 74.4967 10.9185 74.4173 10.9185 74.324V65.056C10.9185 64.9627 10.9511 64.8833 11.0165 64.818C11.0818 64.7527 11.1611 64.72 11.2545 64.72H12.3605C12.4631 64.72 12.5425 64.7527 12.5985 64.818C12.6638 64.8833 12.6965 64.9627 12.6965 65.056V65.616C12.9205 65.3173 13.2145 65.07 13.5785 64.874C13.9425 64.678 14.3951 64.58 14.9365 64.58C15.4311 64.58 15.8605 64.6593 16.2245 64.818C16.5885 64.9767 16.8918 65.2053 17.1345 65.504C17.3771 65.7933 17.5638 66.1387 17.6945 66.54C17.8251 66.9413 17.8998 67.3847 17.9185 67.87C17.9278 68.0287 17.9325 68.192 17.9325 68.36C17.9325 68.528 17.9278 68.696 17.9185 68.864C17.9091 69.3307 17.8391 69.7647 17.7085 70.166C17.5778 70.558 17.3865 70.9033 17.1345 71.202C16.8918 71.4913 16.5885 71.72 16.2245 71.888C15.8605 72.056 15.4311 72.14 14.9365 72.14C14.4325 72.14 14.0031 72.0513 13.6485 71.874C13.2938 71.6873 13.0045 71.4447 12.7805 71.146V74.324C12.7805 74.4173 12.7478 74.4967 12.6825 74.562C12.6265 74.6273 12.5471 74.66 12.4445 74.66H11.2545ZM14.4185 70.642C14.8198 70.642 15.1325 70.558 15.3565 70.39C15.5805 70.2127 15.7391 69.984 15.8325 69.704C15.9351 69.424 15.9958 69.116 16.0145 68.78C16.0331 68.5 16.0331 68.22 16.0145 67.94C15.9958 67.604 15.9351 67.296 15.8325 67.016C15.7391 66.736 15.5805 66.512 15.3565 66.344C15.1325 66.1667 14.8198 66.078 14.4185 66.078C14.0358 66.078 13.7231 66.1667 13.4805 66.344C13.2471 66.5213 13.0745 66.75 12.9625 67.03C12.8598 67.3007 12.7991 67.5807 12.7805 67.87C12.7711 68.038 12.7665 68.2153 12.7665 68.402C12.7665 68.5887 12.7711 68.7707 12.7805 68.948C12.7898 69.228 12.8551 69.4987 12.9765 69.76C13.0978 70.012 13.2751 70.222 13.5085 70.39C13.7418 70.558 14.0451 70.642 14.4185 70.642ZM19.8541 72C19.7607 72 19.6814 71.9673 19.6161 71.902C19.5507 71.8367 19.5181 71.7573 19.5181 71.664V62.396C19.5181 62.3027 19.5507 62.2233 19.6161 62.158C19.6814 62.0927 19.7607 62.06 19.8541 62.06H21.0161C21.1094 62.06 21.1887 62.0927 21.2541 62.158C21.3194 62.2233 21.3521 62.3027 21.3521 62.396V71.664C21.3521 71.7573 21.3194 71.8367 21.2541 71.902C21.1887 71.9673 21.1094 72 21.0161 72H19.8541ZM26.4292 72.14C25.6825 72.14 25.0525 72.0093 24.5392 71.748C24.0352 71.4867 23.6478 71.118 23.3772 70.642C23.1158 70.166 22.9665 69.6107 22.9292 68.976C22.9198 68.808 22.9152 68.6027 22.9152 68.36C22.9152 68.1173 22.9198 67.912 22.9292 67.744C22.9665 67.1 23.1205 66.5447 23.3912 66.078C23.6712 65.602 24.0632 65.2333 24.5672 64.972C25.0805 64.7107 25.7012 64.58 26.4292 64.58C27.1572 64.58 27.7732 64.7107 28.2772 64.972C28.7905 65.2333 29.1825 65.602 29.4532 66.078C29.7332 66.5447 29.8918 67.1 29.9292 67.744C29.9385 67.912 29.9432 68.1173 29.9432 68.36C29.9432 68.6027 29.9385 68.808 29.9292 68.976C29.8918 69.6107 29.7378 70.166 29.4672 70.642C29.2058 71.118 28.8185 71.4867 28.3052 71.748C27.8012 72.0093 27.1758 72.14 26.4292 72.14ZM26.4292 70.754C26.9238 70.754 27.3065 70.6 27.5772 70.292C27.8478 69.9747 27.9972 69.5127 28.0252 68.906C28.0345 68.766 28.0392 68.584 28.0392 68.36C28.0392 68.136 28.0345 67.954 28.0252 67.814C27.9972 67.2167 27.8478 66.7593 27.5772 66.442C27.3065 66.1247 26.9238 65.966 26.4292 65.966C25.9345 65.966 25.5518 66.1247 25.2812 66.442C25.0105 66.7593 24.8612 67.2167 24.8332 67.814C24.8238 67.954 24.8192 68.136 24.8192 68.36C24.8192 68.584 24.8238 68.766 24.8332 68.906C24.8612 69.5127 25.0105 69.9747 25.2812 70.292C25.5518 70.6 25.9345 70.754 26.4292 70.754ZM33.6083 72.14C33.123 72.14 32.6843 72.0467 32.2923 71.86C31.9003 71.664 31.5876 71.4073 31.3543 71.09C31.1303 70.7633 31.0183 70.3993 31.0183 69.998C31.0183 69.3447 31.2796 68.8267 31.8023 68.444C32.3343 68.052 33.0343 67.7907 33.9023 67.66L35.8203 67.38V67.086C35.8203 66.694 35.7223 66.3907 35.5263 66.176C35.3303 65.9613 34.9943 65.854 34.5183 65.854C34.1823 65.854 33.907 65.924 33.6923 66.064C33.487 66.1947 33.333 66.372 33.2303 66.596C33.1556 66.7173 33.0483 66.778 32.9083 66.778H31.8023C31.6996 66.778 31.6203 66.75 31.5643 66.694C31.5176 66.638 31.4943 66.5633 31.4943 66.47C31.5036 66.3207 31.5643 66.1387 31.6763 65.924C31.7883 65.7093 31.9656 65.504 32.2083 65.308C32.451 65.1027 32.7636 64.93 33.1463 64.79C33.529 64.65 33.991 64.58 34.5323 64.58C35.1203 64.58 35.615 64.6547 36.0163 64.804C36.427 64.944 36.7536 65.1353 36.9963 65.378C37.239 65.6207 37.4163 65.9053 37.5283 66.232C37.6403 66.5587 37.6963 66.904 37.6963 67.268V71.664C37.6963 71.7573 37.6636 71.8367 37.5983 71.902C37.533 71.9673 37.4536 72 37.3603 72H36.2263C36.1236 72 36.0396 71.9673 35.9743 71.902C35.9183 71.8367 35.8903 71.7573 35.8903 71.664V71.118C35.769 71.2953 35.6056 71.4633 35.4003 71.622C35.195 71.7713 34.943 71.8973 34.6443 72C34.355 72.0933 34.0096 72.14 33.6083 72.14ZM34.0843 70.81C34.411 70.81 34.705 70.74 34.9663 70.6C35.237 70.46 35.447 70.2453 35.5963 69.956C35.755 69.6573 35.8343 69.284 35.8343 68.836V68.542L34.4343 68.766C33.8836 68.85 33.473 68.9853 33.2023 69.172C32.9316 69.3587 32.7963 69.5873 32.7963 69.858C32.7963 70.0633 32.857 70.2407 32.9783 70.39C33.109 70.53 33.2723 70.6373 33.4683 70.712C33.6643 70.7773 33.8696 70.81 34.0843 70.81ZM42.1944 72.14C41.709 72.14 41.2797 72.0607 40.9064 71.902C40.5424 71.734 40.239 71.5007 39.9964 71.202C39.7537 70.9033 39.567 70.5533 39.4364 70.152C39.3057 69.7413 39.231 69.2933 39.2124 68.808C39.203 68.64 39.1984 68.4907 39.1984 68.36C39.1984 68.22 39.203 68.066 39.2124 67.898C39.231 67.4313 39.301 66.9973 39.4224 66.596C39.553 66.1947 39.7397 65.8447 39.9824 65.546C40.2344 65.238 40.5424 65 40.9064 64.832C41.2797 64.664 41.709 64.58 42.1944 64.58C42.6984 64.58 43.123 64.6687 43.4684 64.846C43.823 65.014 44.117 65.2333 44.3504 65.504V62.396C44.3504 62.3027 44.3784 62.2233 44.4344 62.158C44.4997 62.0927 44.5837 62.06 44.6864 62.06H45.8764C45.9697 62.06 46.049 62.0927 46.1144 62.158C46.1797 62.2233 46.2124 62.3027 46.2124 62.396V71.664C46.2124 71.7573 46.1797 71.8367 46.1144 71.902C46.049 71.9673 45.9697 72 45.8764 72H44.7704C44.6677 72 44.5837 71.9673 44.5184 71.902C44.4624 71.8367 44.4344 71.7573 44.4344 71.664V71.146C44.201 71.4353 43.9024 71.6733 43.5384 71.86C43.1837 72.0467 42.7357 72.14 42.1944 72.14ZM42.7124 70.642C43.1044 70.642 43.417 70.5533 43.6504 70.376C43.8837 70.1987 44.0564 69.9747 44.1684 69.704C44.2804 69.424 44.341 69.1393 44.3504 68.85C44.3597 68.682 44.3644 68.5047 44.3644 68.318C44.3644 68.122 44.3597 67.94 44.3504 67.772C44.341 67.492 44.2757 67.226 44.1544 66.974C44.033 66.7127 43.8557 66.498 43.6224 66.33C43.389 66.162 43.0857 66.078 42.7124 66.078C42.3204 66.078 42.0077 66.1667 41.7744 66.344C41.5504 66.512 41.387 66.736 41.2844 67.016C41.1817 67.296 41.121 67.604 41.1024 67.94C41.093 68.22 41.093 68.5 41.1024 68.78C41.121 69.116 41.1817 69.424 41.2844 69.704C41.387 69.984 41.5504 70.2127 41.7744 70.39C42.0077 70.558 42.3204 70.642 42.7124 70.642Z" fill="#1F1F1F" fill-opacity="0.87"/>
</svg>
