<svg width="64" height="64" viewBox="0 0 64 64" fill="none" xmlns="http://www.w3.org/2000/svg">
<g opacity="0.4">
<path d="M26.3338 6C19.3382 6 13.6671 11.6711 13.6671 18.6667C13.6671 25.6623 19.3382 31.3333 26.3338 31.3333C33.3293 31.3333 39.0005 25.6623 39.0005 18.6667C39.0005 11.6711 33.3293 6 26.3338 6Z" fill="#E54F40"/>
<path d="M40.1982 39.0647C31.7097 34.0895 20.9577 34.0895 12.4692 39.0647C12.2013 39.2218 11.8679 39.4069 11.4886 39.6175L11.4847 39.6197C9.79764 40.5562 7.20564 41.9951 5.43153 43.7045C4.32355 44.7722 3.23139 46.2141 3.03201 48.0098C2.81835 49.9338 3.67795 51.7095 5.32147 53.2509C8.12169 55.8767 11.5028 57.9999 15.8824 57.9999H36.7849C41.1646 57.9999 44.5457 55.877 47.346 53.2509C48.9894 51.7095 49.8489 49.9338 49.6353 48.0098C49.4358 46.2141 48.3438 44.7722 47.2358 43.7045C45.4619 41.9953 42.871 40.5569 41.184 39.6204C40.803 39.4089 40.467 39.2223 40.1982 39.0647Z" fill="#E54F40"/>
</g>
<path fill-rule="evenodd" clip-rule="evenodd" d="M42.3337 17.3334C42.3337 15.8606 43.5279 14.6667 45.0004 14.6667H58.3337C59.8065 14.6667 61.0004 15.8606 61.0004 17.3334C61.0004 18.8061 59.8065 20 58.3337 20H45.0004C43.5279 20 42.3337 18.8061 42.3337 17.3334Z" fill="#E54F40"/>
</svg>
