<svg width="16" height="16" viewBox="0 0 16 16" fill="none" xmlns="http://www.w3.org/2000/svg">
<path opacity="0.4" fill-rule="evenodd" clip-rule="evenodd" d="M4.49994 13.3256C4.49579 13.053 4.27355 12.8333 4 12.8333C3.72386 12.8333 3.5 13.0572 3.5 13.3333C3.5 13.7363 3.74546 14.0406 4.00485 14.245C4.26989 14.4539 4.62241 14.6201 5.01346 14.7505C5.80078 15.0129 6.85664 15.1667 8 15.1667C9.14336 15.1667 10.1992 15.0129 10.9865 14.7505C11.3776 14.6201 11.7301 14.4539 11.9951 14.245C12.2545 14.0406 12.5 13.7363 12.5 13.3333C12.5 13.0572 12.2761 12.8333 12 12.8333C11.7265 12.8333 11.5042 13.053 11.5001 13.3256C11.4953 13.3381 11.472 13.3841 11.3762 13.4596C11.2364 13.5698 11.0031 13.6909 10.6703 13.8018C10.0099 14.0219 9.06578 14.1667 8 14.1667C6.93422 14.1667 5.99008 14.0219 5.32969 13.8018C4.99688 13.6909 4.76361 13.5698 4.62383 13.4596C4.52797 13.3841 4.50468 13.3381 4.49994 13.3256ZM11.5011 13.322C11.5012 13.322 11.5011 13.3226 11.5007 13.3237C11.5009 13.3226 11.5011 13.322 11.5011 13.322ZM4.49929 13.3237C4.49894 13.3226 4.49884 13.322 4.49887 13.322C4.49891 13.322 4.49909 13.3226 4.49929 13.3237Z" fill="#1F1F1F" fill-opacity="0.66"/>
<path fill-rule="evenodd" clip-rule="evenodd" d="M8 1.83334C5.57344 1.83334 3.5 3.89166 3.5 6.39127C3.5 8.92016 5.59283 10.7412 7.74197 12.0997C7.82136 12.1438 7.91008 12.1667 8 12.1667C8.09028 12.1667 8.17936 12.1436 8.259 12.0992C10.4082 10.7563 12.5 8.91172 12.5 6.39127C12.5 3.89166 10.4266 1.83334 8 1.83334ZM2.5 6.39127C2.5 3.34572 5.01483 0.833336 8 0.833336C10.9852 0.833336 13.5 3.34572 13.5 6.39127C13.5 9.50087 10.9345 11.608 8.77974 12.953L8.7722 12.9577L8.76449 12.9621C8.53189 13.096 8.26841 13.1667 8 13.1667C7.73159 13.1667 7.46811 13.096 7.23551 12.9621L7.22668 12.957L7.21805 12.9516C5.07168 11.5963 2.5 9.51141 2.5 6.39127ZM8 4.83334C7.17157 4.83334 6.5 5.50491 6.5 6.33334C6.5 7.16176 7.17157 7.83334 8 7.83334C8.82843 7.83334 9.5 7.16176 9.5 6.33334C9.5 5.50491 8.82843 4.83334 8 4.83334ZM5.5 6.33334C5.5 4.95262 6.61929 3.83334 8 3.83334C9.38071 3.83334 10.5 4.95262 10.5 6.33334C10.5 7.71405 9.38071 8.83334 8 8.83334C6.61929 8.83334 5.5 7.71405 5.5 6.33334Z" fill="#1F1F1F" fill-opacity="0.66"/>
</svg>
