<svg width="20" height="20" viewBox="0 0 20 20" fill="none" xmlns="http://www.w3.org/2000/svg">
    <path opacity="0.4" fill-rule="evenodd" clip-rule="evenodd"
        d="M5.62493 16.6569C5.61974 16.3162 5.34194 16.0417 5 16.0417C4.65482 16.0417 4.375 16.3215 4.375 16.6667C4.375 17.1704 4.68182 17.5507 5.00607 17.8063C5.33736 18.0674 5.77802 18.2752 6.26682 18.4381C7.25097 18.7661 8.57081 18.9583 10 18.9583C11.4292 18.9583 12.749 18.7661 13.7332 18.4381C14.222 18.2752 14.6626 18.0674 14.9939 17.8063C15.3182 17.5507 15.625 17.1704 15.625 16.6667C15.625 16.3215 15.3452 16.0417 15 16.0417C14.6581 16.0417 14.3803 16.3162 14.3751 16.6569C14.3692 16.6727 14.34 16.7301 14.2202 16.8245C14.0455 16.9622 13.7539 17.1136 13.3379 17.2522C12.5124 17.5274 11.3322 17.7083 10 17.7083C8.66777 17.7083 7.4876 17.5274 6.66211 17.2522C6.24609 17.1136 5.95452 16.9622 5.77978 16.8245C5.65996 16.7301 5.63085 16.6727 5.62493 16.6569ZM14.3764 16.6525C14.3765 16.6525 14.3763 16.6532 14.3759 16.6546C14.3761 16.6532 14.3764 16.6525 14.3764 16.6525ZM5.62412 16.6546C5.62367 16.6532 5.62355 16.6525 5.62359 16.6525C5.62364 16.6525 5.62386 16.6532 5.62412 16.6546Z"
        fill="#1F1F1F" fill-opacity="0.66" />
    <path fill-rule="evenodd" clip-rule="evenodd"
        d="M10 2.29166C6.9668 2.29166 4.375 4.86456 4.375 7.98907C4.375 11.1502 6.99103 13.4264 9.67746 15.1246C9.7767 15.1797 9.8876 15.2083 10 15.2083C10.1129 15.2083 10.2242 15.1794 10.3238 15.124C13.0102 13.4453 15.625 11.1396 15.625 7.98907C15.625 4.86456 13.0332 2.29166 10 2.29166ZM3.125 7.98907C3.125 4.18213 6.26854 1.04166 10 1.04166C13.7315 1.04166 16.875 4.18213 16.875 7.98907C16.875 11.8761 13.6681 14.51 10.9747 16.1912L10.9652 16.1971L10.9556 16.2026C10.6649 16.37 10.3355 16.4583 10 16.4583C9.66448 16.4583 9.33514 16.37 9.04439 16.2026L9.03334 16.1963L9.02256 16.1894C6.3396 14.4954 3.125 11.8892 3.125 7.98907ZM10 6.04166C8.96447 6.04166 8.125 6.88112 8.125 7.91666C8.125 8.95219 8.96447 9.79166 10 9.79166C11.0355 9.79166 11.875 8.95219 11.875 7.91666C11.875 6.88112 11.0355 6.04166 10 6.04166ZM6.875 7.91666C6.875 6.19077 8.27411 4.79166 10 4.79166C11.7259 4.79166 13.125 6.19077 13.125 7.91666C13.125 9.64255 11.7259 11.0417 10 11.0417C8.27411 11.0417 6.875 9.64255 6.875 7.91666Z"
        fill="#1F1F1F" fill-opacity="0.66" />
</svg>
