<svg width="20" height="20" viewBox="0 0 20 20" fill="none" xmlns="http://www.w3.org/2000/svg">
<path d="M4.44108 9.72044C4.59545 9.4117 4.97087 9.28656 5.27961 9.44093L6.94628 10.2743C7.25501 10.4286 7.38015 10.8041 7.22579 11.1128C7.07142 11.4215 6.696 11.5467 6.38726 11.3923L4.72059 10.559C4.41186 10.4046 4.28672 10.0292 4.44108 9.72044Z" fill="#1F1F1F" fill-opacity="0.87"/>
<path fill-rule="evenodd" clip-rule="evenodd" d="M1.89944 5.65935C1.88358 5.58275 1.87497 5.50188 1.87497 5.41648C1.87497 4.83143 2.27907 4.45956 2.65111 4.20826C3.02269 3.95727 3.55708 3.69872 4.18653 3.39418L6.80432 2.12743C8.17246 1.4649 9.04684 1.04147 9.99997 1.04148C10.9531 1.04147 11.8275 1.4649 13.1956 2.12743L15.8134 3.39418C16.4428 3.69871 16.9772 3.95727 17.3488 4.20826C17.7209 4.45956 18.125 4.83143 18.125 5.41647C18.125 5.50188 18.1164 5.58275 18.1005 5.65935C18.1164 5.71453 18.125 5.77284 18.125 5.83314L18.125 14.3009C18.125 15.2346 17.4438 15.8555 16.6055 16.3585C15.7569 16.8678 14.5085 17.3951 12.9309 18.0615L12.7549 18.1359C11.5723 18.6359 10.81 18.9581 9.99997 18.9581C9.18993 18.9581 8.42761 18.6359 7.24507 18.1359L7.06905 18.0615C5.49149 17.3952 4.24305 16.8678 3.3944 16.3585C2.55608 15.8555 1.87496 15.2346 1.87496 14.3009L1.87496 5.83314C1.87496 5.77284 1.88351 5.71453 1.89944 5.65935ZM3.12497 6.90724C3.42956 7.07253 3.7891 7.24648 4.18654 7.43878L6.80432 8.70552C7.87085 9.222 8.63733 9.59317 9.37497 9.73172L9.37497 17.6149C8.97589 17.5051 8.45664 17.2907 7.60728 16.9319C5.9666 16.2389 4.80103 15.7448 4.03758 15.2867C3.25453 14.8168 3.12497 14.5193 3.12496 14.3009L3.12497 6.90724ZM10.625 9.73172C11.3626 9.59317 12.1291 9.222 13.1956 8.70552L15.8134 7.43877C16.2108 7.24649 16.5704 7.07252 16.875 6.90724L16.875 14.3009C16.875 14.5193 16.7454 14.8168 15.9624 15.2867C15.1989 15.7448 14.0333 16.2389 12.3927 16.9319C11.5433 17.2907 11.024 17.5051 10.625 17.6149L10.625 9.73172ZM7.21046 3.31958C8.767 2.56639 9.36864 2.29148 9.99997 2.29147C10.6313 2.29148 11.2329 2.56639 12.7895 3.31958L12.7931 3.32134L5.78682 6.82448L4.77613 6.33542C4.08921 6.00302 3.63833 5.78308 3.35078 5.58885C3.22712 5.50532 3.16738 5.44873 3.13973 5.41648C3.16738 5.38422 3.22712 5.32763 3.35078 5.2441C3.63833 5.04987 4.08921 4.82992 4.77613 4.49753L7.21046 3.31958ZM7.20725 7.51181L7.21046 7.51336C8.767 8.26656 9.36864 8.54147 9.99997 8.54147C10.6313 8.54147 11.2329 8.26655 12.7895 7.51337L15.2238 6.33542C15.9107 6.00303 16.3616 5.78308 16.6491 5.58885C16.7728 5.50533 16.8326 5.44872 16.8602 5.41647C16.8326 5.38422 16.7728 5.32762 16.6491 5.2441C16.3616 5.04987 15.9107 4.82992 15.2238 4.49753L14.2135 4.00867L7.20725 7.51181Z" fill="#1F1F1F" fill-opacity="0.87"/>
</svg>
