<svg width="15" height="8" viewBox="0 0 15 8" fill="none" xmlns="http://www.w3.org/2000/svg">
<path opacity="0.4" fill-rule="evenodd" clip-rule="evenodd" d="M9.58333 3.9024C9.58333 3.55723 9.30351 3.2774 8.95833 3.2774L0.625 3.27741C0.279822 3.27741 -4.52616e-08 3.55723 0 3.90241C4.52677e-08 4.24758 0.279822 4.52741 0.625 4.52741L8.95833 4.5274C9.30351 4.5274 9.58333 4.24758 9.58333 3.9024Z" fill="#1F1F1F" fill-opacity="0.38"/>
<path d="M8.33496 4.52886L8.33496 3.27857C8.33496 1.49085 8.33498 0.504941 9.23187 0.112062C10.1175 -0.268462 10.9154 0.352979 12.3647 1.47849L13.1677 2.10487C14.0495 2.78561 14.5819 3.19826 14.5819 3.90371C14.5819 4.60917 14.0496 5.02181 13.1664 5.70379L12.3661 6.3277C10.9167 7.45445 10.1175 8.07589 9.23689 7.69784C8.33499 7.30249 8.33496 6.31658 8.33496 4.52886ZM13.3343 3.90124C13.2967 3.76905 12.7969 3.38358 12.396 3.07348L11.5918 2.4471C10.8139 1.84172 9.93216 1.15603 9.7355 1.24004C9.58518 1.39448 9.58516 2.39521 9.58516 3.2798L9.58516 4.5301C9.58516 5.41346 9.58516 6.41542 9.74174 6.57233C9.93214 6.65263 10.8152 5.96695 11.5931 5.36157L12.3936 4.73765C12.3936 4.73765 12.3948 4.73765 12.396 4.73642C12.7969 4.42632 13.2967 4.03962 13.3343 3.90248V3.90124Z" fill="#1F1F1F" fill-opacity="0.38"/>
</svg>
