<svg width="24" height="24" viewBox="0 0 24 24" fill="none" xmlns="http://www.w3.org/2000/svg">
<path d="M5.33559 11.3289C4.9651 11.1436 4.5146 11.2938 4.32936 11.6643C4.14411 12.0348 4.29428 12.4853 4.66477 12.6705L6.66477 13.6705C7.03525 13.8558 7.48576 13.7056 7.671 13.3351C7.85624 12.9646 7.70607 12.5141 7.33559 12.3289L5.33559 11.3289Z" fill="#1F1F1F" fill-opacity="0.87"/>
<path fill-rule="evenodd" clip-rule="evenodd" d="M1.25001 6.49952C1.25001 6.60201 1.26035 6.69905 1.27939 6.79098C1.26026 6.85719 1.25001 6.92716 1.25001 6.99952L1.25001 17.1608C1.25001 18.2812 2.06736 19.0264 3.07334 19.63C4.09173 20.2411 5.58987 20.8739 7.48296 21.6736L7.69414 21.7629C9.11318 22.3628 10.028 22.7495 11 22.7495C11.435 22.7495 11.8197 22.6745 12.2307 22.5417C12.6248 22.4143 12.841 21.9916 12.7137 21.5974C12.5863 21.2033 12.1635 20.987 11.7694 21.1144L11.75 21.1206L11.75 11.6778C12.6352 11.5116 13.5549 11.0662 14.8348 10.4464L17.9761 8.92628C18.453 8.69555 18.8845 8.48678 19.25 8.28844L19.25 11.4995C19.25 11.9137 19.5858 12.2495 20 12.2495C20.4142 12.2495 20.75 11.9137 20.75 11.4995L20.75 6.99952C20.75 6.92716 20.7398 6.85719 20.7206 6.79098C20.7397 6.69905 20.75 6.60201 20.75 6.49952C20.75 5.79747 20.2651 5.35123 19.8186 5.04967C19.3727 4.74848 18.7315 4.43822 17.9762 4.07278L14.8348 2.55267C13.193 1.75763 12.1438 1.24952 11 1.24952C9.85627 1.24952 8.80701 1.75763 7.16524 2.55267L4.02389 4.07277C3.26855 4.43822 2.62729 4.74848 2.18139 5.04966C1.73494 5.35123 1.25001 5.79747 1.25001 6.49952ZM4.0239 8.92629C3.54697 8.69554 3.11552 8.48679 2.75001 8.28844L2.75001 17.1608C2.75001 17.4229 2.90549 17.78 3.84515 18.3438C4.76129 18.8936 6.15997 19.4864 8.12879 20.3181C9.14802 20.7486 9.77112 21.0059 10.25 21.1377L10.25 11.6778C9.36485 11.5116 8.44508 11.0662 7.16524 10.4464L4.0239 8.92629ZM11 2.74952C10.2424 2.74952 9.52045 3.07943 7.65261 3.98325L4.73141 5.39679C3.90711 5.79566 3.36605 6.0596 3.02099 6.29267C2.8726 6.39291 2.80091 6.46082 2.76773 6.49952C2.80091 6.53822 2.8726 6.60614 3.02099 6.70638C3.36605 6.93945 3.90711 7.20338 4.73141 7.60225L7.65261 9.01579C9.52045 9.91962 10.2424 10.2495 11 10.2495C11.7576 10.2495 12.4796 9.91962 14.3474 9.01579L17.2686 7.60226C18.0929 7.20339 18.634 6.93945 18.979 6.70638C19.1274 6.60614 19.1991 6.53822 19.2323 6.49952C19.1991 6.46082 19.1274 6.3929 18.979 6.29267C18.634 6.0596 18.0929 5.79566 17.2686 5.39679L14.3474 3.98326C12.4796 3.07943 11.7576 2.74952 11 2.74952ZM19.2585 6.53892C19.2585 6.53892 19.2555 6.53503 19.2534 6.52756C19.2582 6.53524 19.2585 6.53892 19.2585 6.53892ZM19.2534 6.47149C19.2555 6.46402 19.2585 6.46013 19.2585 6.46013C19.2585 6.46013 19.2582 6.4638 19.2534 6.47149ZM2.7415 6.46013C2.7415 6.46013 2.74453 6.46402 2.7466 6.47148C2.74187 6.46381 2.7415 6.46013 2.7415 6.46013ZM2.7466 6.52756C2.74453 6.53503 2.7415 6.53892 2.7415 6.53892C2.7415 6.53892 2.74187 6.53524 2.7466 6.52756Z" fill="#1F1F1F" fill-opacity="0.87"/>
<g opacity="0.4">
<path d="M19.436 17.6251C19.7289 17.3322 19.7289 16.8573 19.436 16.5644C19.1431 16.2715 18.6682 16.2715 18.3753 16.5644L17.4697 17.4701C17.1768 17.763 17.1768 18.2378 17.4697 18.5307C17.7626 18.8236 18.2374 18.8236 18.5303 18.5307L19.436 17.6251Z" fill="#1F1F1F" fill-opacity="0.87"/>
<path fill-rule="evenodd" clip-rule="evenodd" d="M18 13.2499C15.3766 13.2499 13.25 15.3765 13.25 17.9999C13.25 20.6232 15.3766 22.7499 18 22.7499C20.6234 22.7499 22.75 20.6232 22.75 17.9999C22.75 15.3765 20.6234 13.2499 18 13.2499ZM14.75 17.9999C14.75 16.205 16.2051 14.7499 18 14.7499C19.7949 14.7499 21.25 16.205 21.25 17.9999C21.25 19.7948 19.7949 21.2499 18 21.2499C16.2051 21.2499 14.75 19.7948 14.75 17.9999Z" fill="#1F1F1F" fill-opacity="0.87"/>
<path d="M16.3356 4.67087C16.7061 4.48563 16.8562 4.03513 16.671 3.66464C16.4857 3.29416 16.0352 3.14399 15.6648 3.32923L5.66476 8.32923C5.29427 8.51448 5.1441 8.96498 5.32935 9.33546C5.51459 9.70595 5.96509 9.85612 6.33557 9.67087L16.3356 4.67087Z" fill="#1F1F1F" fill-opacity="0.87"/>
</g>
</svg>
