<svg width="24" height="24" viewBox="0 0 24 24" fill="none" xmlns="http://www.w3.org/2000/svg">
<path fill-rule="evenodd" clip-rule="evenodd" d="M12 9.75C10.4264 9.75 8.9989 9.78372 7.5941 9.8483C6.2851 9.90848 5.18929 10.9319 5.0111 12.2553C4.86573 13.3351 4.75 14.4129 4.75 15.5C4.75 16.5871 4.86573 17.6649 5.0111 18.7447C5.18929 20.0681 6.2851 21.0915 7.5941 21.1517C8.9989 21.2163 10.4264 21.25 12 21.25C13.5736 21.25 15.0011 21.2163 16.4059 21.1517C17.7149 21.0915 18.8107 20.0681 18.9889 18.7447C19.1343 17.6649 19.25 16.5871 19.25 15.5C19.25 14.4129 19.1343 13.3351 18.9889 12.2553C18.8107 10.9319 17.7149 9.90848 16.4059 9.8483C15.0011 9.78372 13.5736 9.75 12 9.75ZM7.52522 8.34988C8.95364 8.28422 10.4042 8.25 12 8.25C13.5958 8.25 15.0464 8.28422 16.4748 8.34989C18.5328 8.4445 20.2039 10.0382 20.4755 12.0552C20.6236 13.1556 20.75 14.3118 20.75 15.5C20.75 16.6882 20.6236 17.8444 20.4755 18.9448C20.2039 20.9618 18.5328 22.5555 16.4748 22.6501C15.0464 22.7158 13.5958 22.75 12 22.75C10.4042 22.75 8.95364 22.7158 7.52522 22.6501C5.46716 22.5555 3.79609 20.9618 3.52452 18.9448C3.37636 17.8444 3.25 16.6882 3.25 15.5C3.25 14.3118 3.37636 13.1556 3.52452 12.0552C3.79609 10.0382 5.46716 8.4445 7.52522 8.34988Z" fill="#1F1F1F" fill-opacity="0.66"/>
<g opacity="0.4">
<path d="M8.25 6.5C8.25 4.42893 9.92893 2.75 12 2.75C14.0711 2.75 15.75 4.42893 15.75 6.5V9C15.75 9.41421 16.0858 9.75 16.5 9.75C16.9142 9.75 17.25 9.41421 17.25 9V6.5C17.25 3.6005 14.8995 1.25 12 1.25C9.1005 1.25 6.75 3.6005 6.75 6.5V9C6.75 9.41421 7.08579 9.75 7.5 9.75C7.91421 9.75 8.25 9.41421 8.25 9V6.5Z" fill="#1F1F1F" fill-opacity="0.66"/>
<path d="M12.75 14.5C12.75 14.0858 12.4142 13.75 12 13.75C11.5858 13.75 11.25 14.0858 11.25 14.5V16.5C11.25 16.9142 11.5858 17.25 12 17.25C12.4142 17.25 12.75 16.9142 12.75 16.5V14.5Z" fill="#1F1F1F" fill-opacity="0.66"/>
</g>
</svg>
