<svg width="24" height="24" viewBox="0 0 24 24" fill="none" xmlns="http://www.w3.org/2000/svg">
<path fill-rule="evenodd" clip-rule="evenodd" d="M5.31677 1.28635C5.88346 1.40348 6.33476 1.78422 6.61515 2.28725L7.50836 3.88969C7.83737 4.47989 8.11424 4.97658 8.29505 5.40835C8.48686 5.86637 8.60078 6.31803 8.5487 6.81739C8.49663 7.31675 8.29197 7.73519 8.0098 8.14378C7.74379 8.52895 7.3704 8.95783 6.92669 9.46745L4.69884 12.0265C6.46568 14.9225 9.07461 17.5326 11.9736 19.3012L14.5326 17.0734C15.0422 16.6297 15.4711 16.2563 15.8563 15.9903C16.2649 15.7081 16.6833 15.5034 17.1827 15.4514C17.682 15.3993 18.1337 15.5132 18.5917 15.705C19.0235 15.8858 19.5202 16.1627 20.1104 16.4917L21.7128 17.3849C22.2158 17.6653 22.5966 18.1166 22.7137 18.6833C22.832 19.2559 22.6575 19.8314 22.2719 20.3045C20.873 22.0208 18.6317 23.1137 16.2805 22.6394C14.8353 22.3478 13.4093 21.8621 11.6846 20.873C8.21921 18.8856 5.11214 15.7768 3.12706 12.3155C2.13795 10.5908 1.65223 9.16479 1.36069 7.71953C0.886392 5.3683 1.97923 3.12703 3.69559 1.72812C4.16862 1.34258 4.74417 1.16801 5.31677 1.28635ZM13.3707 20.0737C14.5371 20.6484 15.5516 20.9621 16.5771 21.169C18.2732 21.5111 19.9854 20.7356 21.1092 19.3568C21.2568 19.1758 21.2577 19.0494 21.2447 18.9869C21.2306 18.9185 21.1733 18.8015 20.9825 18.6951L19.416 17.8219C18.7803 17.4676 18.3572 17.233 18.0123 17.0886C17.6849 16.9515 17.4971 16.9267 17.3382 16.9433C17.1794 16.9598 17.0007 17.0228 16.7087 17.2245C16.401 17.437 16.0354 17.7539 15.4865 18.2317L13.3707 20.0737ZM3.92636 10.6293L5.76835 8.51355C6.24618 7.96469 6.56306 7.59903 6.77553 7.29138C6.97721 6.99934 7.04023 6.82065 7.05679 6.66181C7.07336 6.50297 7.04857 6.31512 6.91148 5.98776C6.76705 5.64289 6.53243 5.21972 6.17812 4.58407L5.30494 3.01756C5.19856 2.82672 5.08158 2.76945 5.01317 2.75531C4.95066 2.74239 4.82429 2.7433 4.64326 2.89084C3.26448 4.0146 2.48894 5.72687 2.83107 7.42292C3.03795 8.4485 3.35164 9.46297 3.92636 10.6293Z" fill="#1F1F1F" fill-opacity="0.66"/>
<path opacity="0.4" fill-rule="evenodd" clip-rule="evenodd" d="M14 2.25C14.4142 2.25 14.75 2.58579 14.75 3V5.8C14.75 6.21421 14.4142 6.55 14 6.55C13.5858 6.55 13.25 6.21421 13.25 5.8V3C13.25 2.58579 13.5858 2.25 14 2.25ZM19.4805 4.52045C19.7734 4.81334 19.7734 5.28822 19.4805 5.58111L17.5006 7.56101C17.2077 7.8539 16.7329 7.8539 16.44 7.56101C16.1471 7.26812 16.1471 6.79324 16.44 6.50035L18.4199 4.52045C18.7128 4.22756 19.1876 4.22756 19.4805 4.52045ZM17.45 10C17.45 9.58579 17.7858 9.25 18.2 9.25H21C21.4142 9.25 21.75 9.58579 21.75 10C21.75 10.4142 21.4142 10.75 21 10.75H18.2C17.7858 10.75 17.45 10.4142 17.45 10Z" fill="#1F1F1F" fill-opacity="0.66"/>
</svg>
