<svg width="361" height="272" viewBox="0 0 361 272" fill="none" xmlns="http://www.w3.org/2000/svg">
<g clip-path="url(#clip0_33_5864)">
<g opacity="0.5">
<circle cx="73.297" cy="205.941" r="0.866106" fill="white" fill-opacity="0.3"/>
<circle cx="6.76944" cy="229.393" r="0.639683" fill="white" fill-opacity="0.6"/>
<circle cx="2.60868" cy="168.994" r="0.621616" fill="white" fill-opacity="0.6"/>
<circle cx="134.096" cy="100.393" r="0.690477" fill="white" fill-opacity="0.6"/>
<circle cx="13.4038" cy="50.739" r="0.76211" fill="white" fill-opacity="0.5"/>
<circle cx="260.685" cy="269.012" r="0.596974" fill="white" fill-opacity="0.3"/>
<circle cx="70.168" cy="43.5704" r="0.69691" fill="white" fill-opacity="0.5"/>
<circle cx="263.168" cy="102.191" r="0.711451" fill="white" fill-opacity="0.6"/>
<circle cx="5.82309" cy="249.757" r="0.876195" fill="white" fill-opacity="0.5"/>
<circle cx="123.443" cy="115.196" r="0.693902" fill="white" fill-opacity="0.3"/>
<circle cx="2.12291" cy="28.8032" r="0.729233" fill="white" fill-opacity="0.4"/>
<circle cx="228.811" cy="96.2495" r="0.689881" fill="white" fill-opacity="0.5"/>
<circle cx="133.578" cy="152.562" r="0.765212" fill="white" fill-opacity="0.4"/>
<circle cx="206.936" cy="78.518" r="0.718168" fill="white" fill-opacity="0.6"/>
<circle cx="302.379" cy="254.469" r="0.852779" fill="white" fill-opacity="0.6"/>
<circle cx="187.971" cy="228.267" r="0.696622" fill="white" fill-opacity="0.3"/>
<circle cx="355.043" cy="117.11" r="0.831583" fill="white" fill-opacity="0.4"/>
<circle cx="30.6135" cy="183.384" r="0.80469" fill="white" fill-opacity="0.5"/>
<circle cx="51.9692" cy="235.523" r="0.848888" fill="white" fill-opacity="0.4"/>
<circle cx="36.466" cy="8.68301" r="0.735984" fill="white" fill-opacity="0.4"/>
<circle cx="359.754" cy="191.673" r="0.806592" fill="white" fill-opacity="0.4"/>
<circle cx="78.5631" cy="88.0759" r="0.804401" fill="white" fill-opacity="0.4"/>
<circle cx="308.897" cy="250.924" r="0.859109" fill="white" fill-opacity="0.5"/>
<circle cx="354.292" cy="26.9695" r="0.671462" fill="white" fill-opacity="0.6"/>
<circle cx="17.0543" cy="40.1817" r="0.859953" fill="white" fill-opacity="0.6"/>
<circle cx="110.965" cy="271.432" r="0.647362" fill="white" fill-opacity="0.3"/>
<circle cx="243.772" cy="57.9322" r="0.85128" fill="white" fill-opacity="0.6"/>
<circle cx="121.095" cy="265.578" r="0.713183" fill="white" fill-opacity="0.5"/>
<circle cx="271.557" cy="223.647" r="0.813803" fill="white" fill-opacity="0.3"/>
<circle cx="349.076" cy="38.33" r="0.784446" fill="white" fill-opacity="0.3"/>
<circle cx="286.221" cy="75.5186" r="0.678364" fill="white" fill-opacity="0.4"/>
<circle cx="130.655" cy="216.532" r="0.802016" fill="white" fill-opacity="0.4"/>
<circle cx="56.6198" cy="211.757" r="0.763236" fill="white" fill-opacity="0.4"/>
<circle cx="245.373" cy="84.9882" r="0.676482" fill="white" fill-opacity="0.6"/>
<circle cx="161.284" cy="16.291" r="0.648472" fill="white" fill-opacity="0.4"/>
<circle cx="248.356" cy="250.764" r="0.698949" fill="white" fill-opacity="0.6"/>
<circle cx="8.61861" cy="219.402" r="0.711873" fill="white" fill-opacity="0.5"/>
<circle cx="326.601" cy="63.2132" r="0.804688" fill="white" fill-opacity="0.5"/>
<circle cx="120.592" cy="124.185" r="0.803196" fill="white" fill-opacity="0.5"/>
<circle cx="156.784" cy="57.372" r="0.883131" fill="white" fill-opacity="0.5"/>
<circle cx="172.61" cy="100.43" r="0.727048" fill="white" fill-opacity="0.6"/>
<circle cx="114.102" cy="253.848" r="0.82322" fill="white" fill-opacity="0.4"/>
<circle cx="103.969" cy="57.2437" r="0.754837" fill="white" fill-opacity="0.5"/>
<circle cx="27.463" cy="101.501" r="0.614002" fill="white" fill-opacity="0.4"/>
<circle cx="197.444" cy="266.746" r="0.69723" fill="white" fill-opacity="0.6"/>
<circle cx="181.561" cy="31.2402" r="0.798039" fill="white" fill-opacity="0.6"/>
<circle cx="39.9863" cy="0.956824" r="0.705573" fill="white" fill-opacity="0.3"/>
<circle cx="97.5512" cy="59.7056" r="0.848304" fill="white" fill-opacity="0.5"/>
<circle cx="197.951" cy="260.741" r="0.613189" fill="white" fill-opacity="0.3"/>
<circle cx="289.733" cy="57.7188" r="0.637861" fill="white" fill-opacity="0.5"/>
<circle cx="180.299" cy="64.9042" r="0.719579" fill="white" fill-opacity="0.5"/>
<circle cx="-0.777439" cy="166.201" r="0.788845" fill="white" fill-opacity="0.4"/>
<circle cx="267.43" cy="137.828" r="0.830232" fill="white" fill-opacity="0.4"/>
<circle cx="337.085" cy="1.47598" r="0.632627" fill="white" fill-opacity="0.5"/>
<circle cx="58.9969" cy="75.0218" r="0.773981" fill="white" fill-opacity="0.3"/>
<circle cx="78.3734" cy="9.15357" r="0.614725" fill="white" fill-opacity="0.3"/>
<circle cx="121.202" cy="76.2525" r="0.820446" fill="white" fill-opacity="0.5"/>
<circle cx="125.12" cy="5.5812" r="0.593954" fill="white" fill-opacity="0.6"/>
<circle cx="53.076" cy="109.946" r="0.771508" fill="white" fill-opacity="0.3"/>
<circle cx="246.023" cy="161.412" r="0.734636" fill="white" fill-opacity="0.5"/>
<circle cx="126.993" cy="101.579" r="0.692114" fill="white" fill-opacity="0.5"/>
</g>
</g>
<defs>
<clipPath id="clip0_33_5864">
<rect width="361" height="272" fill="white"/>
</clipPath>
</defs>
</svg>
