<svg width="18" height="17" viewBox="0 0 18 17" fill="none" xmlns="http://www.w3.org/2000/svg">
    <path opacity="0.4" fill-rule="evenodd" clip-rule="evenodd"
        d="M2.41241 0.920962C4.89656 -0.602813 7.12508 0.00447571 8.47136 1.01551C8.69284 1.18183 8.84485 1.29567 8.95801 1.37254C9.07117 1.29567 9.22317 1.18183 9.44465 1.01551C10.7909 0.00447571 13.0195 -0.602813 15.5036 0.920962C17.2213 1.9746 18.1878 4.1755 17.8487 6.70426C17.5079 9.24522 15.8632 12.1191 12.3802 14.6971C12.3511 14.7186 12.3222 14.74 12.2935 14.7613C11.0841 15.657 10.2831 16.2503 8.95801 16.2503C7.63296 16.2503 6.83197 15.657 5.62248 14.7613C5.59382 14.74 5.56492 14.7186 5.53579 14.6971C2.05278 12.1191 0.40813 9.24522 0.06734 6.70426C-0.271814 4.1755 0.694712 1.9746 2.41241 0.920962ZM8.82739 1.45308C8.82471 1.45429 8.82519 1.45389 8.82855 1.45254C8.82812 1.45274 8.82773 1.45292 8.82739 1.45308ZM9.08746 1.45254C9.09083 1.45389 9.09131 1.45429 9.08863 1.45308C9.08829 1.45292 9.0879 1.45274 9.08746 1.45254ZM7.72074 2.01504C6.72363 1.26623 5.05127 0.768712 3.066 1.98648C1.85089 2.73182 1.0192 4.39788 1.30625 6.5381C1.59165 8.66612 2.99761 11.2633 6.27945 13.6924C7.59792 14.6682 8.07915 15.0003 8.95801 15.0003C9.83687 15.0003 10.3181 14.6682 11.6366 13.6924C14.9184 11.2633 16.3244 8.66612 16.6098 6.5381C16.8968 4.39788 16.0651 2.73182 14.85 1.98648C12.8647 0.768712 11.1924 1.26623 10.1953 2.01504L10.1779 2.02813C9.95253 2.19735 9.75899 2.3427 9.60417 2.44406C9.5237 2.49674 9.4346 2.55039 9.34212 2.59218C9.25436 2.63184 9.11954 2.68145 8.95801 2.68145C8.79648 2.68145 8.66166 2.63184 8.57389 2.59218C8.48142 2.55039 8.39231 2.49674 8.31185 2.44406C8.15702 2.3427 7.96346 2.19733 7.73813 2.0281L7.72074 2.01504Z"
        fill="#520826" />
    <path fill-rule="evenodd" clip-rule="evenodd"
        d="M2.41241 0.920962C4.89656 -0.602813 7.12508 0.00447571 8.47136 1.01551C8.719 1.20148 8.87978 1.32182 8.99652 1.39825C9.02758 1.41858 9.04987 1.432 9.06494 1.44056C9.35917 1.49129 9.58301 1.74773 9.58301 2.05645C9.58301 2.40163 9.30319 2.68145 8.95801 2.68145C8.79648 2.68145 8.66166 2.63184 8.57389 2.59218C8.48142 2.55039 8.39231 2.49674 8.31185 2.44406C8.15702 2.3427 7.96347 2.19733 7.73813 2.0281L7.72074 2.01504C6.72363 1.26623 5.05127 0.768712 3.066 1.98648C1.85089 2.73182 1.0192 4.39788 1.30625 6.5381C1.59165 8.66612 2.99761 11.2633 6.27945 13.6924C7.59792 14.6682 8.07915 15.0003 8.95801 15.0003C9.30319 15.0003 9.58301 15.2801 9.58301 15.6253C9.58301 15.9704 9.30319 16.2503 8.95801 16.2503C7.63296 16.2503 6.83197 15.657 5.62248 14.7613C5.59382 14.74 5.56492 14.7186 5.53579 14.6971C2.05278 12.1191 0.40813 9.24522 0.06734 6.70426C-0.271814 4.1755 0.694712 1.9746 2.41241 0.920962ZM9.08863 1.45308C9.08829 1.45292 9.0879 1.45274 9.08747 1.45254C9.09083 1.45389 9.09131 1.45429 9.08863 1.45308Z"
        fill="#520826" />
</svg>
