<svg width="24" height="24" viewBox="0 0 24 24" fill="none" xmlns="http://www.w3.org/2000/svg">
<path fill-rule="evenodd" clip-rule="evenodd" d="M12 2.75C6.89137 2.75 2.75 6.89137 2.75 12C2.75 17.1086 6.89137 21.25 12 21.25C17.1086 21.25 21.25 17.1086 21.25 12C21.25 6.89137 17.1086 2.75 12 2.75ZM1.25 12C1.25 6.06294 6.06294 1.25 12 1.25C17.9371 1.25 22.75 6.06294 22.75 12C22.75 17.9371 17.9371 22.75 12 22.75C6.06294 22.75 1.25 17.9371 1.25 12Z" fill="#1F1F1F" fill-opacity="0.87"/>
<g opacity="0.4">
<path d="M11.25 12C11.25 12.4142 11.5858 12.75 12 12.75C12.4142 12.75 12.75 12.4142 12.75 12L12.75 8C12.75 7.58579 12.4142 7.25 12 7.25C11.5858 7.25 11.25 7.58579 11.25 8L11.25 12Z" fill="#1F1F1F" fill-opacity="0.87"/>
<path d="M11.9922 14C11.4399 14 10.9922 14.4477 10.9922 15C10.9922 15.5523 11.4399 16 11.9922 16H12.0012C12.5535 16 13.0012 15.5523 13.0012 15C13.0012 14.4477 12.5535 14 12.0012 14H11.9922Z" fill="#1F1F1F" fill-opacity="0.87"/>
</g>
</svg>
