<svg width="24" height="24" viewBox="0 0 24 24" fill="none" xmlns="http://www.w3.org/2000/svg">
<g opacity="0.4">
<path d="M10.9962 9.00007C10.4439 9.00007 9.99615 9.44778 9.99615 10.0001C9.99615 10.5524 10.4439 11.0001 10.9962 11.0001L11.0111 11.0001C11.5634 11.0001 12.0111 10.5524 12.0111 10.0001C12.0111 9.44778 11.5634 9.00007 11.0111 9.00007L10.9962 9.00007Z" fill="#1F1F1F" fill-opacity="0.66"/>
<path d="M10.9999 15.0001C10.4476 15.0001 9.99986 15.4478 9.99986 16.0001C9.99986 16.5524 10.4476 17.0001 10.9999 17.0001L11.0148 17.0001C11.5671 17.0001 12.0148 16.5524 12.0148 16.0001C12.0148 15.4478 11.5671 15.0001 11.0148 15.0001L10.9999 15.0001Z" fill="#1F1F1F" fill-opacity="0.66"/>
<path d="M7.00006 12.2501C6.58585 12.2501 6.25006 12.5859 6.25006 13.0001C6.25006 13.4143 6.58584 13.7501 7.00006 13.7501L15.0001 13.7501C15.4143 13.7501 15.7501 13.4143 15.7501 13.0001C15.7501 12.5859 15.4143 12.2501 15.0001 12.2501L7.00006 12.2501Z" fill="#1F1F1F" fill-opacity="0.66"/>
</g>
<path fill-rule="evenodd" clip-rule="evenodd" d="M17.5001 8.75019C16.2575 8.75019 15.2501 7.74283 15.2501 6.50019C15.2501 5.25755 16.2575 4.25019 17.5001 4.25019C18.7427 4.25019 19.7501 5.25755 19.7501 6.50019C19.7501 7.74283 18.7427 8.75019 17.5001 8.75019ZM16.7501 6.50019C16.7501 6.9144 17.0859 7.25019 17.5001 7.25019C17.9143 7.25019 18.2501 6.9144 18.2501 6.50019C18.2501 6.08598 17.9143 5.75019 17.5001 5.75019C17.0859 5.75019 16.7501 6.08598 16.7501 6.50019Z" fill="#1F1F1F" fill-opacity="0.66"/>
<path fill-rule="evenodd" clip-rule="evenodd" d="M21.4706 2.52959C20.9664 2.02539 20.2082 1.74421 19.4596 1.57227C18.6862 1.39465 17.801 1.30745 16.931 1.27135C15.1884 1.19906 13.4079 1.32846 12.4978 1.41209C11.9299 1.46427 11.4054 1.69663 10.9832 2.0595C7.83092 4.76882 4.9612 7.57731 2.21553 10.6438C0.959212 12.0469 0.945888 14.1419 2.07719 15.603C3.94293 18.0127 5.98753 20.0573 8.39722 21.923C9.85835 23.0543 11.9533 23.041 13.3564 21.7847C16.4229 19.039 19.2314 16.1693 21.9407 13.017C22.3036 12.5948 22.5359 12.0704 22.5881 11.5024C22.6718 10.5923 22.8012 8.81178 22.7289 7.06926C22.6928 6.19926 22.6056 5.314 22.428 4.54065C22.256 3.79203 21.9748 3.03379 21.4706 2.52959ZM12.635 2.9058C13.5206 2.82443 15.2245 2.70185 16.8688 2.77006C17.6922 2.80422 18.4759 2.8854 19.1238 3.0342C19.7964 3.18869 20.2117 3.39199 20.41 3.59025C20.6082 3.78851 20.8115 4.20379 20.966 4.87642C21.1148 5.52432 21.196 6.30803 21.2302 7.13143C21.2984 8.77571 21.1758 10.4796 21.0944 11.3652C21.072 11.6094 20.9718 11.843 20.8031 12.0393C18.1358 15.1428 15.373 17.9657 12.3558 20.6672C11.5182 21.4172 10.2326 21.447 9.31553 20.737C7.00604 18.9488 5.0514 16.9942 3.26323 14.6847C2.55322 13.7677 2.58306 12.482 3.33303 11.6444C6.03451 8.62727 8.85743 5.86445 11.961 3.19708C12.1572 3.02839 12.3909 2.92823 12.635 2.9058Z" fill="#1F1F1F" fill-opacity="0.66"/>
</svg>
