<svg width="16" height="16" viewBox="0 0 16 16" fill="none" xmlns="http://www.w3.org/2000/svg">
<path d="M5.70498 11.597C5.81257 11.5158 6.13373 11.2732 6.31887 11.1287C6.68968 10.8393 7.1824 10.4439 7.67366 10.0174C8.16741 9.58867 8.64827 9.13833 9.00177 8.73826C9.17902 8.53765 9.31371 8.36142 9.40137 8.216C9.48382 8.07923 9.50097 7.99844 9.50097 7.99844C9.50097 7.99844 9.48382 7.92003 9.40138 7.78327C9.31371 7.63785 9.17902 7.46162 9.00177 7.26102C8.64827 6.86094 8.16741 6.4106 7.67366 5.98191C7.18239 5.55537 6.68966 5.15996 6.31885 4.87058C6.1337 4.7261 5.81299 4.48383 5.70541 4.40257C5.48306 4.23882 5.4351 3.92548 5.59886 3.70313C5.76262 3.48078 6.07561 3.43328 6.29796 3.59704L6.29966 3.59832C6.41249 3.68354 6.74517 3.93481 6.93407 4.08223C7.31326 4.37815 7.82053 4.7851 8.32927 5.22681C8.83552 5.66635 9.35465 6.15013 9.75115 6.59888C9.9489 6.82268 10.1267 7.04954 10.2578 7.26698C10.3806 7.4707 10.5015 7.72863 10.5015 7.99964C10.5015 8.27064 10.3806 8.52857 10.2578 8.73229C10.1267 8.94973 9.9489 9.17659 9.75115 9.40039C9.35465 9.84914 8.83552 10.3329 8.32928 10.7725C7.82055 11.2142 7.31328 11.6211 6.9341 11.917C6.74506 12.0646 6.41238 12.3158 6.29977 12.4009L6.29831 12.402C6.07597 12.5658 5.76265 12.5185 5.59889 12.2961C5.43514 12.0738 5.48265 11.7608 5.70498 11.597Z" fill="#1F1F1F" fill-opacity="0.66"/>
</svg>
