<svg width="18" height="18" viewBox="0 0 18 18" fill="none" xmlns="http://www.w3.org/2000/svg">
    <path fill-rule="evenodd" clip-rule="evenodd"
        d="M3.98883 3.28005e-07H3.92792C3.31197 -9.85753e-06 2.80569 -1.82291e-05 2.39612 0.0389247C1.9705 0.0793921 1.58522 0.166279 1.23476 0.381042C0.886825 0.594254 0.594295 0.886785 0.381082 1.23472C0.166319 1.58518 0.0794322 1.97046 0.0389647 2.39608C2.18252e-05 2.80566 3.01968e-05 3.31192 4.03823e-05 3.92787V3.98879C3.01968e-05 4.60474 2.18252e-05 5.11101 0.0389647 5.52059C0.0794322 5.9462 0.166319 6.33149 0.381082 6.68195C0.594294 7.02988 0.886825 7.32241 1.23476 7.53563C1.58522 7.75039 1.9705 7.83728 2.39612 7.87774C2.80569 7.91669 3.31195 7.91668 3.9279 7.91667H3.98884C4.60479 7.91668 5.11106 7.91669 5.52063 7.87774C5.94624 7.83728 6.33153 7.75039 6.68199 7.53563C7.02992 7.32241 7.32245 7.02988 7.53567 6.68195C7.75043 6.33149 7.83732 5.9462 7.87778 5.52059C7.91673 5.11102 7.91672 4.60476 7.91671 3.98881V3.92787C7.91672 3.31192 7.91673 2.80565 7.87778 2.39608C7.83732 1.97046 7.75043 1.58518 7.53567 1.23472C7.32245 0.886785 7.02992 0.594254 6.68199 0.381042C6.33153 0.166279 5.94624 0.0793921 5.52063 0.0389247C5.11105 -1.82291e-05 4.60478 -9.85751e-06 3.98883 3.28005e-07ZM1.88788 1.44684C2.00893 1.37266 2.18032 1.31508 2.51443 1.28331C2.85785 1.25066 3.30442 1.25 3.95837 1.25C4.61233 1.25 5.0589 1.25066 5.40231 1.28331C5.73643 1.31508 5.90782 1.37266 6.02887 1.44684C6.20861 1.55699 6.35972 1.7081 6.46987 1.88784C6.54404 2.00889 6.60163 2.18028 6.6334 2.51439C6.66605 2.85781 6.66671 3.30438 6.66671 3.95833C6.66671 4.61229 6.66605 5.05886 6.6334 5.40227C6.60163 5.73639 6.54404 5.90778 6.46987 6.02883C6.35972 6.20857 6.20861 6.35968 6.02887 6.46983C5.90782 6.544 5.73643 6.60159 5.40231 6.63336C5.0589 6.66601 4.61233 6.66667 3.95837 6.66667C3.30442 6.66667 2.85785 6.66601 2.51443 6.63336C2.18032 6.60159 2.00893 6.544 1.88788 6.46983C1.70814 6.35968 1.55703 6.20857 1.44688 6.02883C1.3727 5.90778 1.31512 5.73639 1.28335 5.40227C1.2507 5.05886 1.25004 4.61229 1.25004 3.95833C1.25004 3.30438 1.2507 2.85781 1.28335 2.51439C1.31512 2.18028 1.3727 2.00889 1.44688 1.88784C1.55702 1.7081 1.70814 1.55698 1.88788 1.44684Z"
        fill="white" fill-opacity="0.87" />
    <path fill-rule="evenodd" clip-rule="evenodd"
        d="M13.9888 10H13.9279C13.312 9.99999 12.8057 9.99998 12.3961 10.0389C11.9705 10.0794 11.5852 10.1663 11.2348 10.381C10.8868 10.5943 10.5943 10.8868 10.3811 11.2347C10.1663 11.5852 10.0794 11.9705 10.039 12.3961C10 12.8057 10 13.3119 10 13.9279V13.9888C10 14.6047 10 15.111 10.039 15.5206C10.0794 15.9462 10.1663 16.3315 10.3811 16.6819C10.5943 17.0299 10.8868 17.3224 11.2348 17.5356C11.5852 17.7504 11.9705 17.8373 12.3961 17.8777C12.8057 17.9167 13.312 17.9167 13.9279 17.9167H13.9888C14.6048 17.9167 15.1111 17.9167 15.5206 17.8777C15.9462 17.8373 16.3315 17.7504 16.682 17.5356C17.0299 17.3224 17.3225 17.0299 17.5357 16.6819C17.7504 16.3315 17.8373 15.9462 17.8778 15.5206C17.9167 15.111 17.9167 14.6048 17.9167 13.9888V13.9279C17.9167 13.3119 17.9167 12.8057 17.8778 12.3961C17.8373 11.9705 17.7504 11.5852 17.5357 11.2347C17.3225 10.8868 17.0299 10.5943 16.682 10.381C16.3315 10.1663 15.9462 10.0794 15.5206 10.0389C15.1111 9.99998 14.6048 9.99999 13.9888 10ZM11.8879 11.4468C12.0089 11.3727 12.1803 11.3151 12.5144 11.2833C12.8578 11.2507 13.3044 11.25 13.9584 11.25C14.6123 11.25 15.0589 11.2507 15.4023 11.2833C15.7364 11.3151 15.9078 11.3727 16.0289 11.4468C16.2086 11.557 16.3597 11.7081 16.4699 11.8878C16.544 12.0089 16.6016 12.1803 16.6334 12.5144C16.666 12.8578 16.6667 13.3044 16.6667 13.9583C16.6667 14.6123 16.666 15.0589 16.6334 15.4023C16.6016 15.7364 16.544 15.9078 16.4699 16.0288C16.3597 16.2086 16.2086 16.3597 16.0289 16.4698C15.9078 16.544 15.7364 16.6016 15.4023 16.6334C15.0589 16.666 14.6123 16.6667 13.9584 16.6667C13.3044 16.6667 12.8578 16.666 12.5144 16.6334C12.1803 16.6016 12.0089 16.544 11.8879 16.4698C11.7081 16.3597 11.557 16.2086 11.4469 16.0288C11.3727 15.9078 11.3151 15.7364 11.2834 15.4023C11.2507 15.0589 11.25 14.6123 11.25 13.9583C11.25 13.3044 11.2507 12.8578 11.2834 12.5144C11.3151 12.1803 11.3727 12.0089 11.4469 11.8878C11.557 11.7081 11.7081 11.557 11.8879 11.4468Z"
        fill="white" fill-opacity="0.87" />
    <g opacity="0.4">
        <path fill-rule="evenodd" clip-rule="evenodd"
            d="M13.9888 3.2817e-07H13.9279C13.312 -9.85727e-06 12.8057 -1.84495e-05 12.3961 0.0389247C11.9705 0.0793921 11.5852 0.166279 11.2348 0.381042C10.8868 0.594254 10.5943 0.886785 10.3811 1.23472C10.1663 1.58518 10.0794 1.97046 10.039 2.39608C10 2.80565 10 3.31192 10 3.92787V3.98879C10 4.60474 10 5.11101 10.039 5.52059C10.0794 5.9462 10.1663 6.33149 10.3811 6.68195C10.5943 7.02988 10.8868 7.32241 11.2348 7.53563C11.5852 7.75039 11.9705 7.83728 12.3961 7.87774C12.8057 7.91669 13.312 7.91668 13.9279 7.91667H13.9888C14.6048 7.91668 15.1111 7.91669 15.5206 7.87774C15.9462 7.83728 16.3315 7.75039 16.682 7.53563C17.0299 7.32241 17.3225 7.02988 17.5357 6.68195C17.7504 6.33149 17.8373 5.9462 17.8778 5.52059C17.9167 5.11101 17.9167 4.60475 17.9167 3.9888V3.92787C17.9167 3.31192 17.9167 2.80565 17.8778 2.39608C17.8373 1.97046 17.7504 1.58518 17.5357 1.23472C17.3225 0.886785 17.0299 0.594254 16.682 0.381042C16.3315 0.166279 15.9462 0.0793921 15.5206 0.0389247C15.1111 -1.83998e-05 14.6048 -9.85727e-06 13.9888 3.2817e-07ZM11.8879 1.44684C12.0089 1.37266 12.1803 1.31508 12.5144 1.28331C12.8578 1.25066 13.3044 1.25 13.9584 1.25C14.6123 1.25 15.0589 1.25066 15.4023 1.28331C15.7364 1.31508 15.9078 1.37266 16.0289 1.44684C16.2086 1.55699 16.3597 1.7081 16.4699 1.88784C16.544 2.00889 16.6016 2.18028 16.6334 2.51439C16.666 2.85781 16.6667 3.30438 16.6667 3.95833C16.6667 4.61229 16.666 5.05886 16.6334 5.40227C16.6016 5.73639 16.544 5.90778 16.4699 6.02883C16.3597 6.20857 16.2086 6.35968 16.0289 6.46983C15.9078 6.544 15.7364 6.60159 15.4023 6.63336C15.0589 6.66601 14.6123 6.66667 13.9584 6.66667C13.3044 6.66667 12.8578 6.66601 12.5144 6.63336C12.1803 6.60159 12.0089 6.544 11.8879 6.46983C11.7081 6.35968 11.557 6.20857 11.4469 6.02883C11.3727 5.90778 11.3151 5.73639 11.2834 5.40227C11.2507 5.05886 11.25 4.61229 11.25 3.95833C11.25 3.30438 11.2507 2.85781 11.2834 2.51439C11.3151 2.18028 11.3727 2.00889 11.4469 1.88784C11.557 1.7081 11.7081 1.55698 11.8879 1.44684Z"
            fill="white" fill-opacity="0.87" />
        <path fill-rule="evenodd" clip-rule="evenodd"
            d="M3.98883 10H3.92792C3.31197 9.99999 2.80569 9.99998 2.39612 10.0389C1.9705 10.0794 1.58522 10.1663 1.23476 10.381C0.886825 10.5943 0.594295 10.8868 0.381082 11.2347C0.166319 11.5852 0.0794322 11.9705 0.0389647 12.3961C2.16545e-05 12.8057 3.01971e-05 13.3119 4.03825e-05 13.9279V13.9888C3.01971e-05 14.6047 2.16048e-05 15.111 0.0389647 15.5206C0.0794322 15.9462 0.166319 16.3315 0.381082 16.6819C0.594294 17.0299 0.886825 17.3224 1.23476 17.5356C1.58522 17.7504 1.9705 17.8373 2.39612 17.8777C2.80569 17.9167 3.31196 17.9167 3.92791 17.9167H3.98884C4.60479 17.9167 5.11105 17.9167 5.52063 17.8777C5.94624 17.8373 6.33153 17.7504 6.68199 17.5356C7.02992 17.3224 7.32245 17.0299 7.53567 16.6819C7.75043 16.3315 7.83732 15.9462 7.87778 15.5206C7.91673 15.111 7.91672 14.6048 7.91671 13.9888V13.9279C7.91672 13.3119 7.91673 12.8057 7.87778 12.3961C7.83732 11.9705 7.75043 11.5852 7.53567 11.2347C7.32245 10.8868 7.02992 10.5943 6.68199 10.381C6.33153 10.1663 5.94624 10.0794 5.52063 10.0389C5.11105 9.99998 4.60478 9.99999 3.98883 10ZM1.88788 11.4468C2.00893 11.3727 2.18032 11.3151 2.51443 11.2833C2.85785 11.2507 3.30442 11.25 3.95837 11.25C4.61233 11.25 5.0589 11.2507 5.40231 11.2833C5.73643 11.3151 5.90782 11.3727 6.02887 11.4468C6.20861 11.557 6.35972 11.7081 6.46987 11.8878C6.54404 12.0089 6.60163 12.1803 6.6334 12.5144C6.66605 12.8578 6.66671 13.3044 6.66671 13.9583C6.66671 14.6123 6.66605 15.0589 6.6334 15.4023C6.60163 15.7364 6.54404 15.9078 6.46987 16.0288C6.35972 16.2086 6.20861 16.3597 6.02887 16.4698C5.90782 16.544 5.73643 16.6016 5.40231 16.6334C5.0589 16.666 4.61233 16.6667 3.95837 16.6667C3.30442 16.6667 2.85785 16.666 2.51443 16.6334C2.18032 16.6016 2.00893 16.544 1.88788 16.4698C1.70814 16.3597 1.55703 16.2086 1.44688 16.0288C1.3727 15.9078 1.31512 15.7364 1.28335 15.4023C1.2507 15.0589 1.25004 14.6123 1.25004 13.9583C1.25004 13.3044 1.2507 12.8578 1.28335 12.5144C1.31512 12.1803 1.3727 12.0089 1.44688 11.8878C1.55702 11.7081 1.70814 11.557 1.88788 11.4468Z"
            fill="white" fill-opacity="0.87" />
    </g>
</svg>
