<svg width="24" height="24" viewBox="0 0 24 24" fill="none" xmlns="http://www.w3.org/2000/svg">
<path opacity="0.4" d="M1.25 12C1.25 6.06294 6.06294 1.25 12 1.25C17.9371 1.25 22.75 6.06294 22.75 12C22.75 17.9371 17.9371 22.75 12 22.75C6.06294 22.75 1.25 17.9371 1.25 12Z" fill="#520826"/>
<path d="M11.985 5.25C10.1892 5.25 8.73145 6.70407 8.73145 8.5C8.73145 10.2959 10.1892 11.75 11.985 11.75C13.7809 11.75 15.2386 10.2959 15.2386 8.5C15.2386 6.70407 13.7809 5.25 11.985 5.25Z" fill="#520826"/>
<path d="M17.0343 15.4802C14.3669 12.6002 9.56813 12.7487 6.95723 15.4756L6.76972 15.6631C6.62445 15.8084 6.54513 16.0069 6.55029 16.2123C6.55545 16.4177 6.64463 16.612 6.79701 16.7498C8.1711 17.9923 9.99471 18.75 11.9935 18.75C13.9923 18.75 15.8159 17.9923 17.19 16.7498C17.3424 16.612 17.4316 16.4177 17.4367 16.2123C17.4419 16.0069 17.3626 15.8084 17.2173 15.6631L17.0343 15.4802Z" fill="#520826"/>
</svg>
