<svg width="64" height="64" viewBox="0 0 64 64" fill="none" xmlns="http://www.w3.org/2000/svg">
    <path
        d="M21 19.0003C21 13.1093 25.7756 8.33363 31.6666 8.33363C37.5577 8.33363 42.3333 13.1093 42.3333 19.0003L42.3333 20.3336C42.3333 21.8064 43.5272 23.0003 45 23.0003C46.4727 23.0003 47.6666 21.8064 47.6666 20.3336L47.6666 19.0003C47.6666 10.1637 40.5032 3.00029 31.6666 3.0003C22.8301 3.0003 15.6666 10.1637 15.6666 19.0003L15.6666 20.3336C15.6666 21.8064 16.8605 23.0003 18.3333 23.0003C19.8061 23.0003 21 21.8064 21 20.3336L21 19.0003Z"
        fill="#520826" />
    <path
        d="M58.8856 41.5526C59.927 40.5112 59.927 38.8227 58.8856 37.7813C57.8442 36.7399 56.1558 36.7399 55.1144 37.7813L47.6666 45.2291L40.2189 37.7813C39.1775 36.7399 37.4891 36.7399 36.4477 37.7813C35.4063 38.8227 35.4063 40.5112 36.4477 41.5526L43.8954 49.0003L36.4477 56.448C35.4063 57.4894 35.4063 59.1779 36.4477 60.2193C37.4891 61.2606 39.1775 61.2606 40.2189 60.2193L47.6666 52.7715L55.1144 60.2193C56.1558 61.2606 57.8442 61.2606 58.8856 60.2193C59.927 59.1779 59.927 57.4894 58.8856 56.448L51.4379 49.0003L58.8856 41.5526Z"
        fill="#520826" />
    <path opacity="0.4"
        d="M11.7612 17.6666C10.4486 17.6665 9.25274 17.6663 8.29554 17.8063C7.24312 17.9601 6.12206 18.3281 5.28668 19.3481C4.46042 20.357 4.3064 21.5257 4.33692 22.5884C4.36512 23.5701 4.56667 24.7717 4.79101 26.1091L8.04323 45.5095C8.55698 48.5745 8.97254 51.0536 9.54436 52.9919C10.1385 55.0058 10.9649 56.675 12.4522 57.9635C13.9455 59.2573 15.703 59.8191 17.7558 60.0819C19.7198 60.3334 22.1743 60.3334 25.1907 60.3333H29.794C30.7078 60.3333 31.1647 60.3333 31.3979 60.1052C31.6312 59.8771 31.6435 59.3133 31.6683 58.1859C31.7047 56.5292 32.3551 54.8835 33.6193 53.6192L37.1072 50.1313C37.6406 49.598 37.9072 49.3313 37.9072 49C37.9072 48.6686 37.6406 48.4019 37.1072 47.8686L33.6193 44.3807C31.0158 41.7772 31.0158 37.5561 33.6193 34.9526C36.2228 32.3491 40.4439 32.3491 43.0474 34.9526L46.5353 38.4405C47.0687 38.9738 47.3353 39.2405 47.6667 39.2405C47.9981 39.2405 48.2647 38.9738 48.7981 38.4405L52.286 34.9526C53.321 33.9175 54.6117 33.294 55.9548 33.0819C56.7169 32.9616 57.098 32.9014 57.2813 32.7198C57.4646 32.5382 57.5173 32.2241 57.6226 31.5958L58.5424 26.109C58.7667 24.7716 58.9683 23.5701 58.9965 22.5884C59.027 21.5257 58.873 20.357 58.0467 19.3481C57.2113 18.3281 56.0903 17.9601 55.0378 17.8063C54.0807 17.6663 52.8848 17.6665 51.5722 17.6666L11.7612 17.6666Z"
        fill="#520826" />
</svg>
