<svg width="24" height="24" viewBox="0 0 24 24" fill="none" xmlns="http://www.w3.org/2000/svg">
<g opacity="0.4">
<path d="M10.5 1.25C7.60051 1.25 5.25 3.6005 5.25 6.5V9.5C5.25 9.91421 5.58579 10.25 6 10.25C6.41421 10.25 6.75 9.91421 6.75 9.5V6.5C6.75 4.42893 8.42893 2.75 10.5 2.75C12.5711 2.75 14.25 4.42893 14.25 6.5V9C14.25 9.41421 14.5858 9.75 15 9.75C15.4142 9.75 15.75 9.41421 15.75 9V6.5C15.75 3.6005 13.3995 1.25 10.5 1.25Z" fill="#1F1F1F" fill-opacity="0.87"/>
<path d="M17.25 16.6667C17.25 16.2525 16.9142 15.9167 16.5 15.9167C16.0858 15.9167 15.75 16.2525 15.75 16.6667V17.25H15.1667C14.7525 17.25 14.4167 17.5858 14.4167 18C14.4167 18.4142 14.7525 18.75 15.1667 18.75H15.75V19.3333C15.75 19.7475 16.0858 20.0833 16.5 20.0833C16.9142 20.0833 17.25 19.7475 17.25 19.3333V18.75H17.8333C18.2475 18.75 18.5833 18.4142 18.5833 18C18.5833 17.5858 18.2475 17.25 17.8333 17.25H17.25V16.6667Z" fill="#1F1F1F" fill-opacity="0.87"/>
<path fill-rule="evenodd" clip-rule="evenodd" d="M16.5 13.25C13.8766 13.25 11.75 15.3766 11.75 18C11.75 20.6234 13.8766 22.75 16.5 22.75C19.1234 22.75 21.25 20.6234 21.25 18C21.25 15.3766 19.1234 13.25 16.5 13.25ZM13.25 18C13.25 16.2051 14.7051 14.75 16.5 14.75C18.2949 14.75 19.75 16.2051 19.75 18C19.75 19.7949 18.2949 21.25 16.5 21.25C14.7051 21.25 13.25 19.7949 13.25 18Z" fill="#1F1F1F" fill-opacity="0.87"/>
</g>
<path fill-rule="evenodd" clip-rule="evenodd" d="M2.75 15C2.75 10.7232 6.20111 7.25 10.466 7.25C13.0244 7.25 15.507 8.33695 16.6708 10.6646C16.8561 11.0351 16.7059 11.4856 16.3354 11.6708C15.9649 11.8561 15.5144 11.7059 15.3292 11.3354C14.493 9.66305 12.6419 8.75 10.466 8.75C7.03642 8.75 4.25 11.5448 4.25 15C4.25 18.4552 7.03642 21.25 10.466 21.25C10.6155 21.25 10.7638 21.2447 10.9105 21.2343C11.3236 21.205 11.6823 21.5162 11.7117 21.9294C11.741 22.3425 11.4298 22.7012 11.0166 22.7305C10.8346 22.7434 10.651 22.75 10.466 22.75C6.20111 22.75 2.75 19.2768 2.75 15Z" fill="#1F1F1F" fill-opacity="0.87"/>
</svg>
