<svg width="48" height="48" viewBox="0 0 48 48" fill="none" xmlns="http://www.w3.org/2000/svg">
<path opacity="0.4" d="M21 14.5C12.4396 14.5 5.5 21.4396 5.5 30C5.5 38.5604 12.4396 45.5 21 45.5C21.4093 45.5 21.815 45.4841 22.2163 45.453C23.1357 45.3816 23.5954 45.3459 23.7422 45.0241C23.889 44.7023 23.5752 44.2786 22.9477 43.4311C21.4096 41.3539 20.5 38.7832 20.5 36C20.5 29.0964 26.0964 23.5 33 23.5C33.9735 23.5 34.4603 23.5 34.6382 23.231C34.6559 23.2042 34.6708 23.1772 34.6841 23.1479C34.8174 22.8543 34.5911 22.4937 34.1386 21.7725C31.3973 17.4041 26.5378 14.5 21 14.5Z" fill="#520826"/>
<path d="M10 13.5C10 7.42487 14.9249 2.5 21 2.5C27.0751 2.5 32 7.42487 32 13.5V19.0798C30.8366 17.908 29.4873 16.9211 28 16.1669V13.5C28 9.63401 24.866 6.5 21 6.5C17.134 6.5 14 9.63401 14 13.5V16.1669C12.5127 16.9211 11.1634 17.908 10 19.0798V13.5Z" fill="#520826"/>
<path fill-rule="evenodd" clip-rule="evenodd" d="M23.5 36C23.5 30.7533 27.7533 26.5 33 26.5C38.2467 26.5 42.5 30.7533 42.5 36C42.5 41.2467 38.2467 45.5 33 45.5C27.7533 45.5 23.5 41.2467 23.5 36ZM29.9399 32.9387C30.526 32.3533 31.4758 32.3538 32.0613 32.9399L32.9989 33.8787L33.94 32.9387C34.5261 32.3533 35.4758 32.3538 36.0613 32.94C36.6467 33.5261 36.6462 34.4758 36.06 35.0613L35.1202 36L36.0601 36.9387C36.6462 37.5242 36.6467 38.474 36.0613 39.0601C35.4758 39.6462 34.526 39.6467 33.9399 39.0613L32.9989 38.1213L32.0613 39.06C31.4758 39.6462 30.5261 39.6467 29.94 39.0613C29.3538 38.4758 29.3533 37.5261 29.9387 36.94L30.8776 36L29.9387 35.0601C29.3533 34.474 29.3538 33.5242 29.9399 32.9387Z" fill="#520826"/>
</svg>
