<svg width="18" height="18" viewBox="0 0 18 18" fill="none" xmlns="http://www.w3.org/2000/svg">
    <path fill-rule="evenodd" clip-rule="evenodd"
        d="M2.84106 5C2.37135 5 1.96104 5.01767 1.61447 5.07419C1.26939 5.13046 0.936591 5.2328 0.660126 5.43901C0.0611312 5.88577 -0.0119094 6.60725 0.00137601 7.30369C0.0628632 10.5269 0.474895 13.8649 3.53268 16.2159C3.98999 16.5675 4.43327 16.7933 4.93524 16.9247C5.42451 17.0528 5.9413 17.0833 6.52561 17.0833H8.05787C8.64218 17.0833 9.15896 17.0528 9.64824 16.9247C10.1502 16.7933 10.5935 16.5675 11.0508 16.2159C12.0112 15.4775 12.7106 14.6417 13.2201 13.7427C13.2246 13.742 13.2292 13.7413 13.2337 13.7405C15.0022 13.4283 16.1802 12.6856 16.9148 11.709C17.6401 10.7447 17.8809 9.62153 17.9143 8.6326C17.9351 8.01934 17.8276 7.38889 17.2354 7.01225C16.979 6.84913 16.6802 6.76903 16.3788 6.72497C16.0743 6.68048 15.7207 6.66667 15.3253 6.66667H14.5575C14.5016 6.1919 14.3393 5.74923 13.9233 5.43901C13.6469 5.2328 13.3141 5.13046 12.969 5.07419C12.6224 5.01767 12.2121 5 11.7424 5H2.84106ZM1.25115 7.27984C1.23806 6.59393 1.35245 6.48203 1.40747 6.441C1.458 6.4033 1.56885 6.34814 1.81566 6.30789C2.06098 6.26788 2.3908 6.25 2.84106 6.25H11.7424C12.1927 6.25 12.5225 6.26788 12.7678 6.30789C13.0146 6.34814 13.1255 6.4033 13.176 6.441C13.231 6.48203 13.3454 6.59393 13.3323 7.27984C13.2717 10.4565 12.8551 13.2519 10.2889 15.2249C9.94596 15.4886 9.65149 15.6317 9.33165 15.7155C8.99913 15.8025 8.61005 15.8333 8.05787 15.8333H6.52561C5.97343 15.8333 5.58435 15.8025 5.25182 15.7155C4.93199 15.6317 4.63752 15.4886 4.29458 15.2249C1.72834 13.2519 1.31175 10.4565 1.25115 7.27984ZM14.5656 7.91667H15.3253C15.7013 7.91667 15.9836 7.93051 16.198 7.96183C16.4153 7.99359 16.5182 8.03747 16.5646 8.06699L16.5673 8.06848C16.5882 8.07968 16.6806 8.12925 16.665 8.59038C16.637 9.42111 16.4368 10.265 15.9158 10.9576C15.5086 11.499 14.8724 11.9921 13.8668 12.3057C14.3545 10.9049 14.5126 9.40601 14.5656 7.91667Z"
        fill="#1F1F1F" fill-opacity="0.66" />
    <g opacity="0.4">
        <path fill-rule="evenodd" clip-rule="evenodd"
            d="M7.91709 5.625C7.91709 5.27982 7.63727 5 7.29209 5C6.94691 5 6.66709 5.27982 6.66709 5.625V9.28382C6.16399 9.47916 5.7621 9.90735 5.67151 10.4819L5.42825 12.0249C5.37936 12.3349 5.49489 12.5991 5.65934 12.7828C5.80911 12.95 5.99996 13.0556 6.16465 13.1241C6.4981 13.2628 6.90907 13.3253 7.28499 13.3326C7.65854 13.3399 8.07804 13.2942 8.42171 13.1547C8.59346 13.0849 8.79271 12.973 8.94495 12.7882C9.11321 12.5839 9.20001 12.3167 9.154 12.0249L8.91074 10.4819C8.82026 9.90808 8.41928 9.48025 7.91709 9.28457V5.625ZM6.90626 10.6766C6.92275 10.572 7.0487 10.4167 7.29112 10.4167C7.53355 10.4167 7.6595 10.572 7.67599 10.6766L7.88761 12.0188C7.75248 12.0596 7.54793 12.0875 7.30926 12.0828C7.06415 12.0781 6.84557 12.0402 6.69912 11.9904L6.90626 10.6766Z"
            fill="#1F1F1F" fill-opacity="0.66" />
        <path
            d="M8.71192 1.15645C9.00539 0.974715 9.09596 0.589492 8.91423 0.296028C8.73249 0.00256461 8.34727 -0.0880098 8.05381 0.093724C7.69361 0.316786 7.35388 0.738213 7.10746 1.23395C6.853 1.74583 6.66812 2.39495 6.66812 3.12509C6.66812 3.47026 6.94794 3.75009 7.29312 3.75009C7.6383 3.75009 7.91812 3.47026 7.91812 3.12509C7.91812 2.60522 8.05029 2.14543 8.22679 1.79036C8.41132 1.41913 8.61647 1.21556 8.71192 1.15645Z"
            fill="#1F1F1F" fill-opacity="0.66" />
        <path fill-rule="evenodd" clip-rule="evenodd"
            d="M11.1578 1.54603C11.3258 1.81724 11.2611 2.16682 11.0187 2.36173L11.0136 2.37092C10.9892 2.41555 10.9586 2.48756 10.9287 2.58334C10.8672 2.77993 10.8338 2.99338 10.8338 3.12509C10.8338 3.47026 10.5539 3.75009 10.2088 3.75009C9.86357 3.75009 9.58375 3.47026 9.58375 3.12509C9.58375 2.84013 9.64528 2.49912 9.73567 2.21014C9.78166 2.06315 9.84126 1.9096 9.91656 1.77173C9.98233 1.65132 10.1008 1.46548 10.2974 1.34372C10.5909 1.16199 10.9761 1.25256 11.1578 1.54603Z"
            fill="#1F1F1F" fill-opacity="0.66" />
        <path
            d="M5.70033 1.45033C5.93186 1.70026 5.92016 2.08873 5.67635 2.32435C5.67372 2.32715 5.66699 2.33454 5.65734 2.34647C5.63639 2.37235 5.60258 2.41844 5.56697 2.48443C5.49696 2.61415 5.41708 2.82547 5.41708 3.12509C5.41708 3.47026 5.13726 3.75009 4.79208 3.75009C4.44691 3.75009 4.16708 3.47026 4.16708 3.12509C4.16708 2.59137 4.31208 2.17769 4.46695 1.89074C4.54378 1.7484 4.62241 1.63824 4.6858 1.55995C4.71754 1.52074 4.74567 1.48926 4.76814 1.46547C4.77939 1.45356 4.78925 1.44354 4.79748 1.43541L4.80859 1.42461L4.81317 1.42026L4.81521 1.41834L4.81617 1.41745C4.8164 1.41724 4.81709 1.4166 5.24184 1.87509L4.81709 1.4166C5.0703 1.18201 5.46574 1.19712 5.70033 1.45033Z"
            fill="#1F1F1F" fill-opacity="0.66" />
    </g>
</svg>
