<svg width="17" height="18" viewBox="0 0 17 18" fill="none" xmlns="http://www.w3.org/2000/svg">
<path opacity="0.4" fill-rule="evenodd" clip-rule="evenodd" d="M14.4136 2.9182C14.7581 2.9395 15.0201 3.23606 14.9988 3.58058L14.4804 11.9671C14.4161 13.007 14.3651 13.8322 14.2605 14.4914C14.1533 15.1674 13.9817 15.7303 13.6383 16.2227C13.3242 16.6732 12.9198 17.0534 12.4508 17.3391C11.9381 17.6514 11.3657 17.788 10.6843 17.8533C10.02 17.917 9.19316 17.917 8.15128 17.917H8.08661C7.04335 17.917 6.2155 17.917 5.55034 17.8532C4.86821 17.7878 4.29513 17.6509 3.78212 17.338C3.31281 17.0518 2.90826 16.6709 2.59426 16.2197C2.25101 15.7265 2.07989 15.1627 1.97347 14.4858C1.86969 13.8256 1.8198 12.9993 1.75694 11.9579L1.25116 3.57968C1.23036 3.23512 1.49281 2.93895 1.83736 2.91815C2.18191 2.89735 2.47808 3.1598 2.49888 3.50435L3.00272 11.8503C3.06798 12.9312 3.11492 13.6977 3.2083 14.2916C3.3001 14.8755 3.42866 15.2304 3.62026 15.5057C3.83511 15.8144 4.1119 16.075 4.43301 16.2709C4.71937 16.4455 5.08132 16.5525 5.66971 16.6089C6.26821 16.6663 7.03614 16.667 8.11897 16.667C9.20039 16.667 9.96728 16.6663 10.565 16.609C11.1527 16.5527 11.5143 16.446 11.8004 16.2716C12.1213 16.0761 12.3981 15.816 12.613 15.5078C12.8046 15.2329 12.9335 14.8786 13.026 14.2955C13.1201 13.7024 13.168 12.9371 13.2348 11.8577L13.7512 3.50345C13.7725 3.15893 14.0691 2.89691 14.4136 2.9182Z" fill="#E54F40"/>
<path fill-rule="evenodd" clip-rule="evenodd" d="M8.12828 5.11215e-07H8.18165C8.59232 -1.12607e-05 8.94092 -2.1245e-05 9.23065 0.0258923C9.53821 0.0534008 9.82493 0.112956 10.1035 0.257471C10.2136 0.314582 10.3188 0.380533 10.4182 0.454674C10.6698 0.642289 10.8484 0.874311 11.0073 1.13907C11.1571 1.38848 11.3091 1.70219 11.4883 2.07175L11.8978 2.91667H15.625C15.9702 2.91667 16.25 3.19649 16.25 3.54167C16.25 3.88685 15.9702 4.16667 15.625 4.16667H11.52C11.5111 4.16686 11.5022 4.16686 11.4934 4.16667H4.85063C4.84147 4.16687 4.83229 4.16687 4.8231 4.16667H0.625C0.279822 4.16667 0 3.88685 0 3.54167C0 3.19649 0.279822 2.91667 0.625 2.91667H4.43526L4.78445 2.15062C4.95909 1.76746 5.10723 1.44246 5.25473 1.18394C5.41124 0.90961 5.5892 0.668735 5.84379 0.473423C5.94427 0.396339 6.05096 0.327718 6.16278 0.268263C6.44609 0.117616 6.73908 0.0555972 7.05362 0.0269624C7.35003 -2.19389e-05 7.70721 -1.16084e-05 8.12828 5.11215e-07ZM5.809 2.91667H10.5087L10.3749 2.64074C10.1812 2.24105 10.0531 1.97818 9.93559 1.78236C9.82407 1.59657 9.74529 1.51215 9.6709 1.45667C9.62571 1.42297 9.57787 1.39299 9.52783 1.36703C9.44546 1.3243 9.33513 1.29023 9.1193 1.27092C8.89182 1.25058 8.59941 1.25 8.15524 1.25C7.69997 1.25 7.4 1.2506 7.16695 1.27181C6.94572 1.29195 6.83323 1.32749 6.74963 1.37194C6.69881 1.39896 6.65031 1.43016 6.60464 1.46519C6.52952 1.52282 6.45053 1.61044 6.34044 1.80339C6.22447 2.00665 6.09951 2.27935 5.91068 2.69362L5.809 2.91667Z" fill="#E54F40"/>
</svg>
