<svg width="20" height="20" viewBox="0 0 20 20" fill="none" xmlns="http://www.w3.org/2000/svg">
<path d="M3.45416 2.79596C5.93831 1.27219 8.16683 1.87948 9.51311 2.89051C9.73459 3.05683 9.8866 3.17067 9.99975 3.24754C10.1129 3.17067 10.2649 3.05683 10.4864 2.89051C11.8327 1.87948 14.0612 1.27219 16.5454 2.79596C18.2631 3.8496 19.2296 6.0505 18.8904 8.57926C18.5496 11.1202 16.905 13.9941 13.422 16.5721C12.2125 17.4678 11.3248 18.1253 9.99976 18.1253C8.67471 18.1253 7.78702 17.4678 6.57754 16.5721C3.09453 13.9941 1.44988 11.1202 1.10909 8.57926C0.769934 6.0505 1.73646 3.8496 3.45416 2.79596Z" fill="#520826"/>
</svg>
