<svg width="28" height="28" viewBox="0 0 28 28" fill="none" xmlns="http://www.w3.org/2000/svg">
<path d="M4.83662 3.91407C8.31442 1.78079 11.4344 2.63099 13.3192 4.04643C13.6292 4.27929 13.842 4.43866 14.0005 4.54628C14.1589 4.43866 14.3717 4.27929 14.6818 4.04643C16.5666 2.63099 19.6865 1.78079 23.1643 3.91407C25.5691 5.38917 26.9222 8.47043 26.4474 12.0107C26.3459 12.7677 26.1617 13.5459 25.8876 14.3366C25.4056 14.25 24.8951 14.2838 24.4005 14.459C23.0748 14.9285 21.9004 15.7833 20.9676 16.6014C20.0049 17.4457 18.8796 18.7052 18.1528 19.5764C17.3536 19.0809 16.4595 18.9648 16.0409 18.9583C14.43 18.9583 13.1242 20.2641 13.1242 21.8749C13.1242 23.2067 14.0157 24.3287 15.2353 24.6786C15.3088 24.7604 15.4211 24.903 15.5593 25.1342C15.0766 25.2892 14.5671 25.3751 14.0005 25.3751C12.1454 25.3751 10.9026 24.4547 9.20935 23.2006C4.33314 19.5915 2.03063 15.568 1.55352 12.0107C1.0787 8.47043 2.43184 5.38917 4.83662 3.91407Z" fill="#1F1F1F" fill-opacity="0.87"/>
<path d="M25.7637 18.3081C26.3711 18.093 26.689 17.4263 26.4739 16.8189C26.2588 16.2115 25.5921 15.8935 24.9847 16.1086C23.9602 16.4715 22.9809 17.1635 22.1215 17.9172C21.25 18.6815 20.4352 19.5688 19.743 20.3985C19.2305 21.0129 18.7774 21.6052 18.4097 22.1077C18.0728 21.7042 17.7372 21.4093 17.4172 21.196C16.9475 20.8157 16.3039 20.7124 16.0409 20.7084C15.3965 20.7084 14.8742 21.2307 14.8742 21.875C14.8742 22.4825 15.3385 22.9816 15.9316 23.0367C15.958 23.0456 16.0245 23.0719 16.1229 23.1374C16.3554 23.2924 16.8166 23.7019 17.3307 24.7301C17.5187 25.1062 17.8946 25.352 18.3145 25.3735C18.7344 25.395 19.1334 25.1887 19.3589 24.834C19.4616 24.6799 19.7652 24.2245 19.9578 23.9515C20.3441 23.4043 20.891 22.665 21.5348 21.8932C22.1808 21.1188 22.9102 20.329 23.66 19.6715C24.4219 19.0033 25.1411 18.5286 25.7637 18.3081Z" fill="#1F1F1F" fill-opacity="0.87"/>
</svg>
