<svg width="64" height="64" viewBox="0 0 64 64" fill="none" xmlns="http://www.w3.org/2000/svg">
<path fill-rule="evenodd" clip-rule="evenodd" d="M40.1128 35.4486C41.1542 34.4072 42.8427 34.4072 43.8841 35.4486L49.9985 41.563L56.1128 35.4486C57.1542 34.4072 58.8427 34.4072 59.8841 35.4486C60.9255 36.49 60.9255 38.1784 59.8841 39.2198L53.7697 45.3342L59.8841 51.4486C60.9255 52.49 60.9255 54.1784 59.8841 55.2198C58.8427 56.2612 57.1542 56.2612 56.1128 55.2198L49.9985 49.1054L43.8841 55.2198C42.8427 56.2612 41.1542 56.2612 40.1128 55.2198C39.0714 54.1784 39.0714 52.49 40.1128 51.4486L46.2272 45.3342L40.1128 39.2198C39.0714 38.1784 39.0714 36.49 40.1128 35.4486Z" fill="#520826"/>
<path opacity="0.4" d="M30.4426 9.24968C26.1345 6.01438 19.0032 4.07106 11.054 8.94714C5.55731 12.3188 2.46442 19.3617 3.54972 27.4537C4.64024 35.5848 9.90314 44.7812 21.0487 53.0307C24.9191 55.8972 27.7597 58.0009 31.9999 58.0009C33.667 58.0009 35.1178 57.6757 36.4999 57.1067C34.7141 54.51 34.9756 50.9293 37.2842 48.6207L40.5702 45.3347L37.2842 42.0487C34.6808 39.4452 34.6808 35.2241 37.2842 32.6207C39.8877 30.0172 44.1088 30.0172 46.7123 32.6207L49.9983 35.9066L53.2842 32.6207C55.0354 30.8695 57.5184 30.2962 59.7488 30.9008C60.0662 29.7348 60.2984 28.5839 60.45 27.4537C61.5353 19.3617 58.4424 12.3188 52.9458 8.94714C44.9965 4.07106 37.8652 6.01438 33.5571 9.24968C32.8484 9.78193 32.362 10.1462 31.9999 10.3922C31.6377 10.1462 31.1513 9.78193 30.4426 9.24968Z" fill="#520826"/>
</svg>
