<svg width="48" height="48" viewBox="0 0 48 48" fill="none" xmlns="http://www.w3.org/2000/svg">
<path d="M39.5117 22.0001C40.6163 22.0001 41.5117 21.1046 41.5117 20.0001V11L42.6768 11C43.0281 11.0003 43.4594 11.0006 43.8123 10.9565L43.8189 10.9556C44.0718 10.9241 45.2239 10.7804 45.7726 9.64922C46.3226 8.51558 45.7187 7.5153 45.5881 7.29889L44.9098 6.36189C44.3205 5.61024 43.5091 4.58134 42.7482 3.79932C42.3686 3.4091 41.9341 3.00663 41.4722 2.68893C41.0617 2.40653 40.3613 2 39.5 2C38.6387 2 37.9383 2.40653 37.5278 2.68893C37.0659 3.00663 36.6314 3.4091 36.2518 3.79932C35.4909 4.58134 34.6795 5.61026 34.0902 6.36191L33.4119 7.29889C33.2813 7.51529 32.6774 8.51557 33.2274 9.64922C33.7761 10.7804 34.9282 10.9241 35.1811 10.9556L35.1877 10.9565C35.5406 11.0006 35.9719 11.0003 36.3232 11L37.5117 11V20.0001C37.5117 21.1046 38.4072 22.0001 39.5117 22.0001Z" fill="#1F1F1F" fill-opacity="0.87"/>
<path d="M24.8511 4L25 4C26.1046 4 27 4.89543 27 6C27 7.10457 26.1046 8 25 8C20.4651 8 15.2652 8.00425 12.8424 8.32998C10.4772 8.64797 9.15441 9.239 8.1967 10.1967C7.239 11.1544 6.64797 12.4772 6.32998 14.8424C6.00425 17.2652 6 20.4651 6 25C6 25.4631 6.00005 25.9124 6.00047 26.3483C6.54334 26.3166 7.0874 26.3012 7.63182 26.3022C13.2578 26.1872 18.7573 27.9409 23.1504 31.2697C26.7868 34.0251 29.4741 37.716 30.8924 41.877C31.7187 41.8291 32.4695 41.7625 33.1576 41.67C33.4325 41.6331 33.6933 41.5924 33.941 41.548C32.9336 38.3019 31.2589 35.3041 29.0397 32.7132C28.5809 32.1776 28.7605 31.3368 29.4319 31.1213C31.1463 30.5708 32.902 30.2904 34.678 30.297C36.4684 30.2956 38.2427 30.5893 39.977 31.1634C39.9993 30.1195 40 28.8318 40 27V26C40 24.8954 40.8954 24 42 24C43.1046 24 44 24.8954 44 26V27.1488C44.0001 31.5003 44.0001 32.9704 43.6344 35.6906C43.2567 38.4993 42.4565 40.8069 40.6317 42.6317C38.8069 44.4565 36.4993 45.2567 33.6906 45.6344C30.9703 46.0001 27.5008 46.0001 23.1489 46H22.8512C18.4992 46.0001 15.0297 46.0001 12.3094 45.6344C9.50067 45.2567 7.19306 44.4565 5.36827 42.6317C3.54349 40.8069 2.74328 38.4993 2.36565 35.6906C1.99992 32.9703 1.99995 29.5009 2 25.1489V24.8511C1.99995 20.4992 1.99992 17.0297 2.36565 14.3094C2.74328 11.5007 3.54349 9.19305 5.36827 7.36827C7.19306 5.54349 9.50067 4.74327 12.3094 4.36565C15.0297 3.99992 20.4991 3.99995 24.8511 4Z" fill="#1F1F1F" fill-opacity="0.87"/>
</svg>
