<svg width="20" height="20" viewBox="0 0 20 20" fill="none" xmlns="http://www.w3.org/2000/svg">
<path fill-rule="evenodd" clip-rule="evenodd" d="M16.6248 3.37524C15.7355 2.48602 14.2938 2.48602 13.4046 3.37524L5.30787 11.472C4.50069 12.2789 4.00736 12.7722 3.66805 13.3794C3.47879 13.7181 3.31345 14.2318 3.16716 14.7575C3.01666 15.2983 2.8685 15.9206 2.72707 16.5146L2.72534 16.5219C2.67507 16.733 2.73793 16.9551 2.8914 17.1086C3.04487 17.2621 3.26697 17.3249 3.4781 17.2747L3.48534 17.2729C4.07931 17.1315 4.70169 16.9833 5.24247 16.8328C5.76819 16.6865 6.28193 16.5212 6.62063 16.3319C7.22785 15.9926 7.72105 15.4993 8.52804 14.6921L16.6248 6.5954C17.514 5.70618 17.514 4.26446 16.6248 3.37524ZM14.2885 4.25913C14.6896 3.85806 15.3398 3.85806 15.7409 4.25913C16.1419 4.66019 16.1419 5.31045 15.7409 5.71151L15.0147 6.4377L13.5623 4.98532L14.2885 4.25913ZM12.6784 5.8692L14.1308 7.32159L7.71119 13.7412C6.8161 14.6363 6.44851 14.9962 6.01087 15.2408C5.81882 15.3481 5.44056 15.4802 4.90736 15.6286C4.67952 15.692 4.43514 15.7553 4.18139 15.8186C4.24468 15.5649 4.308 15.3205 4.3714 15.0926C4.51978 14.5594 4.65193 14.1812 4.75925 13.9891C5.0038 13.5515 5.36372 13.1839 6.2588 12.2888L12.6784 5.8692Z" fill="white" fill-opacity="0.87"/>
<path d="M9.16666 16.0417C8.82148 16.0417 8.54166 16.3215 8.54166 16.6667C8.54166 17.0118 8.82148 17.2917 9.16666 17.2917H14.1667C14.5118 17.2917 14.7917 17.0118 14.7917 16.6667C14.7917 16.3215 14.5118 16.0417 14.1667 16.0417H9.16666Z" fill="white" fill-opacity="0.87"/>
</svg>
