<svg width="20" height="20" viewBox="0 0 20 20" fill="none" xmlns="http://www.w3.org/2000/svg">
<path d="M5.27961 9.44113C4.97087 9.28676 4.59545 9.4119 4.44108 9.72064C4.28672 10.0294 4.41186 10.4048 4.72059 10.5592L6.38726 11.3925C6.696 11.5469 7.07142 11.4217 7.22579 11.113C7.38015 10.8042 7.25501 10.4288 6.94628 10.2745L5.27961 9.44113Z" fill="#1F1F1F" fill-opacity="0.66"/>
<path fill-rule="evenodd" clip-rule="evenodd" d="M1.87497 5.41667C1.87497 5.50208 1.88358 5.58294 1.89944 5.65955C1.88351 5.71472 1.87496 5.77304 1.87496 5.83334L1.87496 14.3011C1.87496 15.2348 2.55608 15.8557 3.3944 16.3587C4.24305 16.868 5.49149 17.3954 7.06905 18.0617L7.24507 18.1361C8.42761 18.6361 9.18993 18.9583 9.99997 18.9583C10.81 18.9583 11.5723 18.6361 12.7549 18.1361L12.9309 18.0617C14.5084 17.3954 15.7569 16.868 16.6055 16.3587C17.4438 15.8557 18.125 15.2348 18.125 14.3011L18.125 5.83334C18.125 5.77303 18.1164 5.71473 18.1005 5.65955C18.1164 5.58294 18.125 5.50208 18.125 5.41667C18.125 4.83163 17.7209 4.45976 17.3488 4.20846C16.9772 3.95747 16.4429 3.69892 15.8134 3.39439L13.1956 2.12762C11.8275 1.4651 10.9531 1.04167 9.99997 1.04167C9.04684 1.04167 8.17246 1.4651 6.80432 2.12763L4.18653 3.39438C3.55708 3.69892 3.02269 3.95747 2.65111 4.20846C2.27907 4.45976 1.87497 4.83163 1.87497 5.41667ZM4.18654 7.43898C3.7891 7.24668 3.42956 7.07273 3.12497 6.90743L3.12496 14.3011C3.12497 14.5195 3.25453 14.817 4.03758 15.2869C4.80103 15.745 5.9666 16.2391 7.60728 16.9321C8.45664 17.2909 8.97589 17.5053 9.37497 17.6151L9.37497 9.73192C8.63733 9.59337 7.87085 9.2222 6.80432 8.70572L4.18654 7.43898ZM13.1956 8.70572C12.1291 9.2222 11.3626 9.59337 10.625 9.73192L10.625 17.6151C11.024 17.5053 11.5433 17.2909 12.3927 16.9321C14.0333 16.2391 15.1989 15.745 15.9624 15.2869C16.7454 14.817 16.875 14.5195 16.875 14.3011L16.875 6.90743C16.5704 7.07272 16.2109 7.24666 15.8135 7.43894L13.1956 8.70572ZM9.99997 2.29167C9.36864 2.29167 8.767 2.56659 7.21046 3.31978L4.77613 4.49773C4.08921 4.83012 3.63833 5.05007 3.35078 5.2443C3.22712 5.32782 3.16738 5.38442 3.13973 5.41667C3.16738 5.44892 3.22712 5.50552 3.35078 5.58905C3.63833 5.78328 4.08921 6.00322 4.77613 6.33561L7.21046 7.51356C8.767 8.26675 9.36864 8.54167 9.99997 8.54167C10.6313 8.54167 11.2329 8.26675 12.7895 7.51356L15.2238 6.33562C15.9107 6.00322 16.3616 5.78328 16.6491 5.58905C16.7728 5.50552 16.8326 5.44892 16.8602 5.41667C16.8326 5.38442 16.7728 5.32782 16.6491 5.2443C16.3616 5.05007 15.9107 4.83012 15.2238 4.49773L12.7895 3.31978C11.2329 2.56659 10.6313 2.29167 9.99997 2.29167Z" fill="#1F1F1F" fill-opacity="0.66"/>
<path opacity="0.4" fill-rule="evenodd" clip-rule="evenodd" d="M14.7257 3.05382C14.8801 3.36256 14.755 3.73798 14.4462 3.89234L6.1129 8.05901C5.80416 8.21338 5.42874 8.08824 5.27437 7.7795C5.12 7.47077 5.24514 7.09535 5.55388 6.94098L13.8872 2.77431C14.196 2.61994 14.5714 2.74508 14.7257 3.05382Z" fill="#1F1F1F" fill-opacity="0.66"/>
</svg>
