<svg width="24" height="24" viewBox="0 0 24 24" fill="none" xmlns="http://www.w3.org/2000/svg">
<path d="M5.33556 11.3291C4.96507 11.1439 4.51457 11.294 4.32933 11.6645C4.14408 12.035 4.29425 12.4855 4.66474 12.6708L6.66474 13.6708C7.03522 13.856 7.48573 13.7058 7.67097 13.3353C7.85621 12.9649 7.70604 12.5144 7.33556 12.3291L5.33556 11.3291Z" fill="#1F1F1F" fill-opacity="0.87"/>
<path fill-rule="evenodd" clip-rule="evenodd" d="M1.24998 6.49977C1.24998 6.60225 1.26032 6.69929 1.27936 6.79122C1.26023 6.85743 1.24998 6.9274 1.24998 6.99977L1.24998 17.1611C1.24998 18.2815 2.06733 19.0266 3.07331 19.6303C4.0917 20.2414 5.58984 20.8742 7.48293 21.6739L7.69411 21.7631C9.11315 22.363 10.0279 22.7498 11 22.7498C11.7892 22.7498 12.4238 22.498 13.2941 22.1269C13.6752 21.9644 13.8523 21.5238 13.6899 21.1428C13.5274 20.7618 13.0868 20.5846 12.7058 20.7471C12.297 20.9214 11.9974 21.0417 11.75 21.1207L11.75 11.6781C12.6351 11.5118 13.5549 11.0664 14.8348 10.4466L17.9761 8.92652C18.453 8.69579 18.8845 8.48702 19.25 8.28868L19.25 11.9998C19.25 12.414 19.5858 12.7498 20 12.7498C20.4142 12.7498 20.75 12.414 20.75 11.9998L20.75 6.99977C20.75 6.9274 20.7397 6.85743 20.7206 6.79122C20.7396 6.69929 20.75 6.60225 20.75 6.49977C20.75 5.79772 20.2651 5.35147 19.8186 5.04991C19.3727 4.74872 18.7315 4.43847 17.9761 4.07302L14.8348 2.55291C13.193 1.75788 12.1437 1.24976 11 1.24977C9.85624 1.24977 8.80698 1.75787 7.16521 2.55291L4.02386 4.07301C3.26852 4.43846 2.62726 4.74872 2.18136 5.04991C1.73491 5.35147 1.24998 5.79771 1.24998 6.49977ZM4.02387 8.92653C3.54694 8.69578 3.11549 8.48703 2.74998 8.28868L2.74998 17.1611C2.74998 17.4231 2.90546 17.7802 3.84512 18.3441C4.76126 18.8938 6.15994 19.4867 8.12876 20.3183C9.14799 20.7489 9.77109 21.0062 10.25 21.1379L10.25 11.6781C9.36482 11.5118 8.44505 11.0664 7.16521 10.4466L4.02387 8.92653ZM11 2.74977C10.2424 2.74977 9.52042 3.07967 7.65258 3.9835L4.73138 5.39704C3.90708 5.79591 3.36602 6.05984 3.02096 6.29292C2.87257 6.39315 2.80088 6.46107 2.7677 6.49977C2.80088 6.53847 2.87257 6.60638 3.02096 6.70662C3.36602 6.93969 3.90708 7.20363 4.73138 7.6025L7.65258 9.01603C9.52042 9.91986 10.2424 10.2498 11 10.2498C11.7576 10.2498 12.4795 9.91986 14.3474 9.01603L17.2686 7.6025C18.0929 7.20363 18.6339 6.93969 18.979 6.70662C19.1274 6.60639 19.1991 6.53846 19.2323 6.49976C19.1991 6.46106 19.1274 6.39315 18.979 6.29291C18.6339 6.05984 18.0929 5.79591 17.2686 5.39703L14.3474 3.9835C12.4795 3.07967 11.7576 2.74977 11 2.74977ZM19.2585 6.53916C19.2585 6.53916 19.2555 6.53527 19.2534 6.52781C19.2581 6.53548 19.2585 6.53916 19.2585 6.53916ZM19.2534 6.47173C19.2555 6.46427 19.2585 6.46037 19.2585 6.46037C19.2585 6.46037 19.2581 6.46405 19.2534 6.47173ZM2.74147 6.46037C2.74147 6.46037 2.7445 6.46426 2.74657 6.47173C2.74184 6.46405 2.74147 6.46037 2.74147 6.46037ZM2.74657 6.5278C2.7445 6.53527 2.74147 6.53916 2.74147 6.53916C2.74147 6.53916 2.74184 6.53548 2.74657 6.5278Z" fill="#1F1F1F" fill-opacity="0.87"/>
<g opacity="0.4">
<path d="M22.5302 15.5302C22.8231 15.2373 22.8231 14.7624 22.5302 14.4696C22.2374 14.1767 21.7625 14.1767 21.4696 14.4696L18.9999 16.9392L16.5302 14.4696C16.2374 14.1767 15.7625 14.1767 15.4696 14.4696C15.1767 14.7624 15.1767 15.2373 15.4696 15.5302L17.9393 17.9999L15.4696 20.4696C15.1767 20.7624 15.1767 21.2373 15.4696 21.5302C15.7625 21.8231 16.2374 21.8231 16.5302 21.5302L18.9999 19.0605L21.4696 21.5302C21.7625 21.8231 22.2374 21.8231 22.5302 21.5302C22.8231 21.2373 22.8231 20.7624 22.5302 20.4696L20.0606 17.9999L22.5302 15.5302Z" fill="#1F1F1F" fill-opacity="0.87"/>
<path d="M16.3355 4.67087C16.706 4.48563 16.8561 4.03512 16.6709 3.66464C16.4857 3.29415 16.0352 3.14399 15.6647 3.32923L5.66467 8.32923C5.29419 8.51447 5.14402 8.96498 5.32926 9.33546C5.51451 9.70594 5.96501 9.85611 6.33549 9.67087L16.3355 4.67087Z" fill="#1F1F1F" fill-opacity="0.87"/>
</g>
</svg>
