<svg width="24" height="24" viewBox="0 0 24 24" fill="none" xmlns="http://www.w3.org/2000/svg">
<path fill-rule="evenodd" clip-rule="evenodd" d="M17.1696 3.76969C16.5793 3.84076 16.008 4.10296 15.5555 4.55545C14.7617 5.34926 14.5535 6.50883 14.9354 7.4951C15.0427 7.77207 14.9764 8.08624 14.7663 8.29626L8.29626 14.7663C8.08624 14.9764 7.77208 15.0427 7.49511 14.9354C6.50883 14.5535 5.34926 14.7616 4.55546 15.5555C4.10296 16.0079 3.84077 16.5793 3.76969 17.1696L4.12715 16.8122C4.2678 16.6715 4.45857 16.5925 4.65748 16.5925L6.65748 16.5925C7.07169 16.5925 7.40748 16.9283 7.40748 17.3425L7.40748 19.3425C7.40748 19.5414 7.32846 19.7322 7.18781 19.8728L6.83035 20.2303C7.4207 20.1592 7.99205 19.897 8.44454 19.4445C9.23775 18.6513 9.44619 17.4929 9.06544 16.5071C8.95851 16.2303 9.02489 15.9164 9.23474 15.7066L15.7066 9.23473C15.9164 9.02488 16.2303 8.95851 16.5071 9.06543C17.4929 9.44618 18.6513 9.23775 19.4445 8.44454C19.897 7.99205 20.1592 7.4207 20.2303 6.83035L19.8729 7.1878C19.7322 7.32846 19.5414 7.40747 19.3425 7.40747H17.3425C16.9283 7.40747 16.5925 7.07169 16.5925 6.65747V4.65747C16.5925 4.45856 16.6715 4.2678 16.8122 4.12714L17.1696 3.76969ZM14.4948 3.49479C15.7232 2.26637 17.5153 1.94823 19.035 2.53596C19.2716 2.62744 19.4459 2.83229 19.4983 3.08045C19.5508 3.32861 19.4742 3.58645 19.2949 3.7658L18.0925 4.96813V5.90747H19.0319L20.2342 4.70514C20.4135 4.52579 20.6714 4.44924 20.9195 4.50167C21.1677 4.55409 21.3726 4.72839 21.464 4.96495C22.0518 6.48468 21.7336 8.27678 20.5052 9.5052C19.404 10.6064 17.8499 10.9761 16.4451 10.6175L10.6175 16.4451C10.9761 17.8499 10.6064 19.404 9.5052 20.5052C8.27679 21.7336 6.48469 22.0518 4.96495 21.464C4.72839 21.3725 4.55409 21.1677 4.50167 20.9195C4.44925 20.6714 4.5258 20.4135 4.70514 20.2342L5.90748 19.0319L5.90748 18.0925L4.96814 18.0925L3.76581 19.2949C3.58646 19.4742 3.32862 19.5507 3.08046 19.4983C2.8323 19.4459 2.62745 19.2716 2.53596 19.035C1.94824 17.5153 2.26638 15.7232 3.4948 14.4948C4.59677 13.3928 6.15236 13.0234 7.55802 13.3833L13.3833 7.55801C13.0234 6.15235 13.3928 4.59677 14.4948 3.49479Z" fill="#1F1F1F" fill-opacity="0.87"/>
<g opacity="0.4">
<path fill-rule="evenodd" clip-rule="evenodd" d="M4.83556 2.82932C4.54682 2.68495 4.19809 2.74154 3.96982 2.96981L2.96982 3.96981C2.74155 4.19808 2.68496 4.54681 2.82933 4.83555L4.32933 7.83555C4.43715 8.05118 4.64204 8.20184 4.88001 8.24046C5.11798 8.27908 5.36001 8.20094 5.53048 8.03047L6.25015 7.3108L10.4698 11.5305L11.5305 10.4698L7.31081 6.25014L8.03048 5.53047C8.20095 5.36 8.27908 5.11798 8.24047 4.88001C8.20185 4.64204 8.05119 4.43714 7.83556 4.32932L4.83556 2.82932ZM4.41272 4.64823L4.64824 4.41271L6.23403 5.20561L5.20561 6.23402L4.41272 4.64823Z" fill="#1F1F1F" fill-opacity="0.87"/>
<path d="M20.6346 16.8708L15.0305 11.2667L13.9698 12.3274L19.5739 17.9315C19.8088 18.1664 19.8088 18.5473 19.5739 18.7822L18.7822 19.5739C18.5473 19.8088 18.1664 19.8088 17.9315 19.5739L12.3274 13.9698L11.2667 15.0305L16.8708 20.6346C17.6915 21.4553 19.0221 21.4553 19.8429 20.6346L20.6346 19.8428C21.4553 19.0221 21.4553 17.6915 20.6346 16.8708Z" fill="#1F1F1F" fill-opacity="0.87"/>
</g>
</svg>
