<svg width="18" height="18" viewBox="0 0 18 18" fill="none" xmlns="http://www.w3.org/2000/svg">
<path fill-rule="evenodd" clip-rule="evenodd" d="M12.8187 0.00430048L12.3905 0.00605303C11.2983 0.0103869 10.1075 0.013629 9.36299 0.00311082L3.51622 0.00311057C3.36881 0.0031106 3.08399 0.00634944 2.78076 0.0619996C2.49481 0.114479 2.09056 0.230695 1.78881 0.53039C1.64259 0.675604 1.5257 0.859893 1.43556 1.02401C1.3412 1.19579 1.25521 1.38465 1.18007 1.56554C1.03513 1.91451 0.915768 2.27033 0.845957 2.47844L0.83959 2.49742L0.273965 4.13538C0.184832 4.3731 0.0910088 4.73794 0.0399532 5.10166C0.0137206 5.28855 -0.00336323 5.48982 0.000634549 5.68444C0.00446382 5.87095 0.0281171 6.09373 0.111187 6.29998C0.2439 6.6295 0.534158 6.97829 0.772124 7.2317C0.792342 7.25323 0.812785 7.2747 0.833389 7.29605L0.833389 11.5005C0.833373 12.6403 0.833358 13.559 0.930491 14.2815C1.03133 15.0317 1.24707 15.6633 1.74865 16.1649C2.25024 16.6666 2.88181 16.8824 3.63192 16.9833C4.3544 17.0804 5.27301 17.0804 6.41267 17.0804L11.5041 17.0804C12.6438 17.0804 13.5624 17.0804 14.2848 16.9833C15.0349 16.8824 15.6665 16.6666 16.1681 16.165C16.6697 15.6633 16.8854 15.0317 16.9863 14.2815C17.0834 13.559 17.0834 12.6403 17.0834 11.5005L17.0834 7.35297C17.5867 6.8167 17.8153 6.23828 17.9037 5.81126C17.9124 5.76957 17.9167 5.72711 17.9167 5.68454C17.9167 5.29775 17.7969 4.74165 17.5796 4.03402C17.3566 3.30789 17.0124 2.36546 16.5234 1.18097C16.5184 1.1689 16.5131 1.157 16.5074 1.14527C16.4191 0.964377 16.2445 0.698648 15.9786 0.468631C15.707 0.23359 15.3123 0.013715 14.8049 0.00324528C14.5147 -0.00274254 13.7279 0.00052612 12.8187 0.00430048ZM15.8334 8.23949C15.5732 8.36099 15.2822 8.46872 14.9572 8.5578C13.1887 9.0424 11.9953 8.39525 11.361 7.86105C11.2207 7.96262 11.0674 8.06282 10.9031 8.15666C10.3744 8.45855 9.69054 8.71777 8.92929 8.70727C7.89623 8.69302 7.08404 8.29167 6.5707 7.89942C6.09308 8.29692 5.48976 8.60485 4.74585 8.70206C3.9189 8.81013 3.19136 8.68364 2.63011 8.49212C2.43033 8.42395 2.24671 8.3458 2.08339 8.26397L2.08339 11.4547C2.08339 12.6511 2.08472 13.4854 2.16935 14.115C2.25156 14.7266 2.40194 15.0504 2.6326 15.2811C2.86324 15.5118 3.18704 15.6622 3.7985 15.7444C4.42795 15.8291 5.26221 15.8304 6.45839 15.8304L11.4584 15.8304C12.6546 15.8304 13.4888 15.8291 14.1183 15.7444C14.7297 15.6622 15.0535 15.5118 15.2842 15.2811C15.5148 15.0504 15.6652 14.7266 15.7474 14.115C15.8321 13.4854 15.8334 12.6511 15.8334 11.4547L15.8334 8.23949ZM8.94654 7.45739C8.26491 7.44799 7.73235 7.19254 7.40314 6.96074C7.69713 6.51619 7.88524 6.06835 7.98059 5.72401C8.0727 5.39135 7.8777 5.047 7.54504 4.95489C7.21237 4.86278 6.86803 5.05779 6.77592 5.39045C6.57126 6.12956 5.8461 7.29766 4.58388 7.4626C3.97713 7.54189 3.44411 7.44912 3.03381 7.3091C2.60944 7.16429 2.35288 6.98209 2.29463 6.92721C2.27192 6.90581 2.24764 6.88614 2.22199 6.86837C2.11849 6.79666 1.90118 6.608 1.68335 6.37603C1.45306 6.13079 1.30887 5.92782 1.27067 5.83295C1.27067 5.83295 1.2654 5.81799 1.26053 5.78753C1.25539 5.75537 1.25148 5.71262 1.25037 5.65878C1.24813 5.54992 1.25776 5.41832 1.27782 5.27542C1.31865 4.98453 1.39388 4.70716 1.4461 4.56971C1.44837 4.56375 1.45054 4.55776 1.45262 4.55173L2.02204 2.90287L2.02855 2.88344C2.09906 2.67332 2.20662 2.35279 2.33445 2.04503C2.39974 1.88786 2.46634 1.74382 2.53116 1.62581C2.60019 1.50014 2.64907 1.43774 2.66966 1.4173C2.7015 1.38567 2.80175 1.32902 3.0064 1.29146C3.19377 1.25708 3.38564 1.25311 3.51622 1.25311L9.34977 1.25311C10.1082 1.26375 11.309 1.26035 12.3955 1.25604L12.8217 1.2543C13.7381 1.25052 14.506 1.24734 14.7791 1.25298C14.9212 1.25591 15.0464 1.315 15.1608 1.41393C15.2716 1.50987 15.3462 1.62224 15.3772 1.68028C15.8524 2.83268 16.1783 3.72909 16.3847 4.40102C16.5771 5.02755 16.6518 5.41651 16.6647 5.62337C16.5543 6.06204 16.1423 6.93695 14.6268 7.35224C13.4601 7.67195 12.6864 7.31161 12.2521 6.97659C12.4103 6.71772 12.5982 6.31739 12.7806 5.74791C12.8859 5.41919 12.7048 5.06734 12.3761 4.96203C12.0474 4.85671 11.6955 5.03782 11.5902 5.36654C11.3686 6.05825 11.1731 6.35299 11.1326 6.40403C10.9868 6.56886 10.6835 6.84264 10.2833 7.07117C9.87863 7.30224 9.41593 7.46387 8.94654 7.45739Z" fill="#1F1F1F" fill-opacity="0.66"/>
</svg>
