<svg width="24" height="24" viewBox="0 0 24 24" fill="none" xmlns="http://www.w3.org/2000/svg">
<mask id="mask0_6011_263" style="mask-type:luminance" maskUnits="userSpaceOnUse" x="3" y="5" width="21" height="19">
<path d="M3.19995 5.60001H23.6093V23.2H3.19995V5.60001Z" fill="white"/>
</mask>
<g mask="url(#mask0_6011_263)">
<path d="M12.1969 22.9C9.60313 22.9 7.10626 22.0062 5.10314 20.3531L4.49376 20.9687C4.39689 21.0656 4.25939 21.1 4.13126 21.0594C4.00314 21.0187 3.90939 20.9094 3.88751 20.7781L3.33751 17.4562C3.31876 17.3437 3.35626 17.2281 3.43751 17.1469C3.51876 17.0656 3.63439 17.0281 3.75001 17.0469L7.04376 17.6C7.17501 17.6219 7.28439 17.7156 7.32501 17.8437C7.36563 17.9687 7.33126 18.1094 7.23751 18.2031L6.71251 18.7312C10.2344 21.4844 15.3563 21.1844 18.5375 17.9781C21.2688 15.225 21.9469 11.0344 20.2219 7.55312C20.1438 7.39062 20.1969 7.19374 20.35 7.09687L21.6688 6.24999C21.7531 6.19687 21.8563 6.18124 21.9531 6.20624C22.05 6.23437 22.1313 6.29999 22.1781 6.38749C23.2625 8.50312 23.6563 10.875 23.3094 13.2437C22.9563 15.6625 21.8594 17.8531 20.1406 19.5875C18.1188 21.625 15.4344 22.8 12.575 22.8937C12.45 22.9 12.325 22.9 12.1969 22.9Z" fill="#1F1F1F" fill-opacity="0.38"/>
</g>
<mask id="mask1_6011_263" style="mask-type:luminance" maskUnits="userSpaceOnUse" x="0" y="0" width="21" height="17">
<path d="M0.387451 0H20.8V16.8H0.387451V0Z" fill="white"/>
</mask>
<g mask="url(#mask1_6011_263)">
<path d="M2.18422 16.7906C2.15297 16.7906 2.12172 16.7875 2.09047 16.7781C1.9936 16.7531 1.91235 16.6844 1.86547 16.5969C0.777973 14.4812 0.387348 12.1094 0.734223 9.74061C1.08735 7.32499 2.1811 5.13124 3.90297 3.39999C5.92485 1.36249 8.60922 0.18749 11.4686 0.0906144C14.1998 -1.04178e-05 16.8405 0.899989 18.9405 2.63124L19.5499 2.01561C19.6436 1.92186 19.7842 1.88749 19.9124 1.92811C20.0405 1.96874 20.1342 2.07499 20.1561 2.20936L20.7061 5.52811C20.7248 5.64374 20.6874 5.75936 20.6061 5.84061C20.5217 5.92186 20.4061 5.95624 20.2936 5.93749L16.9999 5.38437C16.8686 5.36249 16.7592 5.26874 16.7186 5.14374C16.678 5.01561 16.7124 4.87811 16.8061 4.78124L17.3311 4.25311C13.8092 1.49999 8.68735 1.80311 5.5061 5.00936C2.77485 7.75936 2.09672 11.95 3.82172 15.4312C3.89985 15.5937 3.84672 15.7906 3.6936 15.8875L2.37485 16.7344C2.3186 16.7719 2.24985 16.7906 2.18422 16.7906Z" fill="#1F1F1F" fill-opacity="0.66"/>
</g>
<path d="M15.5937 17.9344H8.4656C8.26873 17.9344 8.10935 17.775 8.10935 17.5781V11.0281L5.85935 10.4187C5.76248 10.3937 5.6781 10.325 5.63435 10.2344C5.58748 10.1437 5.58435 10.0375 5.62185 9.94374L7.0656 6.34374C7.1031 6.25312 7.17498 6.17812 7.27185 6.14374L10.1219 5.07499C10.2062 5.04062 10.3 5.04374 10.3844 5.07812C10.9094 5.29687 11.4625 5.40624 12.0312 5.40624C12.5969 5.40624 13.15 5.29687 13.675 5.07812C13.7594 5.04374 13.8531 5.04062 13.9375 5.07499L16.7906 6.14374C16.8844 6.17812 16.9594 6.25312 16.9969 6.34687L18.4219 9.94374C18.4594 10.0375 18.4531 10.1437 18.4094 10.2344C18.3625 10.325 18.2812 10.3937 18.1844 10.4187L15.95 11.0281V17.5781C15.95 17.775 15.7906 17.9344 15.5937 17.9344ZM8.82185 17.2219H15.2375V9.00937C15.2375 8.81249 15.3969 8.65312 15.5937 8.65312C15.7906 8.65312 15.95 8.81249 15.95 9.00937V10.2875L17.6125 9.83749L16.3906 6.75624L13.8156 5.79062C13.2437 6.00937 12.6437 6.12187 12.0312 6.12187C11.4156 6.12187 10.8156 6.00937 10.2437 5.79062L7.66873 6.75624L6.43435 9.83749L8.10935 10.2906V9.00937C8.10935 8.81249 8.26873 8.65312 8.4656 8.65312C8.66248 8.65312 8.82185 8.81249 8.82185 9.00937V17.2219Z" fill="#6B6B6B"/>
<path d="M12.0312 7.54686C10.85 7.54686 9.89062 6.58749 9.89062 5.40624C9.89062 5.20936 10.05 5.04999 10.2469 5.04999C10.4438 5.04999 10.6031 5.20936 10.6031 5.40624C10.6031 6.19374 11.2437 6.83436 12.0312 6.83436C12.8156 6.83436 13.4562 6.19374 13.4562 5.40624C13.4562 5.20936 13.6156 5.04999 13.8125 5.04999C14.0094 5.04999 14.1687 5.20936 14.1687 5.40624C14.1687 6.58749 13.2094 7.54686 12.0312 7.54686Z" fill="#6B6B6B"/>
</svg>
