<svg width="24" height="24" viewBox="0 0 24 24" fill="none" xmlns="http://www.w3.org/2000/svg">
<mask id="mask0_6011_211" style="mask-type:luminance" maskUnits="userSpaceOnUse" x="3" y="6" width="21" height="18">
<path d="M23.8411 23.0338L3.42856 23.0338V6.23375L23.8411 6.23375V23.0338Z" fill="white"/>
</mask>
<g mask="url(#mask0_6011_211)">
<path d="M22.0443 6.24314C22.0755 6.24314 22.1068 6.24626 22.138 6.25564C22.2349 6.28064 22.3162 6.34939 22.363 6.43689C23.4505 8.55251 23.8412 10.9244 23.4943 13.2931C23.1412 15.7088 22.0474 17.9025 20.3255 19.6338C18.3037 21.6713 15.6193 22.8463 12.7599 22.9431C10.0287 23.0338 7.38804 22.1338 5.28804 20.4025L4.67867 21.0181C4.58492 21.1119 4.44429 21.1463 4.31617 21.1056C4.18804 21.065 4.09429 20.9588 4.07242 20.8244L3.52242 17.5056C3.50367 17.39 3.54117 17.2744 3.62242 17.1931C3.70679 17.1119 3.82242 17.0775 3.93492 17.0963L7.22867 17.6494C7.35992 17.6713 7.46929 17.765 7.50992 17.89C7.55054 18.0181 7.51617 18.1556 7.42242 18.2525L6.89742 18.7806C10.4193 21.5338 15.5412 21.2306 18.7224 18.0244C21.4537 15.2744 22.1318 11.0838 20.4068 7.60251C20.3287 7.44001 20.3818 7.24314 20.5349 7.14626L21.8537 6.29939C21.9099 6.26189 21.9787 6.24314 22.0443 6.24314Z" fill="#520826"/>
</g>
<mask id="mask1_6011_211" style="mask-type:luminance" maskUnits="userSpaceOnUse" x="0" y="0" width="21" height="17">
<path d="M0.5 0L20.9125 0V16.8H0.5L0.5 0Z" fill="white"/>
</mask>
<g mask="url(#mask1_6011_211)">
<path d="M2.29287 16.7906C2.26162 16.7906 2.23037 16.7875 2.19912 16.7781C2.10224 16.7531 2.02099 16.6844 1.97412 16.5969C0.886616 14.4812 0.495991 12.1094 0.842866 9.74061C1.19599 7.32499 2.28974 5.13124 4.01162 3.39999C6.03349 1.36249 8.71787 0.18749 11.5772 0.0906144C14.3085 -1.04178e-05 16.9491 0.899989 19.0491 2.63124L19.6585 2.01561C19.7522 1.92186 19.8929 1.88749 20.021 1.92811C20.1491 1.96874 20.2429 2.07499 20.2647 2.20936L20.8147 5.52811C20.8335 5.64374 20.796 5.75936 20.7147 5.84061C20.6304 5.92186 20.5147 5.95624 20.4022 5.93749L17.1085 5.38437C16.9772 5.36249 16.8679 5.26874 16.8272 5.14374C16.7866 5.01561 16.821 4.87811 16.9147 4.78124L17.4397 4.25311C13.9179 1.49999 8.79599 1.80311 5.61474 5.00936C2.88349 7.75936 2.20537 11.95 3.93037 15.4312C4.00849 15.5937 3.95537 15.7906 3.80224 15.8875L2.48349 16.7344C2.42724 16.7719 2.35849 16.7906 2.29287 16.7906Z" fill="#BA9CA8"/>
</g>
<path d="M15.5937 17.9344H8.4656C8.26873 17.9344 8.10935 17.775 8.10935 17.5781V11.0281L5.85935 10.4187C5.76248 10.3937 5.6781 10.325 5.63435 10.2344C5.58748 10.1437 5.58435 10.0375 5.62185 9.94374L7.0656 6.34374C7.1031 6.25312 7.17498 6.17812 7.27185 6.14374L10.1219 5.07499C10.2062 5.04062 10.3 5.04374 10.3844 5.07812C10.9094 5.29687 11.4625 5.40624 12.0312 5.40624C12.5969 5.40624 13.15 5.29687 13.675 5.07812C13.7594 5.04374 13.8531 5.04062 13.9375 5.07499L16.7906 6.14374C16.8844 6.17812 16.9594 6.25312 16.9969 6.34687L18.4219 9.94374C18.4594 10.0375 18.4531 10.1437 18.4094 10.2344C18.3625 10.325 18.2812 10.3937 18.1844 10.4187L15.95 11.0281V17.5781C15.95 17.775 15.7906 17.9344 15.5937 17.9344Z" fill="#520826"/>
<path d="M12.1147 7.48387C10.9335 7.48387 9.97412 6.5245 9.97412 5.34325C9.97412 5.14637 10.1335 4.987 10.3304 4.987C10.5272 4.987 10.6866 5.14637 10.6866 5.34325C10.6866 6.13075 11.3272 6.77137 12.1147 6.77137C12.8991 6.77137 13.5397 6.13075 13.5397 5.34325C13.5397 5.14637 13.6991 4.987 13.896 4.987C14.0929 4.987 14.2522 5.14637 14.2522 5.34325C14.2522 6.5245 13.2929 7.48387 12.1147 7.48387Z" fill="white"/>
</svg>
