<svg width="64" height="64" viewBox="0 0 64 64" fill="none" xmlns="http://www.w3.org/2000/svg">
<path opacity="0.4" fill-rule="evenodd" clip-rule="evenodd" d="M55.3333 33.8861C54.5901 34.2101 53.8939 34.6761 53.2859 35.2841L50 38.57L46.714 35.2841C44.1105 32.6806 39.8894 32.6806 37.2859 35.2841C34.6824 37.8876 34.6824 42.1087 37.2859 44.7122L40.5719 47.9981L37.2859 51.2841C35.2171 53.3529 34.7922 56.4432 36.0113 58.9315C33.3747 60.0106 31.4027 60.6679 29.3333 60.6679C26.7412 60.6679 24.3018 59.6366 20.5177 58.0368C15.4694 55.9043 10.9112 53.9788 8.19552 52.3492C5.5129 50.7394 3.33331 48.7524 3.33331 45.7647L3.33331 17.3346C3.33331 15.2124 4.8407 13.9096 6.04107 13.1159C7.23997 12.323 8.94404 11.5159 10.8767 10.6005L19.1757 6.66884C23.348 4.68974 26.2067 3.33374 29.3333 3.33374C32.4599 3.33374 35.3186 4.68974 39.491 6.66884L47.79 10.6006C49.7226 11.5159 51.4267 12.3231 52.6256 13.1159C53.8259 13.9096 55.3333 15.2124 55.3333 17.3346L55.3333 33.8861ZM29.3335 8.42472C27.5476 8.42472 25.826 9.17428 20.9134 11.5016L13.3183 15.0997C11.1564 16.1238 9.80203 16.7727 8.9531 17.3338C9.80203 17.895 11.1564 18.5438 13.3183 19.5679L22.0941 23.7235C26.1179 25.6148 27.6988 26.2429 29.3335 26.2429C31.1194 26.2429 32.841 25.4933 37.7536 23.166L45.3488 19.5679C47.5106 18.5438 48.865 17.895 49.7139 17.3338C48.865 16.7727 47.5106 16.1238 45.3488 15.0997L36.573 10.9441C32.5491 9.05278 30.9683 8.42472 29.3335 8.42472Z" fill="#520826"/>
<path d="M59.8857 41.8815C60.9271 40.8401 60.9271 39.1517 59.8857 38.1103C58.8443 37.0689 57.1558 37.0689 56.1144 38.1103L50 44.2246L43.8857 38.1103C42.8443 37.0689 41.1558 37.0689 40.1144 38.1103C39.073 39.1517 39.073 40.8401 40.1144 41.8815L46.2288 47.9959L40.1144 54.1103C39.073 55.1517 39.073 56.8401 40.1144 57.8815C41.1558 58.9229 42.8443 58.9229 43.8857 57.8815L50 51.7671L56.1144 57.8815C57.1558 58.9229 58.8443 58.9229 59.8857 57.8815C60.9271 56.8401 60.9271 55.1517 59.8857 54.1103L53.7713 47.9959L59.8857 41.8815Z" fill="#520826"/>
<path d="M11.545 31.1019C12.0389 30.1139 13.2403 29.7135 14.2283 30.2075L19.5616 32.8741C20.5495 33.3681 20.95 34.5694 20.456 35.5574C19.962 36.5454 18.7607 36.9458 17.7727 36.4518L12.4394 33.7852C11.4514 33.2912 11.051 32.0898 11.545 31.1019Z" fill="#520826"/>
<path d="M16.1823 20.9248L36.5722 10.9438L42.4831 13.7422L22.0932 23.7232L16.1823 20.9248Z" fill="#520826"/>
</svg>
