<svg width="20" height="20" viewBox="0 0 20 20" fill="none" xmlns="http://www.w3.org/2000/svg">
<path d="M4.44628 9.44114C4.13755 9.28677 3.76212 9.41191 3.60776 9.72065C3.45339 10.0294 3.57853 10.4048 3.88726 10.5592L5.55393 11.3925C5.86267 11.5469 6.23809 11.4217 6.39246 11.113C6.54683 10.8043 6.42169 10.4288 6.11295 10.2745L4.44628 9.44114Z" fill="white" fill-opacity="0.87"/>
<path fill-rule="evenodd" clip-rule="evenodd" d="M1.04164 5.41669C1.04164 5.50209 1.05025 5.58296 1.06612 5.65957C1.05018 5.71474 1.04164 5.77305 1.04164 5.83335L1.04164 14.3011C1.04164 15.2348 1.72276 15.8557 2.56108 16.3588C3.40973 16.868 4.65818 17.3954 6.23576 18.0618L6.41174 18.1361C7.59428 18.6361 8.3566 18.9584 9.16664 18.9584C9.87637 18.9584 10.4533 18.7096 11.3043 18.3426L11.4965 18.2599C11.8137 18.1237 11.9605 17.7562 11.8243 17.439C11.6881 17.1218 11.32 16.9753 11.0029 17.1115C10.4333 17.356 10.0731 17.5107 9.79164 17.6011L9.79164 9.73193C10.5293 9.59338 11.2957 9.22221 12.3623 8.70574L14.9801 7.43898C15.3775 7.2467 15.7371 7.07273 16.0416 6.90745L16.0416 9.16669C16.0416 9.51186 16.3215 9.79169 16.6666 9.79169C17.0118 9.79169 17.2916 9.51186 17.2916 9.16669L17.2916 5.83335C17.2916 5.77305 17.2831 5.71474 17.2672 5.65957C17.283 5.58296 17.2916 5.50209 17.2916 5.41669C17.2916 4.83164 16.8875 4.45977 16.5155 4.20847C16.1439 3.95748 15.6095 3.69894 14.9801 3.3944L12.3623 2.12764C10.9941 1.46511 10.1198 1.04169 9.16664 1.04169C8.21352 1.04169 7.33913 1.46511 5.97099 2.12764L3.3532 3.39439C2.72376 3.69893 2.18937 3.95748 1.81779 4.20847C1.44574 4.45977 1.04164 4.83164 1.04164 5.41669ZM3.35321 7.43899C2.95577 7.2467 2.59623 7.07274 2.29164 6.90745L2.29164 14.3011C2.29164 14.5195 2.4212 14.817 3.20425 15.2869C3.9677 15.745 5.13327 16.2391 6.77395 16.9322C7.62331 17.291 8.14256 17.5054 8.54164 17.6151L8.54164 9.73193C7.80401 9.59338 7.03753 9.22221 5.97099 8.70573L3.35321 7.43899ZM9.16664 2.29169C8.53531 2.29169 7.93367 2.5666 6.37714 3.31979L3.9428 4.49774C3.25588 4.83014 2.805 5.05008 2.51745 5.24431C2.39379 5.32784 2.33405 5.38444 2.3064 5.41669C2.33405 5.44894 2.39379 5.50554 2.51745 5.58906C2.805 5.78329 3.25588 6.00324 3.9428 6.33563L6.37714 7.51358C7.93367 8.26677 8.53531 8.54169 9.16664 8.54169C9.79796 8.54169 10.3996 8.26677 11.9561 7.51358L14.3905 6.33563C15.0774 6.00324 15.5283 5.78329 15.8158 5.58906C15.9395 5.50554 15.9992 5.44893 16.0269 5.41668C15.9992 5.38443 15.9395 5.32784 15.8158 5.24431C15.5283 5.05008 15.0774 4.83014 14.3905 4.49774L11.9561 3.3198C10.3996 2.56661 9.79796 2.29169 9.16664 2.29169Z" fill="white" fill-opacity="0.87"/>
<g opacity="0.4">
<path d="M16.0416 11.6666C16.0416 11.3215 15.7618 11.0416 15.4166 11.0416C15.0715 11.0416 14.7916 11.3215 14.7916 11.6666L14.7916 13.9583L12.5 13.9583C12.1548 13.9583 11.875 14.2381 11.875 14.5833C11.875 14.9285 12.1548 15.2083 12.5 15.2083L14.7916 15.2083L14.7916 17.5C14.7916 17.8451 15.0715 18.125 15.4166 18.125C15.7618 18.125 16.0416 17.8451 16.0416 17.5L16.0416 15.2083L18.3333 15.2083C18.6785 15.2083 18.9583 14.9285 18.9583 14.5833C18.9583 14.2381 18.6785 13.9583 18.3333 13.9583L16.0416 13.9583L16.0416 11.6666Z" fill="white" fill-opacity="0.87"/>
<path d="M13.613 3.89233C13.9217 3.73796 14.0468 3.36254 13.8925 3.0538C13.7381 2.74506 13.3627 2.61992 13.0539 2.77429L4.72061 6.94096C4.41187 7.09533 4.28673 7.47075 4.4411 7.77948C4.59547 8.08822 4.97089 8.21336 5.27963 8.05899L13.613 3.89233Z" fill="white" fill-opacity="0.87"/>
</g>
</svg>
