<svg width="64" height="64" viewBox="0 0 64 64" fill="none" xmlns="http://www.w3.org/2000/svg">
<path fill-rule="evenodd" clip-rule="evenodd" d="M56.3331 31.9235C56.3331 32.565 56.3331 32.8858 56.1813 33.0957C56.0294 33.3056 55.6599 33.4272 54.921 33.6706C54.7795 33.7172 54.6386 33.7688 54.4985 33.8255C51.6276 34.9875 49.1769 37.0538 47.3135 38.9214C45.7394 40.499 44.283 42.2448 43.015 43.9075C42.6322 44.4093 42.4409 44.6603 42.1932 44.7352C41.9456 44.8101 41.6118 44.695 40.9441 44.4649C40.8972 44.4487 40.8503 44.433 40.8035 44.4177C40.4171 44.2915 39.5279 44.0051 38.3331 44.0051C34.6512 44.0051 31.6664 46.9899 31.6664 50.6718C31.6664 53.3377 33.229 55.6344 35.4887 56.7018C35.7335 56.8174 35.8559 56.8752 35.9451 56.957C36.0343 57.0387 36.0845 57.1245 36.1847 57.296C36.2163 57.3499 36.2491 57.4073 36.2832 57.4678C36.6464 58.1142 36.828 58.4373 36.7017 58.7829C36.5755 59.1286 36.2126 59.2645 35.4866 59.5365C33.5729 60.2536 31.984 60.6719 30.3331 60.6719C27.741 60.6719 25.3016 59.6406 21.5175 58.0408C16.4692 55.9083 11.911 53.9828 9.19533 52.3532C6.5127 50.7434 4.33312 48.7564 4.33312 45.7687L4.3354 17.4758C4.33388 17.4287 4.33312 17.3812 4.33312 17.3333C4.33312 15.2112 5.84051 13.9092 7.04087 13.1155C8.23978 12.3226 9.94384 11.5155 11.8765 10.6002L20.1755 6.66845C24.3478 4.68935 27.2065 3.33335 30.3331 3.33335C33.4597 3.33335 36.3184 4.68935 40.4908 6.66845L48.7896 10.6001C50.7222 11.5155 52.4265 12.3227 53.6254 13.1155C54.8257 13.9092 56.3331 15.2112 56.3331 17.3333L56.3331 31.9235ZM12.5447 31.1081C13.0387 30.1202 14.24 29.7197 15.228 30.2137L20.5613 32.8804C21.5493 33.3743 21.9497 34.5757 21.4557 35.5636C20.9618 36.5516 19.7604 36.952 18.7725 36.4581L13.4391 33.7914C12.4512 33.2974 12.0507 32.0961 12.5447 31.1081ZM30.3331 8.42425C28.5472 8.42426 26.8257 9.17382 21.913 11.5011L14.3179 15.0992C12.156 16.1234 10.8016 16.7722 9.95271 17.3333C10.8016 17.8945 12.156 18.5433 14.3179 19.5675L17.1828 20.9247L37.5726 10.9437C33.5487 9.05232 31.9679 8.42426 30.3331 8.42425ZM43.4835 13.742L23.0937 23.723C27.1175 25.6144 28.6984 26.2424 30.3331 26.2424C32.119 26.2424 33.8406 25.4929 38.7532 23.1656L46.3484 19.5675C48.5102 18.5433 49.8646 17.8945 50.7135 17.3333C49.8646 16.7722 48.5102 16.1234 46.3484 15.0992L43.4835 13.742Z" fill="#520826"/>
<path d="M59.4716 39.0002C60.0242 40.3654 59.3655 41.92 58.0003 42.4726C56.843 42.941 55.4455 43.9809 53.9206 45.5092C52.4299 47.0033 50.9753 48.8027 49.6831 50.5729C48.3962 52.3359 47.3025 54.0257 46.5296 55.277C46.144 55.9013 45.5384 56.9395 45.3329 57.2921L45.3305 57.2964C44.838 58.182 43.8856 58.7125 42.8732 58.6644C41.8607 58.6163 40.963 57.9983 40.5567 57.0696C39.515 54.6886 38.5918 53.7725 38.1753 53.4552C38.0715 53.3761 37.9948 53.3307 37.949 53.3066C36.6582 53.1204 35.6664 52.0097 35.6665 50.6674C35.6665 49.1946 36.8604 48.0007 38.3331 48.0007C38.8852 48.0007 39.2912 48.1274 39.5619 48.2158C40.1082 48.3941 40.7382 48.7029 41.4076 49.2129C41.9432 49.621 42.4913 50.1477 43.039 50.8231C43.7091 49.7932 44.4987 48.6294 45.3753 47.4285C46.7596 45.5321 48.3932 43.4982 50.1451 41.7422C51.8629 40.0205 53.8624 38.3938 55.9993 37.5289C57.3644 36.9763 58.9191 37.635 59.4716 39.0002Z" fill="#520826"/>
</svg>
