<svg width="24" height="24" viewBox="0 0 24 24" fill="none" xmlns="http://www.w3.org/2000/svg">
    <path
        d="M12.9141 1.38271C12.3217 1.20576 11.688 1.20576 11.0956 1.38271C10.4125 1.58674 9.90798 2.09067 9.44747 2.71495C8.99217 3.33218 8.49647 4.18726 7.87835 5.25353L7.85469 5.29435C7.64695 5.6527 7.76904 6.11161 8.12739 6.31935C8.48574 6.5271 8.94465 6.405 9.15239 6.04665C9.79966 4.93014 10.2545 4.14783 10.6546 3.60539C11.0553 3.06216 11.3159 2.8824 11.5249 2.81996C11.8372 2.72668 12.1725 2.72668 12.4848 2.81996C12.6938 2.8824 12.9544 3.06216 13.3551 3.60539C13.7553 4.14783 14.2101 4.93014 14.8573 6.04665L16.7857 9.37309L15.275 8.80452C14.8873 8.65861 14.4548 8.8546 14.3089 9.24227C14.163 9.62994 14.359 10.0625 14.7466 10.2084L18.2246 11.5173C18.4353 11.5966 18.6704 11.5771 18.8651 11.4641C19.0599 11.3512 19.1935 11.1567 19.2293 10.9345L19.7984 7.39546C19.8642 6.9865 19.586 6.60166 19.177 6.53589C18.768 6.47012 18.3832 6.74834 18.3174 7.15729L18.0824 8.61895L16.1314 5.25353C15.5133 4.18726 15.0176 3.33218 14.5623 2.71495C14.1017 2.09067 13.5972 1.58674 12.9141 1.38271Z"
        fill="#1F1F1F" fill-opacity="0.66" />
    <path
        d="M7.55956 8.46516C7.52553 8.24257 7.39329 8.04705 7.19937 7.9326C7.00545 7.81815 6.77037 7.79688 6.55906 7.87467L3.07102 9.15878C2.68231 9.30189 2.48321 9.733 2.62631 10.1217C2.76941 10.5104 3.20053 10.7095 3.58924 10.5664L5.12701 10.0003L3.0606 13.5648C2.43224 14.6487 1.9264 15.5212 1.61846 16.2355C1.30694 16.9581 1.1269 17.6719 1.34658 18.3828C1.49249 18.8549 1.75596 19.2824 2.11084 19.6291C2.63765 20.1438 3.35398 20.3356 4.15663 20.4247C4.95315 20.5131 5.99107 20.5131 7.28902 20.5131H7.33688C7.7511 20.5131 8.08688 20.1773 8.08688 19.7631C8.08688 19.3489 7.7511 19.0131 7.33688 19.0131C5.98011 19.0131 5.02593 19.012 4.3221 18.9339C3.61462 18.8553 3.31853 18.7119 3.15905 18.5561C2.97963 18.3809 2.85045 18.1688 2.77971 17.9399C2.7211 17.7503 2.72694 17.4532 2.99591 16.8293C3.26429 16.2068 3.72398 15.4113 4.38388 14.273L6.39868 10.7975L6.6184 12.2348C6.68099 12.6443 7.06366 12.9255 7.47312 12.8629C7.88258 12.8003 8.16377 12.4176 8.10117 12.0082L7.55956 8.46516Z"
        fill="#1F1F1F" fill-opacity="0.66" />
    <path opacity="0.4" fill-rule="evenodd" clip-rule="evenodd"
        d="M19.7996 13.0748C20.1579 12.867 20.6168 12.9891 20.8246 13.3475L20.852 13.3948C21.5245 14.5548 22.0658 15.4884 22.3879 16.2514C22.7144 17.0248 22.8905 17.7885 22.612 18.5381C22.4783 18.8977 22.2752 19.2278 22.0149 19.5112C21.4801 20.0938 20.7209 20.3122 19.866 20.4132C19.0184 20.5133 17.9078 20.5133 16.5187 20.5133H13.0498L14.213 21.405C14.5417 21.657 14.6039 22.1278 14.3518 22.4565C14.0998 22.7853 13.629 22.8475 13.3003 22.5954L10.3825 20.3585C10.1974 20.2166 10.0889 19.9966 10.0889 19.7633C10.0889 19.53 10.1974 19.31 10.3825 19.1681L13.3003 16.9312C13.629 16.6792 14.0998 16.7414 14.3518 17.0701C14.6039 17.3988 14.5417 17.8696 14.213 18.1216L13.0498 19.0133H16.4674C17.9196 19.0133 18.941 19.0121 19.69 18.9236C20.442 18.8347 20.7478 18.6735 20.91 18.4968C21.0409 18.3542 21.1409 18.1907 21.2059 18.0156C21.2814 17.8125 21.2867 17.4997 21.006 16.8348C20.7252 16.1698 20.2332 15.3182 19.5269 14.0998C19.3191 13.7414 19.4412 13.2825 19.7996 13.0748Z"
        fill="#1F1F1F" fill-opacity="0.66" />
</svg>
